<mxfile host="65bd71144e">
    <diagram id="4WJGQ-qO7_JB8EZ3yLSI" name="第 1 页">
        <mxGraphModel dx="968" dy="558" grid="1" gridSize="10" guides="1" tooltips="1" connect="1" arrows="1" fold="1" page="1" pageScale="1" pageWidth="827" pageHeight="1169" math="0" shadow="0">
            <root>
                <mxCell id="0"/>
                <mxCell id="1" parent="0"/>
                <mxCell id="102" value="" style="rounded=0;whiteSpace=wrap;html=1;comic=1;fillColor=#fad9d5;strokeColor=#ae4132;" vertex="1" parent="1">
                    <mxGeometry x="620" y="1754" width="420" height="290" as="geometry"/>
                </mxCell>
                <mxCell id="111" value="" style="rounded=0;whiteSpace=wrap;html=1;comic=1;fillColor=#dae8fc;strokeColor=#6c8ebf;" vertex="1" parent="1">
                    <mxGeometry x="840" y="1830" width="180" height="190" as="geometry"/>
                </mxCell>
                <mxCell id="4" style="edgeStyle=none;html=1;exitX=1;exitY=0.5;exitDx=0;exitDy=0;entryX=0;entryY=0.5;entryDx=0;entryDy=0;" edge="1" parent="1" source="2" target="3">
                    <mxGeometry relative="1" as="geometry"/>
                </mxCell>
                <mxCell id="2" value="SPI的作用" style="rounded=0;whiteSpace=wrap;html=1;fillColor=#ffe6cc;strokeColor=#d79b00;" vertex="1" parent="1">
                    <mxGeometry x="40" y="90" width="100" height="40" as="geometry"/>
                </mxCell>
                <mxCell id="3" value="可以比较容易地切换某些接口的实现类" style="rounded=0;whiteSpace=wrap;html=1;fillColor=#ffe6cc;strokeColor=#d79b00;sketch=1;" vertex="1" parent="1">
                    <mxGeometry x="200" y="85" width="130" height="50" as="geometry"/>
                </mxCell>
                <mxCell id="9" style="edgeStyle=none;html=1;exitX=1;exitY=0.5;exitDx=0;exitDy=0;entryX=0;entryY=0.5;entryDx=0;entryDy=0;" edge="1" parent="1" source="6" target="8">
                    <mxGeometry relative="1" as="geometry"/>
                </mxCell>
                <mxCell id="6" value="使用方法" style="rounded=0;whiteSpace=wrap;html=1;fillColor=#ffe6cc;strokeColor=#d79b00;" vertex="1" parent="1">
                    <mxGeometry x="40" y="240" width="100" height="40" as="geometry"/>
                </mxCell>
                <mxCell id="19" style="edgeStyle=none;html=1;exitX=1;exitY=0.5;exitDx=0;exitDy=0;entryX=0;entryY=0.5;entryDx=0;entryDy=0;" edge="1" parent="1" source="8" target="10">
                    <mxGeometry relative="1" as="geometry"/>
                </mxCell>
                <mxCell id="8" value="案例" style="rounded=0;whiteSpace=wrap;html=1;fillColor=#dae8fc;strokeColor=#6c8ebf;" vertex="1" parent="1">
                    <mxGeometry x="200" y="240" width="60" height="40" as="geometry"/>
                </mxCell>
                <mxCell id="12" style="edgeStyle=none;html=1;exitX=0.5;exitY=1;exitDx=0;exitDy=0;entryX=0.5;entryY=0;entryDx=0;entryDy=0;" edge="1" parent="1" source="10" target="14">
                    <mxGeometry relative="1" as="geometry"/>
                </mxCell>
                <mxCell id="10" value="&lt;div&gt;Serializer接口有三个实现类：&lt;/div&gt;&lt;div&gt;① HessianSerializer&lt;/div&gt;&lt;div&gt;② KryoSerializer&lt;/div&gt;&lt;div&gt;③ ProtostuffSerializer&lt;/div&gt;" style="rounded=0;whiteSpace=wrap;html=1;align=left;fillColor=#b1ddf0;strokeColor=#10739e;" vertex="1" parent="1">
                    <mxGeometry x="389" y="140" width="166" height="80" as="geometry"/>
                </mxCell>
                <mxCell id="17" style="edgeStyle=none;html=1;exitX=0.5;exitY=1;exitDx=0;exitDy=0;entryX=0.5;entryY=0;entryDx=0;entryDy=0;" edge="1" parent="1" source="11" target="16">
                    <mxGeometry relative="1" as="geometry"/>
                </mxCell>
                <mxCell id="11" value="编写class:META-INF/xxx.Serializer配置文件，内容为：&lt;br&gt;&lt;div&gt;kyro=xxx.serialize.kyro.KryoSerializer&lt;/div&gt;&lt;div&gt;protostuff=xxx.serialize.protostuff.ProtostuffSerializer&lt;/div&gt;&lt;div&gt;hessian=xxx.serialize.hessian.HessianSerializer&lt;/div&gt;" style="rounded=0;whiteSpace=wrap;html=1;align=left;" vertex="1" parent="1">
                    <mxGeometry x="319" y="300" width="306" height="80" as="geometry"/>
                </mxCell>
                <mxCell id="15" style="edgeStyle=none;html=1;exitX=0.5;exitY=1;exitDx=0;exitDy=0;entryX=0.5;entryY=0;entryDx=0;entryDy=0;" edge="1" parent="1" source="14" target="11">
                    <mxGeometry relative="1" as="geometry"/>
                </mxCell>
                <mxCell id="14" value="&lt;span&gt;Serializer接口添加@SPI注解&lt;/span&gt;" style="rounded=0;whiteSpace=wrap;html=1;align=center;" vertex="1" parent="1">
                    <mxGeometry x="392" y="240" width="160" height="40" as="geometry"/>
                </mxCell>
                <mxCell id="21" style="edgeStyle=none;html=1;exitX=0.5;exitY=1;exitDx=0;exitDy=0;entryX=0.5;entryY=0;entryDx=0;entryDy=0;" edge="1" parent="1" source="16" target="20">
                    <mxGeometry relative="1" as="geometry"/>
                </mxCell>
                <mxCell id="16" value="代码中使用：&lt;br&gt;ExtensionLoader.getExtensionLoader(Serializer.class).getExtension(服务名)来生成并获取单例的服务对象" style="rounded=0;whiteSpace=wrap;html=1;align=left;" vertex="1" parent="1">
                    <mxGeometry x="267" y="400" width="410" height="60" as="geometry"/>
                </mxCell>
                <mxCell id="20" value="" style="shape=image;verticalLabelPosition=bottom;labelBackgroundColor=#ffffff;verticalAlign=top;aspect=fixed;imageAspect=0;image=data:image/png,iVBORw0KGgoAAAANSUhEUgAABB8AAABGCAYAAACE9jyEAAAgAElEQVR4nO2dX4wT57n/v/vTUTcrnXCXcpY/N6GkMGOkbtyiclWpRCqtggReZihroehEKlxAtIfDRXOwI4+LvSc3lK4CUuGCKkIOwsMO6MBJqBSqk5tS0Tr7k9YzkG7gosvudpOrH1TicDW/i3fGnrFn/Gdsr73k+5GsBHueeZ/3ndfe933e58+Qbds2CCGEEEIIIYQQQnrE/+m3AoQQQgghhBBCCHmxofGBEEIIIYQQQgghPYXGB0IIIYQQQgghhPQUGh8IIYQQQgghhBDSU2h8IIQQQgghhBBCSE+h8YEQQgghhBBCCCE9hcYHQgghhBBCCCGE9BQaH5owqz7EO0MWptSvsdz1e1t4Z6j29RizA6Ab6RxdjWFoaAgxVYPZ9XsPYWio9qVCHwDdCOkGMxdOYviIirELOqx+K7NmWcBpTcXwkZM4vdRvXQjxYCQRHxnByEgcOX7BO8BCLj5Y42gk40gOijIR4dr/xUB/9xaGvl/7KrW8Vh5ELCOJeNLotxodQeNDI8yv8Yn+HACwrD/B7CDt0gZZNwKYGrK6eCimfg36ID2fQdaNRGABMzfPYuxF2mAu6ciVFgAAVulPmHlR+kUGGAO5ZBzxeG4AjV2DrFs0jBnD6YuFfH5tL6T7ywPctwBgGySp37oAVi6OpGHBuG6s3bk6yOvrQdaNrAIWjLyx5g0Q/TU+mE/wsfoQU17rX+whLmlPBsOaJ7+CnyrDAIBRZR3G5O7efqwo4QPbeZVfwegA6UY6RNaQUcRDkZUDULr8fJSiDdt2XuUM2rp9j3UjwMwFFcNHGr3OYqZrrT3GzM27a3ehF8QGBen4ZgCAFP8hxjf0WR8AKJ0Vz+7C3X5rQnqBMYO8YcHaJqH5Hs49bW7w6qahoC3d1gaJ8YTTFwmpVKLP2gisXFw8u7W0qLcsPAAAaTu29VsXI4l43gKkFEqldPhc5dqfa/9VQnn/Tdh/cV7F19pbKw8kEtKlAhJwPCDWqIfRP/Wr4WXtIaayz+s/MJ9j1nyMWWsTPiiuW33FahgrbsEH/VYihEHWjQBKsQy730qEMMi6EQIA40fPIOAvBCE9wbIeAACk7a1s4dzT5gZ00VDQnm5rhEQBpWf9VsLPA+ehrqlxfnBfGLn6bZiycs5JrITU5XDDA9f+nTPIupHVIIFCKYV4PA8rfxi5RAnpNWaV7o/xwfwav3N+fEaVTfjX4rqq5c98jln9a3yyNo05hBBSYfxoER/F+60FIaQZ7sZzWyu+68YMDKD5CW+XaEs3EhELwsYjYX9i7YzzYBimLOQO52EBSBQabIS49iekO0hpXE5dRzxvIX84h8Qq/B3qJn0Ju1jWHdcq+RX/jw8AyMMY0zbhVKjl8zlma9y1pmKPQ+OeRGKXh/jYDJCNPXbeD5JpNxnMcyzrX+NS7KFPbir2GB/r3Tu/a1+35/g4FiTTinzvxzo6JnQ1hpg34WIsBrVhAoN6mVhMDc15IJI6xqCZAbIx1Xk/SKbdRJAmTF2DGov55GIxFVoXEzK0r5sJLRYk04p878f6RaIaphEcjmHdPOn/3A0B8MksIKfVh3hMlIJaXMDMhZMY81w3pp0Nzq2wpIvrLtxFNb+EK3cSYw1DPurbGdZOYsLJ5xA+Dm2GqCzdxekLJ31yoj8B7XTUnwi0oxsAYAFWSceEVi9zOmTcXDl/X1QMa79BrmG+jDbmAdzn4+YWqZHVznY/54jl5DrwhTPEEU8mEY/HEewdb8GokYnHk/XJ+Kyc7xr3XkayPoSith13w9fqaXPFnT8kFKPaZlIYNTrQra0x8Ogm3HctGLmkXy7ZIHY/5PkkDatOxrIMJONxj+5hz6+1duLxJIxu9scycD1K7oQ2dGsk03ReB8mMxEWYA8IMU63PA8BA0jsHHdmqfmFyAIw88hYAKYVGETRc+0eHa38Pj5ahvfsZYp4kkjG1BO3Tp11q4CnMT/8KVf3Ml6iyeRtPodfoNaR+BrXrMgIpfRkpCYCVx1pLm7PGEk4+waWhh7ikP/fFhS2bT3Ap9rDJBBfX+GTNJ/ikqVxrLGuPMaV+jVnT/2OzbD7BJ+pDTGlrzYF4cMca0KEOCUOD73amCV09GLJRDZYxTR1qLNZkcyuu8cmaOrJN5VrD1A4ipmahm/6bmaaOrBpDbM3tvAd3rAeV8aNnkN4AAHcxUZtToHQWYzcXAGxGWjuB8Y5bu4uJI8IA4F1LWkt3MaE1Slr5GKe1k5jwbc4XYN08i7HAPAjB7WBpATMXftO9jWrpLMa0s5UElS5uf8TYBdFuf1ZHN+vmbzB2Qa8zTlhLd5G7ENYfZ6xrDSehBg6PTNvzwJHVamSX7iLXVK51LCOJeDwpch34PrBgGQYsC6g77LVyiI/Ub34ty0A+XrNRd93VmyLVtdOue76UTiEBANb1uk2pSNAHCFdaEcvbiW5tjYGHbRKQi8eRzPs356GJzYwkRkKej5GM+xfDVg6H40kYlu/OMJLuRjccKxcPbMc1ZoRtiNvujzvmbeROiKJblHkdKlP5VwLjtZv+iPMA0nZsswwkHVmPEsjHg5+XMSPeTaR6dfo6uOtRrv1rZHu69gfwaQkxtYTsp0/968tHy8i++9euVLEwL36O2Lt/hf7IbwAQbXyG2MUgw8Ay1O8Lo4Gvq4+eQn/3c2gPg1qKIuNFQmK/+Ma538E1g90Pyl/ZeZj2cZj2cfkr+/NyK0L/a/+37Mgo/89e8rz/ufJl5V5LNVKfK46M88pnXFn//ZrrumB/3kC7pcyCnVe+sj8v/69P52r7jeVbbadjGY9uov9f2v9dN/59GusWKWdkG4ANpWh7VS+Xi3ZGUexMXX/KdkZGgEzZLirOveSMXStWVBwZ5yVnXFn//RooasuADSh2g6vsckaxZSVjF8u+3njabyzfajsdy3h0E/2XB2esW8A8/br90ksvNX9NzHTUjm3b9rXfKva3fqHYh/7ShtBi0f7eL2rl/mgfct773n/9LUTQvebf7V8tNmvkb/avMuJ+3/rtH23T8/613/67eD9T9Lzv1+tbv1Ds73nkzP9yZH7xa/taTUuVz3zt2La5+Ef7V7/9dXNdK+3W37u+7369fP2pHZeI/bH/8utKf1ojgm62bZv/9Wv7e78t2tcWvc/7b5U5Va+b55lmivY1z/3MxT/ahzJB7USYB7bt0cGdk66s/34dMzNR+T6+PjHj18M8bb/+0kv2S6+fDn6/Tsa0Zyac73atTG17LX33Tfv06y/ZL730un068GYhUu7vj7eNSj8b3Ksd3SKMgXj/dfv111250/aM6d5uImTcZuwJp52J06b/+23O2KcnXrd96pqn7YnXJ+wZ06yRbzKG3nlw2tMfc8Z5BvXjEq0/Ic+nERF0azSvzZmJ4HkdKmOGy0T5LlS+VxP2hDO/JyoD53nedcPjfjZhNx05rv0jt9OxjEe3tbr2tx9+YcvxmzbiN235l1/YxYfVj8oPl+zML79ovJ6tyP+l8Zr8wl/E/b984nn3iV38pWg7SL584X/EZ79c8u9LvlyyM7/8i535Mqid9mXqqHzXW/j+DRD98XyQX8G/ZkS2Vphf41LMdelpYCE0n+D/mkL2lM9daxhjxU34qQynBE34LcaKW3BKc2WH8bOM495lPe84w+6otgmniq9gTB72vCt0GwMAPMfyAJ3cLmuP8YkJjGY24We16V8HfKwtSwykoii+zLWyrEArFqHV9UfHNROAnEG56JWRoRSvIiMDMLPINuiPUiyjrLmyMrSM4ihT430RAVkrolzUoMi+3kApFiFasWAO0NwxtYPImoCcubrmxnq1Ca16oen1J5sbFBT2bnbkRKiB+1/ET2DW+awjlv4EY0m0NXt0l+eUajPGj/6b8L5Y0pELDNVw9PDISXsPOJ4Yj2HVnHjfd07dx7+/y3caJm3YhfeOnsB7XahgYd28Vh2fuv6ccfJtLMAIC1dooz+rpZu09wRmjyoY3+B93psxfvREsG6layK0YoOCWU3xVQaRNmzC9iDlOp0HEN46s3td2c14b+8u8cHy4w7DVgwknWNZKVVCqZDwn6YGJtirxpzXy0hIpFINT2SjJZu0kA+peBF0qlzxfnDzRXgT9JXC4+Rb1y3KGLh5DixYImAfpUIabsoDKbE9eNwqFRZSSKX9oSeSlEC6UELBexIvpYVXR11oQKMQh+o8SBSeoZT29EdKIH3Z6Y87np30B1VvlkSdC0G3dGs8ryUgYF43kpFCZDr7LsAyYFhiThYqA7cN28OE2qm2wbV/31nLa3/94l/FGvCNOMrvvwbl1epn8quj0N5/zVkzd4Z8xLn/lpc9774M5f24c/9/wKzxSrAcLwnljVH/vmTLKLT349C21LcTRaYOKQHh/GBgLTk/9C3sYlTbgg/KmyolY1yXnnccd59a3Fix0QPrAsrSDGPsgLjP30N+xEYzW/C2Mux/Uxpur8RNJIbxL4NW20V/LLINK5twShuu+3jQx1qSxIDqakDoRQCmfg0mAPmAElBmR4ZyQLxrhezw5UwZxdp6lJK0CiV7JEgDN3dUxLImoBRRrrM8DPZYS+kSnj171vxV6F/ZN2nvv1XDL7STIl+Ds0HsBlbpT2JRGv9hwAJ0M8ad8pb3g9z1A/XYhO0hRoTtG1xDSkDoRVdYwEypauAIwn3f7bePNvuzqroFEqybtfQYQNgzDaajeQBA2nsGH8VrjGGjm7rjcu1J5ng5YEfuupf6NuOemHO/jAXLyCHpbsb2JwJ1jJRsMpSAUAgAQAKplATAwEwuJzKVQ2qcoK8d3TocA0gplGp/+8IqKUiS2GhaeRxulBMijBY2rFYuL8Y5UUDgT7KrQxjt9MeTbLIV+1Mk3ZrM60AjUySZiPPAE+ojpS6HzMmA8Wmz2gbX/n1kTa/9l6F/CgAvI3Ok908vmH+G9GrwJ9KrwlChvxsQRhFCFJmAu0BaQ8V5XPpWahMAIK/Dz4rr8DMnYcvvsk+wbDrJShR/4pm/W2KyL2cf4p1s+039i1z/RYP8Ck7Zr0TVvo5l/TF+l32O5UZW3L7zBJfUJwDW4e2QxD6DPtayVkbREoYHXY2JGC9ZQSaTgVa7cUXVU8LMxjAUoT+SHPAXRNZQtrX2bxaCqas4mLVgDpKLQx06VFUHoKBYDLYvr4WxXk3ar3axGe9pJ3D/iJuQcDPSR5SuxdG6m0nr5kkM3+zSTUOQ9p7BR0vC8DBz4aTwAtiwC+m9B/Be7cY1Eo9xfwkANmN72FrE2RCvfgL1znSzSmeRvPkYVsOcDQL3mW7f0PqYdjoPAtvaoGD2YufnThXjQuAm2d0k+jfjlQSQVh7xkXzwjUM2cG1vPN0NX6qEUpv1zaT0ZaSux5HPCx0TtR4CHegWbQyqJUOD4vUDDT3iaqRSEoy8JfIRjACQEkilUki3UCnCMq432bBaMK438URwDRg+IvanrWST0XRrNq/de3rndRSZqN+Filzg90RCuvQM6YBbRaq2wbV/H1jja/9HT8VvxqujPo+HXmF+WsLBi/+A+ai1JJbykR+h+EgYEfR3PxP7kldHkTnyGrQ3Xu6aTBDbtouVxAPLAtZIpZ4BSTg5jFFlE06VJZxyXLKW9ce41I3MIavErGphSn0y4D8+z/Fx7DFmMYyfll2XsLWJUizDLheRUWRxKu4kZxxqUFFhUNHVIcRUfcANDya0mAodMjLlYldc21abSsb5Zq+WU7D3iKXHuF/5xwLud+qr2EfGj57Bc+0E0vHNYvHsJE0cblBR4ZvOzAUVYxfutmR4ePFoUu7QPdX1bcarm7B6JEhSAqlCCc/CSpG1WeWgo7KXlbaEbs0jKVrVLeIYeMMn6vbRjZ+FlC7hmeOaLzm65pMiAWOzX9DmIQ6uESEgkWL1JmIzkhhH5ZKo/Wkr2WQU3ZrM68pz9s/rKDJRvwuVJKphnjE9gWv/1eHFWfuvBvq7txB7d7llw4OL8v6PYF+NI/PGy2Jf4iSoHFJL0EOSR0aReRHor+dDAKPaFrxtWbikA7P6E0ARFrp/kYYBPMdoZkugu1Bf8fxYjhVr3Y6e4+PYQ3wyAPvKWVXoMVbcUh/r5WGgx9qLrEArKtDgVIY4qEI3dagHNZTLWsVVX4RpmJAz5cBQgb6iq1CduaMUa0MOTGixGLIDMHd0VeihFMv1eR48DPRYrwkWcPqiyAcxHt+FmdJdkffhYjeqXDgn1qUFSHvPdCeHRCts2IX3ju7Ce3AqNlw8i5mlu5i4uAmzWideHU4YQiMjhpt/oFshAS0TUbfS2UppVJEXwvuMFnBaOxlaOvP+0gJQ51HiemD46cs8aInqyXU9FnJuCQVpf+ABT6LwrIknQVCTAZvYUNrzkvCLuqEWQKJQwPZ8Evm8gXQjhdvSTdDOGDT2QHCfRQPDhyTCRkQlDwPJw0kYloF8zkIi1CukhTEM9GrwU6mw4LEARO1P5fS+lY13JN2azGsnFMKvWxSZKu19F5oYOlq5w/0HQAe/slz7944XYu3/6suQAJiOB0TPVpeflqB+Kv5Xef9HKPo8EJ5CUz9D9lED+S2j0N4fFfuSh8vI/kcJ+qNlqP/xV5SLrwXrHUXGQ0cG8T4xIJ4PwYxK1ck/6rjzLFuDZ12sWDzlVypxbFWe4++rrlEA7o+ksglvNzm2HuSxDkOWFRSvZhwvCH9pKVkWX0jTCv1L3jdM09FJziBTFzJSXyu9L7gGEqWIkGiLCoM81msh58PMBWdzGT+Bj46ecEI2AspvRkTasAlANU/AaiNt2IWP3DASn4dHFDZDGgWABeRuBo3PAk4777v9Xj2i6VZ5LhsUpIMMCQF3ckMg6p/pAk5rTsLSGvozDyzknASNgaUOm2Ak447XA1qOL+86bXpJeOWS8WoSwEIiIUqkGcnwkoerQEMPhHYSCQIi7MIp+yY2oqGttmTU2OZcG/SnxKqMm9/7IGp/2lq8R9QtDCt3uDqvWxzrKDKNbxhxXgOQ3IDzB91br3Dt30UGfu3f6t8FN9/CMrKBpS67g/noH+J/Xn0NmbrQh3+0NcflLaMo/qdjPHDDRrou04FBvI/0xfgwqz3EJS3ATcmJ+RKWxGF8z/tlVtYJVyHdranrFRRxY5dijzHba+UDcL+wMJ949HqOZf0xpoYe1+jaB8yvMaU+qWSwbcoAjzVgQlNjUDW9pgKECd1Jdgi5ZmGqKCJMQFcRU7WasAwTpq5BjaldqQ/cLu5mHeY1j14mTF1FbGgAQkhMDTFVr1SvaMoAj/XAUzn13oWPnESIlQoHpbMYuxnmhu8mIlxA7qLeOJwh/sPq/S7UXrsAq6RjImTD2h4LOH3hJCZu3q2pGrGAGTfBYlglhjYY3+sYMkpnRaiCt50Lv3G8BHYh3YfT/Si6VQwRS3/yPJsFWKWzGDsSHKpSSRpZOosJt3LG0t2GXhKrNw+qeDdMVuim282qb+G64V5sIZeM+673x5d7ap3nkzB8qzUnyV4LoQAwZpBrttKL4IkAGJX2pUShkidCSuyHBMDI55ovMJvqFmUMmixaw6qKJONI5oy6jbdlGcjnW6gYEeA5YFkGkvGcR7/qPMgfznn6Y8FIxiublESh4HkOUfoDVLPEt7p4j6Jb+LyO5y1Udvw+3QJk3DYcGalOJuJ3oa2wkxrc74J1v6lHCNf+q8waWPu39ncBAF6G4hgDzIufibAIz6fmo2Vo7/6147Wl/Oo/i/95tOwJe3gK89MSYt8vQQ/0engK7d3PoF5crqmC8RT6HUdPx3OjM5kgWjDmDiD9CbuwnmNWf4zZBglN6svArMPb5VcwFftafAH0rwOk1nUhlukJLg0Ffbme4NJQ9Zfc55akrMMYnmAWz/FJzMInPrlhjMpBpXYitBNJ5jk+Pvi1KHFjfo2poaBxq5VZrbGOiGVC11XogfNHhpLRatyUFBTLGcRiWZh6FmqgoNKFPAY61KGgjbUOdWioqqE3JEFRoECHDhPZ2BD8msmQZTOgzGaEdiLJmNAOZsWPoJlFLCSDpF9mtcZ6bTBzQUWw8+IufOQNpVjSMeZ4N1RLKjrXHf0Thi/chXXzNzgdPxNQolKUOcxduAss6ZjQ/E/Zn/RyFz7SHmNM08UGsxT0p3pXV0I8sLyAmdJZzNw8G/Dh5urmvMJdTBwJ2vDexcSRqveAL1Rgg4LC3j9h7GZ1g17bTlrrTshKhdJZDNe10yXd4j/EOO5iBgvIaSpyNddLGxbqS4BuUJCO65goCc8Z73yT9p5BeulkJZSjyirOg7YQm6e8ZcHKx+HLlyelkNqWR96oP6GW0ikk8sLlPxkfCbhvIrwviXEkYMCAgXx8BN4ma13XK0n5jCRGgpqpK5tZNTyIso+em0kJ7JfysKw8DucSwckr29Ct/TFovGgNTST4wIJhJGGE5DIMzrfg/Vx4DlgwkPQNolc/CelUAvmkAVh5JOO1jUlIFC7XhBVE7E/FGGLVjXFVtYLHIy6Kbo3ndSl1H/GkFWhUayZTS5TvQlthJ0H3SwCG0SzcBlz7R22Ha38A/gSNwhhQe8Uoir5/L0P9filg3bsM9fu3fPctH3G8HN7YAAXL0PEU2YO3atbkL0N+9SnMIAPEo6fQPy1Bvxik+ctQjgSET0SRqcWtiNOWQbz/9MXzYay4BW9n1lWthi7yMEaVV/B2WQqON5JfwSmnRI8/gbgr169EKutE2zV1fkUinS34aV+tUc/x9yjW14EdaxnaVU+iSc/7spJBsVwODg2QNZTLjeT6lURREW37qjzIkJUiyuUyMn2dOxasSHNnUMd6UKnmeRAbyZqP4wec8pvCsyHwADR+ArNHFYy3UvFgg4JZbxLICpshxRV81JXN+ma8d6RRG2farAISjrT3TEDfq+3UG2tWj/Z12yXGv+76E5jVziAdUjlj/OgZfLTXM9YbNmP8aJN8DqsyD6pI6ctIOQ1JYSUKIcKjSqmE/zS3UMKzkoT7oSfUCRRKBaQS9SUhpUQKhVKhwcJMyCZqd6wBO9gH4UH4Dt6Nr4Vc3Dl9Dir76DmltvL5EM+M1nVrewwahlUEV1IAJKQvO23UqdQksadHz1TBv8mVpAQKpZRfv0QBz0qpmr67fRGJLv0qR+kPfCUmw6gzWLSrG0LmdaqAUimNSgmXCDJBlUja/S50GjPuerpY1xuXXeXafzVZG2v/Vv8uuCjv/wjl91+D8qo/JEJ+dRSZ91/rwtpyFMWr8Zr7vwz5jTjKV3+ETGCljZeh/acnaaRP7jUUr/4IxTe6IVOLmwdJQqqhxXfwGLJt2+63EoQQQgghobgJG6UUSk03uISQ1cNCLi5yskQpQUsIiYCRFNXZfJ5Za4OBTjhJCCGEENK4kgEhpH9ISF9OQQJg5Q83z51CCOkMK+fkl1l7Xg8AjQ+EEEIIGQjECWrS8GbOt2DknCR7a3ShRcgLj5TG5ZQEkTujhQSvhJCIVEvtJgreHENrB4ZdEEIIIaT/uG6kIdClm5DBxkgK4yEYHkVID3gxQpzo+UAIIYSQ/pNIoZBKBCYzLJTW7kKLkG8KiYJIuJlIRamcQQhpjITE/gQSa9jwANDzgRBCCCGEEEIIIT2Gng+EEEIIIYQQQgjpKTQ+EEIIIYQQQgghpKfQ+EAIIYQQQgghhJCeQuMDIYQQQgghhBBCekrPjA/Ly8tYXl7u1e0JIYQQQgghhBCyRqDnAyGEEEIIIYQQQnoKjQ+EEEIIIYQQQgjpKTQ+EEIIIYQQQgghpKfQ+EAIIYQQQgghhJCeQuMDIYQQQgghhBBCegqND4QQQgghhBBCCOkpND4QQgghhBBCCCGkp9D4QAhpibnzb+LUW9/F9PkPsNJvZRpgJONI5qx+qxGCCS02hKGhGDSz37q8OFhGEvGk0W81CCGEEEJIA2h8IGuUecxdn8T0W2/izmK/dallkHWLyOIH+MO9eQDAyr3fozyg/bJycSQNC8Z1A4NqfiDdxoKRN2iAIIQQQggZcP6p3woQEo2HKN+4jRVsRayFq+fOfxdX7jW6Yg8OfTiNHX3QbU2w8R38eOfvceXePNbv/AliG/utUABGEvG8BUgplEppSP3WZwDR1SGouvh/pWijqNRdgCFVB5Qi7LoPBxUJ6VIB90eSMIwk4rkSSmk+fUIIIYSQQYOeD4SQlthx7BamPvwCk8fewfp+K1OLlXNOvSWkLtPw0Aq6rvdbhS6SQKGUggTAyh/GwEbdEEIIIYR8g6HnA/lGsePYFzi0s99akO5iIXc4DwtAolACD72boygKdD0LzVSgyf3WpktIaVxOXUc8byF/OIcEvV8IIYQQQgYKGh9Id1m8jSvnz2FucT7kgq3YPXULu31u+/OYO38Cf7g3X0lkuH7jHvz42DR2eK+7N4lT52/X3G8ed059F3dq3u3UyFAN0wgOx1i5/iamb8xXP+9YtxbHAAAWP8D0qXNY2TmNqWNbMHf9HP5w47YjtxXr9x3Hz/fvCfFOqG8HG7dix76zOLRza4Nx8NJCiMribdy5cQ537lXngejPcezYWNNOR/0BYOSRtwBIKaQSjZTyYOrQsllc0024eR9lWcGBTAaaErAbd67P6tUskbKsIHM1A0UO272b0LUsslm90gZkGWiYaNKErh5EtkavzNUigtSK3B9FgaKryGZ1aC2FV5gwdR3Z7DXopn8M6tvQoQ6p0JUi7CKgxlToJiArGVwtaoCu4qCqw4QMpViuD/2IOgYApPRlpK7HkbfyyBtpFFqYD0YyjqQBJFKXUaDlihBCCCGkZzDsgnSPe5OYPjXZwPAQxG1ceetNXPFuhgGsLN7GlVP9S9i445hrILmNK7VGhXuTjuFhK3ZPdSNPRNQxmMedU2/iSmWjLt5buTGJ6TpDSHg7WBQGia6NtTMPvIYHoNqf6eth86Pd/giMGZFkMJFq8aRbVxGLqb7NLQCYpo6smkVdMILnetRcr8ZiiAWWrdChDsWgeg0PQqiRYkImQD2R48AAAAsOSURBVC811qA6Rrv9AQAoUBQAuh7yuR9TO4iYmvUZHqpthIyBpVcMDwBg6llkNc0xPADCyKDWtB9xDCpISOwXs8CdFw2xcsgbFkTSyjyYrpIQQgghpHfQ+EC6xDzuuJvGndOY/PALTH34BaampqteDjunMfWh1+thHndOTWKuVubDW84p/DzueMs67px2Pv8CU5WT963YPfWF533x6jy0Yit2HzsuTtvvTXpO/6vGiPX7ztb0LYpubY6Bl3vncGcRWO+Rm9zneBXc+0Tc08PK9XMB7XyByalp7N65JXAUdhzz6D51vIVcD2J8VuDXq9ofYOVGiKGjzf4IDIg9ZgLjrXg9mBpizuZXVjIolm3YtniVy0VklFrzhQ61cn0RZdu9voyicwxvZg/WbIpNaDFnUy3XtxF8eu+RCWzHRPagVu800XZ/qiiZDGToyLZU81Ny7l+u3F/o5qiRDTBymDp0U0ambKOcEZ3Ws1mYcgZluwghannsMRHHoFbTxH5hhDJmaEwghBBCCBkgaHwg3WHxtlN+cQ8OHfO4yG/c49nE12wgXZmNxzHplcFW7DjmbOwXz+EPDatUtMfc+e/i1FsBr1MBG/yN7+DnzuZ37rwwELj/xc5pTO6vD1Nom07HYOe0T279/uOO4eMhvqrZ4H+1JDwOdvzAH8KwfuMe7D42XRMKEw2fgaOuP7ccw8s8yvdCvB/a6A8AwLLwAACk7djWgn56Nis2r0oR5aLmMwTIsgKtqMEbBWBq2epmuKigerk3ZMDENa9XhJ5F1gQgZ1Au17YhBXtnmDquuTJ17VxFRgZgZpGt2eG32x8fsoIDMmBe05tu6GXNvb/XciJDKQYZETwoGWiy6Lcrk7mqQYYEqdYIE3EM6pASEM4PrmGq0bVppBJCNymVQqtRO4QQQgghpH1ofCB9Y+Xe78UJ+Q+C4vm3IvYDsbn/qq0wju6yfv/ZavjFqTeFB4RjKOgGHY1BoB5b8O0QI8K3N7iGlIDQi64wj/KfqwaOINz3V/58O8DY015/AAAP7sMCgG0hm3ofOkSBBxmZTGt5DvRrYketKMHXu+97N/CmKUotyAe8G+gmLenXhPdCoIwM5YB41/Lt8NvtT/19tYzS2oY+lAAjguf+dXo5xoggoo1BiE6tWKIcEoUSnj17xvKchBBCCCE9hgknSXfYuAexjedEXP/52/i2e3q9eBt3zp9zwjF+6suP4J7Er9x4E6durI6a7SeiFHkdvnrLzWWxFbu7WGpyNcdg/f5bOLQkDA9z59/E3HkIz5R9x7E7INlk+7jeCVvDDQYbv4P1QNcMH5b1AAAgbW9ht2mawlAhH2iauNC5OywTAGRIYftSSYIICPDqJP4lhSaiDGjJkTGzMQxlWxRquz8BKAoU6NCzGkxFa2gsMXUVB7MWzKabfxcJbQxBtDEIYdt2CYCFB5YFJGhUIIQQQggZBGh8IF1iK3bv24M752+LhINBFRK65C2w6izO46vKP+bFBrsLIQr9YMexW9ixT1SiKN+bx8ribdw5fxt3buzBoaDKGuQFR0EmI0PPXoNuhhsfdHUIamTvCEIIIYQQQmh8IF3DTcS4FTt2AnOVmP6tWL/zOH6+rz6sQIQBzGP9vlvdyZ/QE+Yrnhs7du7B3L3bmDs/idjOblS56NMYbNyD3cf2YPcxUYHiD+cnMbd4G1fOf4BvT3Xi1eGESDSqmrH4pfB62Li1a94jAGDdfwA0C7yQZUgQYREW0EJIhBNS0Oig37LEx5Jcdz/LNFHvkuB6U9S05DQkZ8ooh8Ul1NJ2f0Juo2WgZJ2ym0HRG7paMTyIPBfelkxosZjIcdEhkcYghAf3RejLtlCXFUIIIYQQstow5wNpgoVcfAQjIyOIJxtkb3OSSa7fdxaHjt3yVHe4JRIIBpyor98oKiysLD3sjepdYO68U+py5zQOHZt2QjYCym9GpN9jsH7jHhxyE4Iufunx8IiCG24hKp/UU31//Ybg6hrtIrnB/Q/EBrzJ1U5+glYrPMgQeRJNZAOTIpjQnPdlzyZXcpIgmFatRp5qDrUtOQkZ62Ua0W5/wmhcdtPNYQE5g0yQMaWDlr1EG4MgLIhoHAmtROMYyThGRkYwEs91rS+EEEIIIaQeGh9IQ6zcYeSdFbllJBFmf1hZFJvnlT/fxtziPFYanX67uDkg7k1i+vwHmPPJzGPl3ge44pahrGNLdaNbJ9slKiU2qyEjO45NV3W+HpYIsw3dOhqDdpjHnfNv4sr12zXPZh5zTtJLbPwOvt1hKzv2VcuTTp/3JpWcx9x5t8TmHvy4W14eiXFRocC6L6peNKSatNDMxiolKl1MU4emar4NuChHCUBXa643oasHnRN/BRnPSb2sHKjIqG4VDFNv7CGgKKJqhK4ipmrQfdeZMHUNap3hov3+hOGW3dQDLq5UqjCvefQyYeoqYkNqja4dEGkMgngA4fiwLTxXh4uVQ95wf+DyOJyj+YEQQgghpFcw7IJ0hfU7f4L1N+axsngOV06dC7hiK3bsO44f7/eGX+zBoanj+OrUOazcO4cr987hSp3cHsQCW/TkmHDa9MqGJZacO/9dkWgxoJ1DH3pCKRY/wLTj3VAxOLjXHduDufO3sXLjBO7svBVQorId3ToZgzZZnMfcvUnMBSa23Iod+2pDLm7jyltBho/buPLWdyt6+kJGNr6Dn+/7PaZvzGMlMPeHSODZjZAVQQLjCcAwDORzFhJNKhbIWhlFKwZVdzfPtVcoKPoFcDVzDbFs2PUyMuWiv5ylrCGjZKHqgK7G4BWRM2VkrFhA/gQFxXIGsVgWpp6FqgdlXFTqyma23Z8wZAUH5CyyQdYHNyklTGRjQ/BrJkOWzeAym20TbQzqMGZgAFXDVCMkCduAisdDS+E7hBBCCCEkEvR8IA2R0peRctbiUqKAQthqfuM7+HGlYsJWrN9Ye7I9j7kbk5UNvVducmoau3fW5gAQuSIONdqo7pzG5LHj2FHXVqdU8zxg43H8uNaIsfO4Y3AQng2BlRva0a2TMWiZrdh9rFEbt9qsAhLO+v23AvpebafeWNMZiXExKa3rRktu80qxjHIxA6WmFIMsK8gUM4Eb/PrrZchKBsVyObB0pFIso5jx5IGQZdFuo1wGsoZyuYiMUps/wm2rGLjxbrc/IY2LspuBKKLtuv4XUS6XkenmXj3iGFSxkMsbACSkUk1NDwASKIT+qBFCCCGEkG4yZNu23YsbLy8vAwBGR0d7cXsyYKxcfxPTN+aBjccxGZC0cOX6JKZviISUu3uwASXfZCzk4nHkLUBKlVBq4v1AXmCMJEaSBpAo4FnLRgUDyZEkDHD+EEIIIYT0Eno+kC4wj/KfRf6Detd9wfqd3+lqdQNCqkhIX05BAmDlD4Nh+99QrJyTFLdVrwcAloFcXBgegARSNDwQQgghhPQMGh9IV5m7MYm5RX8ixpXF27hSCWP4CWL0eiDdRkrjckoCYCFf2UySbw4WcofzsAAkCiU0tSFYOcRHRjASTzoJdSWkSoXmOSIIIYQQQkhkGHZBusO9SZxqWn6SIRektxjJOJKGBUgplEpppg78RhAh7MbKIR7Pw5IkJPankEonOFcIIYQQQnoMjQ+keyzexp0b51C+N+9PwrhxK3b8oLbSBSG9wUjGMTN+GYUEt5PfFKxcEnmkUGDYBCGEEELIwELjAyGEEEIIIYQQQnoKcz4QQgghhBBCCCGkp9D4QAghhBBCCCGEkJ5C4wMhhBBCCCGEEEJ6Co0PhBBCCCGEEEII6Sn/H8Z7ymsK92poAAAAAElFTkSuQmCC;sketch=1;imageBorder=default;" vertex="1" parent="1">
                    <mxGeometry x="200" y="490" width="544.5" height="36.13" as="geometry"/>
                </mxCell>
                <mxCell id="22" value="实现原理" style="rounded=0;whiteSpace=wrap;html=1;fillColor=#fad9d5;strokeColor=#ae4132;" vertex="1" parent="1">
                    <mxGeometry x="364" y="565" width="100" height="45" as="geometry"/>
                </mxCell>
                <mxCell id="23" value="ExtensionLoader的静态属性" style="shape=table;startSize=30;container=1;collapsible=0;childLayout=tableLayout;fontStyle=0;align=center;pointerEvents=1;fillColor=#dae8fc;strokeColor=#6c8ebf;" vertex="1" parent="1">
                    <mxGeometry x="178" y="630" width="471" height="145" as="geometry"/>
                </mxCell>
                <mxCell id="24" value="" style="shape=partialRectangle;html=1;whiteSpace=wrap;collapsible=0;dropTarget=0;pointerEvents=0;fillColor=none;top=0;left=0;bottom=0;right=0;points=[[0,0.5],[1,0.5]];portConstraint=eastwest;" vertex="1" parent="23">
                    <mxGeometry y="30" width="471" height="38" as="geometry"/>
                </mxCell>
                <mxCell id="25" value="&lt;font style=&quot;font-size: 10px&quot;&gt;String SERVICE_DIRECTORY&lt;/font&gt;" style="shape=partialRectangle;html=1;whiteSpace=wrap;connectable=0;fillColor=none;top=0;left=0;bottom=0;right=0;overflow=hidden;pointerEvents=1;" vertex="1" parent="24">
                    <mxGeometry width="241" height="38" as="geometry">
                        <mxRectangle width="241" height="38" as="alternateBounds"/>
                    </mxGeometry>
                </mxCell>
                <mxCell id="26" value="&lt;span style=&quot;font-size: 10px&quot;&gt;服务配置文件路径&lt;/span&gt;&lt;br&gt;&lt;div&gt;&lt;span style=&quot;font-size: 10px&quot;&gt;&quot;META-INF/extensions/&quot;&lt;/span&gt;&lt;/div&gt;" style="shape=partialRectangle;html=1;whiteSpace=wrap;connectable=0;fillColor=none;top=0;left=0;bottom=0;right=0;overflow=hidden;pointerEvents=1;" vertex="1" parent="24">
                    <mxGeometry x="241" width="230" height="38" as="geometry">
                        <mxRectangle width="230" height="38" as="alternateBounds"/>
                    </mxGeometry>
                </mxCell>
                <mxCell id="27" style="shape=partialRectangle;html=1;whiteSpace=wrap;collapsible=0;dropTarget=0;pointerEvents=0;fillColor=none;top=0;left=0;bottom=0;right=0;points=[[0,0.5],[1,0.5]];portConstraint=eastwest;" vertex="1" parent="23">
                    <mxGeometry y="68" width="471" height="39" as="geometry"/>
                </mxCell>
                <mxCell id="28" value="&lt;font style=&quot;font-size: 10px&quot;&gt;Map&amp;lt;Class&amp;lt;?&amp;gt;, ExtensionLoader&amp;lt;?&amp;gt;&amp;gt; EXTENSION_LOADERS&lt;/font&gt;" style="shape=partialRectangle;html=1;whiteSpace=wrap;connectable=0;fillColor=none;top=0;left=0;bottom=0;right=0;overflow=hidden;pointerEvents=1;" vertex="1" parent="27">
                    <mxGeometry width="241" height="39" as="geometry">
                        <mxRectangle width="241" height="39" as="alternateBounds"/>
                    </mxGeometry>
                </mxCell>
                <mxCell id="29" value="&lt;font style=&quot;font-size: 10px&quot;&gt;接口Class对象 -&amp;gt; ExtensionLoader实例&lt;/font&gt;" style="shape=partialRectangle;html=1;whiteSpace=wrap;connectable=0;fillColor=none;top=0;left=0;bottom=0;right=0;overflow=hidden;pointerEvents=1;" vertex="1" parent="27">
                    <mxGeometry x="241" width="230" height="39" as="geometry">
                        <mxRectangle width="230" height="39" as="alternateBounds"/>
                    </mxGeometry>
                </mxCell>
                <mxCell id="30" style="shape=partialRectangle;html=1;whiteSpace=wrap;collapsible=0;dropTarget=0;pointerEvents=0;fillColor=none;top=0;left=0;bottom=0;right=0;points=[[0,0.5],[1,0.5]];portConstraint=eastwest;" vertex="1" parent="23">
                    <mxGeometry y="107" width="471" height="38" as="geometry"/>
                </mxCell>
                <mxCell id="31" value="&lt;font style=&quot;font-size: 10px&quot;&gt;Map&amp;lt;Class&amp;lt;?&amp;gt;, Object&amp;gt;&lt;br&gt;EXTENSION_INSTANCES&lt;/font&gt;" style="shape=partialRectangle;html=1;whiteSpace=wrap;connectable=0;fillColor=none;top=0;left=0;bottom=0;right=0;overflow=hidden;pointerEvents=1;" vertex="1" parent="30">
                    <mxGeometry width="241" height="38" as="geometry">
                        <mxRectangle width="241" height="38" as="alternateBounds"/>
                    </mxGeometry>
                </mxCell>
                <mxCell id="32" value="&lt;font style=&quot;font-size: 10px&quot;&gt;具体类Class对象 -&amp;gt; 创建出来的实例&lt;/font&gt;" style="shape=partialRectangle;html=1;whiteSpace=wrap;connectable=0;fillColor=none;top=0;left=0;bottom=0;right=0;overflow=hidden;pointerEvents=1;" vertex="1" parent="30">
                    <mxGeometry x="241" width="230" height="38" as="geometry">
                        <mxRectangle width="230" height="38" as="alternateBounds"/>
                    </mxGeometry>
                </mxCell>
                <mxCell id="42" value="ExtensionLoader的成员属性" style="shape=table;startSize=30;container=1;collapsible=0;childLayout=tableLayout;fontStyle=0;align=center;pointerEvents=1;fillColor=#dae8fc;strokeColor=#6c8ebf;" vertex="1" parent="1">
                    <mxGeometry x="178" y="790" width="471" height="145" as="geometry"/>
                </mxCell>
                <mxCell id="43" value="" style="shape=partialRectangle;html=1;whiteSpace=wrap;collapsible=0;dropTarget=0;pointerEvents=0;fillColor=none;top=0;left=0;bottom=0;right=0;points=[[0,0.5],[1,0.5]];portConstraint=eastwest;" vertex="1" parent="42">
                    <mxGeometry y="30" width="471" height="38" as="geometry"/>
                </mxCell>
                <mxCell id="44" value="&lt;font style=&quot;font-size: 10px&quot;&gt;Class&amp;lt;?&amp;gt; type&lt;/font&gt;" style="shape=partialRectangle;html=1;whiteSpace=wrap;connectable=0;fillColor=none;top=0;left=0;bottom=0;right=0;overflow=hidden;pointerEvents=1;" vertex="1" parent="43">
                    <mxGeometry width="241" height="38" as="geometry">
                        <mxRectangle width="241" height="38" as="alternateBounds"/>
                    </mxGeometry>
                </mxCell>
                <mxCell id="45" value="&lt;span style=&quot;font-size: 10px&quot;&gt;当前ExtensionLoader管理的是什么接口下的服务&lt;/span&gt;" style="shape=partialRectangle;html=1;whiteSpace=wrap;connectable=0;fillColor=none;top=0;left=0;bottom=0;right=0;overflow=hidden;pointerEvents=1;" vertex="1" parent="43">
                    <mxGeometry x="241" width="230" height="38" as="geometry">
                        <mxRectangle width="230" height="38" as="alternateBounds"/>
                    </mxGeometry>
                </mxCell>
                <mxCell id="46" style="shape=partialRectangle;html=1;whiteSpace=wrap;collapsible=0;dropTarget=0;pointerEvents=0;fillColor=none;top=0;left=0;bottom=0;right=0;points=[[0,0.5],[1,0.5]];portConstraint=eastwest;" vertex="1" parent="42">
                    <mxGeometry y="68" width="471" height="39" as="geometry"/>
                </mxCell>
                <mxCell id="47" value="&lt;font style=&quot;font-size: 10px&quot;&gt;Map&amp;lt;String, Holder&amp;lt;Object&amp;gt;&amp;gt; cachedInstances&lt;/font&gt;" style="shape=partialRectangle;html=1;whiteSpace=wrap;connectable=0;fillColor=none;top=0;left=0;bottom=0;right=0;overflow=hidden;pointerEvents=1;" vertex="1" parent="46">
                    <mxGeometry width="241" height="39" as="geometry">
                        <mxRectangle width="241" height="39" as="alternateBounds"/>
                    </mxGeometry>
                </mxCell>
                <mxCell id="48" value="&lt;font style=&quot;font-size: 10px&quot;&gt;映射：服务名称 -&amp;gt; 服务实例&lt;/font&gt;" style="shape=partialRectangle;html=1;whiteSpace=wrap;connectable=0;fillColor=none;top=0;left=0;bottom=0;right=0;overflow=hidden;pointerEvents=1;" vertex="1" parent="46">
                    <mxGeometry x="241" width="230" height="39" as="geometry">
                        <mxRectangle width="230" height="39" as="alternateBounds"/>
                    </mxGeometry>
                </mxCell>
                <mxCell id="49" style="shape=partialRectangle;html=1;whiteSpace=wrap;collapsible=0;dropTarget=0;pointerEvents=0;fillColor=none;top=0;left=0;bottom=0;right=0;points=[[0,0.5],[1,0.5]];portConstraint=eastwest;" vertex="1" parent="42">
                    <mxGeometry y="107" width="471" height="38" as="geometry"/>
                </mxCell>
                <mxCell id="50" value="&lt;span style=&quot;font-size: 10px&quot;&gt;Holder&amp;lt;Map&amp;lt;String, Class&amp;lt;?&amp;gt;&amp;gt;&amp;gt; cachedClasses&lt;/span&gt;" style="shape=partialRectangle;html=1;whiteSpace=wrap;connectable=0;fillColor=none;top=0;left=0;bottom=0;right=0;overflow=hidden;pointerEvents=1;" vertex="1" parent="49">
                    <mxGeometry width="241" height="38" as="geometry">
                        <mxRectangle width="241" height="38" as="alternateBounds"/>
                    </mxGeometry>
                </mxCell>
                <mxCell id="51" value="&lt;font style=&quot;font-size: 10px&quot;&gt;映射：服务名称 -&amp;gt; 服务类对象&lt;/font&gt;" style="shape=partialRectangle;html=1;whiteSpace=wrap;connectable=0;fillColor=none;top=0;left=0;bottom=0;right=0;overflow=hidden;pointerEvents=1;" vertex="1" parent="49">
                    <mxGeometry x="241" width="230" height="38" as="geometry">
                        <mxRectangle width="230" height="38" as="alternateBounds"/>
                    </mxGeometry>
                </mxCell>
                <mxCell id="54" style="edgeStyle=none;html=1;exitX=1;exitY=0.5;exitDx=0;exitDy=0;entryX=0;entryY=0.5;entryDx=0;entryDy=0;" edge="1" parent="1" source="52" target="53">
                    <mxGeometry relative="1" as="geometry"/>
                </mxCell>
                <mxCell id="52" value="其中Holder类的内容" style="rounded=0;whiteSpace=wrap;html=1;fillColor=#dae8fc;strokeColor=#6c8ebf;" vertex="1" parent="1">
                    <mxGeometry x="40" y="997.76" width="120" height="45" as="geometry"/>
                </mxCell>
                <mxCell id="56" style="edgeStyle=none;html=1;exitX=1;exitY=0.5;exitDx=0;exitDy=0;entryX=0;entryY=0.5;entryDx=0;entryDy=0;" edge="1" parent="1" source="53" target="55">
                    <mxGeometry relative="1" as="geometry"/>
                </mxCell>
                <mxCell id="53" value="" style="shape=image;verticalLabelPosition=bottom;labelBackgroundColor=#ffffff;verticalAlign=top;aspect=fixed;imageAspect=0;image=data:image/png,iVBORw0KGgoAAAANSUhEUgAAAsgAAAETCAYAAAAruvAHAAAgAElEQVR4nO3dX2hbZ57/8U+GgcFLfVFjWpy4N2riUY/cixklacIEsrs1pAvp1lVibVIRhkDwXKQzyTCFmMqLbUYqCrQ06TQXYwJhKZ5MbUfR0MAvAXd3A9nNX81cxD7ROKlu6kSkGM+Fy4blx4/8Ls458pF05NjWP9t5v8AXlnV0Hsm29NGj7/N9NkxOTj6VpEAgIAAAAOB594NGDwAAAABYTQjIAAAAgAsBGQAAAHAhIAMAAAAuBGQAAADAZXUG5Oy0Orde0obwtKaWcdhY3yVt2Fr8ldbYko+/qg1bL6mzb3nnXU0qfQywdBd+H9aPeou/PtWFFd3at/rtYFg/6v2NfvuoygOFxUwqEgyqqalJTU1NiiQbPSAAwGq1OgNyI2SnNTQxL0mamshpLNvg8QCoHjOmYDCipGk2eiQAgDXgh40eQDX1JPbqqfNNdlqdy5mB9nVooCun8MS8Al1t6vHVZoy1VtFjsA5c+H1Y76Wlfb8Y1R+CHldIf6of/f66tLFHfxnskVHBufb9YlT/63zzaEw/GRzTcxO/vvsvdZ757yX+bf1Yo0P/rJ4aD2kxyXjc+t0YUY180a9QJb94AMC6t64CcqV6ErsXwiWAdcKUmZEkQ1HCMQBgCQjIABZnxhQ8dE/R9IhCzmUv/UyTQz8ruNrUf5xT53/OKvD3hzX5D62L3aBiwUO6F01rJLTI1arOL4NwDABYguUFZOcj+66gniZe0NjwtIaGc/mPWQNdQX2ZaFPA6xhfhyZHOwp/pnkNhq9qKNusgdHdGixT1jA1kda/9D3jPCs01ndJ4YniS9s0eif47I+EszkNDk9rfGJ+YWy+Nu3v7dBgV3MVRlev88xraiKnoeGcxrLz+UuffY55jfX9WUOuccnXrJ7en2q0qsfUyaPr+u1X44qlv81fZGzcqf7e/dq38ZUqnuhbXfhqXLGvri+UZGx8RVp0cd63uvD7U4qlv80fY43t19q3sfTaVqnJK+of/ET/urHoWPu4f/U4rpiZjOhQJClTUjxmKtRfhYSZTOqiacqMNCkYTStdjdsEAKCKVrhIzwq2YVc4lqwg29mXq8rAHGN9l9TZV/vzLNtEWp3hdGHQkzSVzWmob7p6XSPqcJ6p4T+rs2+6IBwvnOOqOofnPY7KKbz1qsJF41LWCsCDnoscV3JMnaQ/1U8GPy0Ix5JkPrqu9wZ/o5989W2ZA5frut7r/Y3ec4djSXq02O3bx7jCsXtsi3e9sK5TcOyj64o98zjJjAUVjCRlylBopIpBNtSvdDoqQ5IZd84BAMDqsbKAPDGtoawU6OrQ5OhePb2zV5OJtvzPqhZ0stMamqjteXoS1u0+vbNXT0tmuMuPywntga4OjY4u3MbkaFAD1ZoJrdd59IJ9+7sXHos7uzXaZf10arg0iOcv6wpq8k7xuF7wPMtKjqmP63rv91ZgNYK/1l+GR/W/w6P63+FP9IegNXNsfnWqCu3XvtVvB+02cBt79IdB5zyj+sug90xwwTGeY/tWseFyiwO/VWzwU114JBlvO8d+ov6N9s++ul5mnKZiwSYF46ZkhDSSTmuk2oW7Rr/S6RGFDGuWOhiM1TAkZ3SPBA4AWIYVt3kL9O7WZKJDAbssItAVtAPVvMYnvGYcV/d5lmNs2O4M0RXUZKKjoONFwNemwURHVVbs1+s8gV7n9t2Bu1k9CafM5HtNFb0ZMe3Z5p6uwlIXa1xBz3KZlRyzUt49isNWB4vicX01vhBAf7HT1dniFe37xSd2N4xvlUxXOIucHlfskfIdNNyB2NjYrte8jnl0Q0nnmJKxHbfC7qMxxdLlT7vvF5/oL287x76if317p/WD3ExpKLV7BcdNSUY0H2Jrwg7fUWsq2W7DVu2TmErG4kpKUmif6lryDABYs1YWkH0d+rK3dPayp8ua3Z3Kfl/RoOp+nmXJaWxCkpo10Nu2Ds6zmBdklAmthh2mx/o8SibKWMkxtfetLtjBd9/WnZ7XcC430zcqmuU0H81IkozgjiW3l3PO6X3MK9pnz3DfK1OiYby9MAue19buff58r2DJCI0one6vqA3e0hjqTz+xZqjtcB6rRkg2Ywo2NampKahI3JQRiipd3xWBAIA1jC4Wy5Wdt0KSr8a9kut1HtvURFr/Mvy9prJLm5UP9O7WaNYKumN9V63SCV+bBhZZ1LeSY1bqmX2Q82Z075EkvaLXyr0PsQNlpbnNCbGvLWPBn3OM+dVv9KOvln9Oz3Nt7NFfhos+ezBjCgatXsFGaKTuYTI0ktZIpEmRpKl4MCil06rm2j0zc08ZqQ6BHwCwHrCTHhYWQi4xHDt6Erv11K6FDkiSvahvQzhddifClRyDOjBcC+eSkbovnDNjQXvrZ0PRaoRjo1/pJ0/05IndSs5MKsLe0gCAJapqQK5XyUNjSitsvmZrFsqZ4V3r55lI59vc9STci/SshXoDz5q99rVpMLFbk/Ziux6fpGxO4b5FdvBbyTE1067XntXuzKnVLVeasEze5RDOTHYhZwbYePuT/II+r6+/vF2FNnR1XTjnKF0QWN2ub4ZCI3b/5uQFEZEBAEtRxYA8r7GJhUVYJTyC3tTwnzW07FnDZ5yn5py63JyGPNufra3z5N9s+Do8umJ8v6yAFPC1aTRhdwJZYrBfyTHV9YqMNql8V4dv9Vv7cmNje0VncsKuU4tccA6nU0UR55ylx9RIXRbOOeq1INCv16itAAAsw4r7IJvuj+OzOXvDD9lBy3VVZyZUOdemIlYNqnd/3RWep26a1WMHyanhq6U9mrM5DValP3F9zhPw2e3VsjlXicO81Wt6a7myh3kN9tl9sLOFl49N2OPM/94rOaY+9r3dY503/al+8nt3f2J7g41HkrRT/RXO0uYX2qU/1XtOR4xH1/Xbwd/Y5/AQ3KF9+bGN6ULB9b6VmR7Te2XCdQUjVX/6idLRhYVzkWqnZDOmYFO9FwQCALA0K1ukl80pHPbaqKNZA4niXsJtGuht1tjwvKaG0+ocdv3I16EBn9XruPLz5BTemvYIjDmFt17Kfxfo3a3JfGeMlRxTuNjMCpLFx7dptMxdWo7ln2cF96dro3qU05jmNRS+pKGC45oV8M2XtHiTZG3uMZHW2LDHz9Ssnl6PntIrOaYeNvZo5O0b+slX38pMf6qf9H5adIVX1D/4ayuo5l3Xe71ewfS63utdmIk23v5kofxhY4/6g2N6Ly1d+P1v9CPXUcbbn6j/0W/0Xkm7tp36w+CMfjI4ZoXhtNdbop1FY6sOoz+ttGHtpJeMBKu3610ypmDEXhDITnoAgFWoSiUWzQp0BTV5x3u76EDvTzXa2+wKP83q6Q16bD1t87XpS7svb+HPFz9PPfUkdnv0DrZKBgaq1J+4Pudp0+hosKQHcqArqMnRcjXIzRpMuBbaFRxnbTgyWjK7v5Jj6sd4+xP95Rc9RVtKvyIj2KM/DH6ypG2Zl2LfLz7RH95+ZWG2dOMrdp/iRWanN/boL4O/Vn/wlaJZVmd8xeG9eqzZ3agMI6Ro1XbSC+ldw1Bo5AnhGACwKm2YnJx8KkmBwBLm7rLT6gxPa8rXUT7cAsCqYioWDCpuhjTyZITNQgAAz0SbNwDPiYxMtpwGACwBARnAOmfI8EuSqfihWA27cgAA1gsCMoB1LxS1NkGRGVck2KSmpiaxbwgAoBwCMoD1L78JCosCAQDPtrxFegAAAMA6xwwyAAAA4EJABgAAAFwIyAAAAIALARkAAABwISADAAAALgRkAAAAwIWADAAAALgQkAEAAAAXAjIAAADgQkAGAAAAXAjIAAAAgAsBGQAAAHAhIAMAAAAuBGQAAADAhYAMAAAAuBCQAQAAABcCMgAAAOBCQAYAAABcCMgAAACACwEZAAAAcCEgAwAAAC4EZAAAAMCFgAwAAAC4EJABAAAAFwIyAAAA4EJABgAAAFwIyAAAAIALARkAAABwISADAAAALgRkAAAAwIWADAAAALgQkAEAAAAXAjIAAADgQkAGAAAAXAjIAAAAgAsBGQAAAHAhIAMAAAAuBGQAAADAhYAMAAAAuBCQAQAAABcCMgAAAOBCQAYAAABcCMgAAACACwEZAAAAcCEgAwAAAC4EZAAAAMDlh40ewPNorO+qwhPzCnR16MtEhwKNHhA01ndJ4YniS9s0eieonkYMqIyl/u2slfuzHmQOn1EqVXzpZnX/bY/8jRgQAKBizCDXW3ZaQxPzkqSpiZzGsg0eT968xobT6tx6VYOrZkzr1Qof61X7twMAwPrCDHK9+To00JWzZwHb1ONr9IAc32tsOKcpNWt/o4fSAD2JvXrqfJOdVmd4WlM1O9sKH+tl/O3U9/4s0Xf/pc4z/73EcfxYo0P/vCZmu/3njqrvnP1N5pbO7ryt2YaOCABQKQJyA/Qkdi+EF2AZ+NsBAKD2CMgA6uOln2ly6GcFF039xzl1/uesAn9/WJP/0NqggQEAUOj5DsjOR89dQT1NvKCx4WkNDefyHwEHuoL6MtFWshDKWgDVrIHR3Rr0zWus788ampi3jvO1aSAR1KDP65jiAZRZNJX/SNw5xyJjL7mNeU1N5DQ0nNNYdj5/acDXpv29HRrsal64jYm0NvTlim54XkPhSxoqurQnsVejXcWDKLrv9nkGEsHKS0cqegwkZXMaHF6o2V0YW4d6fM0lN7Uy9Xms67vgroa/03rJlzm0aNf1g9rltVIuf53ixXRzmk090LWT3yiTmctf2urfLP+JbdrV3VK98fm36cj17Sp8WzCnazvP61qm3NjnlDl8RddSc/kyjlb/Zu06t0f+Z6wITEaCiiSlUPQLjfQbld8PAFjHWKQnSZrXYPiqwq5wLElTE2l1loQat5zCYaurQP64bE5D4QoXuvk6NNBljWvcFfDcpibssXZtLAhJU8N/VmffdEFgk6SpbE5DfVfVOex9e8uXU3hr0X23zxOu9P5LFT0GmkirM5wuCMfusVXrMajfY10vNf6d1ot/u3Z1S9KcMqk5z6vMpr6xAmb3qwWdJmYTV3T28O2CcCxJs5kHunb4vM4mvG+vPh4o9eJ5pVzhWLLGltp5XtcyixxqxhRPmpJMJeNxJWs8UgBY6wjIkjQxraGsFOjq0OToXj29s1eTibb8z7yDwbyGwmmNZaVAb1CTd/bq6Z3dGvDZPxsuDNY9Cet2n97Zq6ejz27t1tNlnT8fAovOPWaHP+d6C15QoKtDo6O7F853Z3d+RnJqeFpjzlW7gq7rOLORzRoYdY3V/iqcPZ7XYDht3U6Xc9+d8zRb97+v8kVhK3sMcgr3WdcPeI7NCrbVCXv1eKyX/7ezMvX5ndaL/53NkqTZPz3wWDA3p8yf5gqut6BFrd3b1H39oPr+dtT+Oqjubuunsydva7EcWjtzurbzinXu7j06UjC2Fuvnh2+xOBAAqoSAbAv07tZkokMB+2PkQFfQDirlZzAla9HUZK9ThtGswV47rGXnKwsTzqxo1qOdVzan8axcs6zu+xHUZEkZQbN6Ek4o+15TlYZD1/knC0pQmtWT+Kn1JiE7raGSsoBlWsFjkA+lXUGPse1e0u90qeryWNdLvX6n9eLMDGe+UaY40WYeWJf5t9kzzQta+/boyLnt8vvdpRQt8p9zyjDmNNuIhOwa85Fzm11lGdbYdvklZW7rWkk/ZpvRr2jIKqswolGFaj5gAFjbCMiS5OvQl72ldan5Gczs956HBXoXZiUXbqu5SjN8beopE+acGdVAV2l9dHkvyKhSDeni529Wj/2YmNlKQ+hyH4PFZtZVcLn3rHS1VO+xrpf6/U7rZbP8ZcosnPKK1nc2a+nLAlvU2sBdPxYfc4v871iBfjZTvgQkNJLWkydPlKb+GACe6flepFchw2uxl69Dk3c6qnL7Pb0dCkxMW+Gl1wneTghs1v7icG6bmkjrX4a/11SNwowTkqaGr2rDcE1Okbe8x+B7mVlJai4fUH3NCqh64bjWj3W91PN3Wi/+E9vUmrptlVn0OYvhnPKKFvnLLLibTV1R6uTcomGz3mb/ao1l9uR5JU42eDAA8BxgBnk187Vpv0+FJQbOR+FdHZ6dHcb6LqmzL7fmA1veCh6Dell3j/V6499sdXZwl1k4pQrd2zy7W2QOn9HZww9WVTgGANQfM8iLKFdaUT/WR9tDw1aJwWBvc/6jcM8Sgol0vh2YVW/rnl21OnUMVaEm1po5n7fqtj1KU6prOY+BXdqw2H10asMrLYWp02NdL/X9ndaLVXpwLWOVWezqa8mXKpQuzpOUuqKUXcPrP+csfnM47dfqMe5SrT+2FuK1njioI31VaDUHAFgUM8hlPbuetR4CvR3qkVMj6ozJqc0tlA/0vg4NlJRffC+zWmPyvVB4vhpb+mPQbC+yLO0iYpnXoH25cx9Wql6Pdb3U+3daL6192+SX083CKa9w6pML5WeN/V79jueq3yEi87eS25xNXPEM4a32okGn1GIlkpGgmpqa1BSMrbm/TwCoNwKyJGm+cPFRNrcwA+jRKaK+7CCYzWlswikt2Oi5QUQ+9BV0fZi3+jlvTZd2gijgLCyz2nktel3n/BNpuw+w+4fzmpqYVthpGVYVS38MenrtNmh2D+uFWmN7A4ysdXsDFc6S1u2xrpe6/07rxQ7DmW+USTnlFYW9jx1OCC3sfDGn2dQVnX3xSmk3jJXyt9j10A90LeG0oZtT5vB5nT1ZJgA7Y05d0dnDt4rGMqfZ1C2lnDZwXvJ9kCWZcR2KEZEBYDEbJicnn0pSIFCb7qqrWn4ntnK8d3Fzdjbz3l3OS07hrc8OF2U/3rZ3YQv4mjWVVfmd5RY9T7MCvnlNZRfZmc5ztzdLyX195mNX5Z3elvwYWAvNym/S4XX/V/L7qddjXe2xlTtG9f+dqk5bTaeuKHH4gVr9LZrNqPzuenqg1IvlQmaLWv1zmi3Z4W6xYxYUl0bMJsqEYf827fLf1rWUx056+d3/yineFdAtqUhTZGGDkNCInozQ7A0AymEG2VOzvclE+RBWV10dGvDJWgzma1tky982jY4GS/ryBrqCmhx1NjFZ7DxefX3L8HVocjSoga7iWt5me/OMKm+DvOTHYKGndenjYG3qUZ3faR0f63qp9++0XuwFebOZOcn/6iJbMm9W9/U9JT2QW7v36EjZUL0yrX171H2ipbCf8Yk9HltPu/i368j1PdrV3VJ0HWdzk3LhWJJCGiEQA8CSMYMcntaUr0OTNduhDABWg4VZZCOaph8yACyCGWQAWO/MpGJBp8QipCjhGAAWRZs3AFivzJiCwbira4WhaHqEraYB4BmYQQaA9c4wFIqOKP0kLSaPAeDZmEEGgPXK6Ff6SX+jRwEAa87zHZB9HZq809HoUQAAAGAVocQCAAAAcCEgAwAAAC4EZAAAAMCFgAwAAAC4EJABAAAAFwIyAAAA4EJABgAAAFwIyAAAAIALARkAAABwISADAAAALgRkAAAAwIWADAAAALgQkAEAAAAXAjIAAADgQkAGAAAAXAjIAAAAgAsBGQAAAHAhIAMAAAAuBGQAAADAhYAMAAAAuBCQAQAAABcCMgAAAOBCQAYAAABcCMgAAACACwEZAAAAcCEgAwAAAC4EZAAAAMCFgAwAAAC4EJABAAAAFwIyAAAA4EJABgAAAFwIyAAAAIALARkAAABwISADAAAALgRkAAAAwIWADAAAALgQkAEAAAAXAjIAAADg8sNGDwBA9Xz3P7lGD6Gsl/6urdFDABZVr/8f/heA1Y8ZZAAAAMCFgAwAAAC4EJABAAAAFwIyAAAA4EJABgAAAFwIyAAAAIALARkAAABwoQ9yPWSn1Rme1pSvQ5OjHQos8bCxvksKTxRf2qbRO0H1LOn4qwpPzCvQ1aEvE0s/L+ovGQnqwmtfaKTf8Py5mYzo0IV9So+E6jeomZs6dSqpGzMzkqQdx0d0fEf9To+1I3P4jFKp4ks3q/tve+RvxIAaYGb8hD4Yt/5X2tvf0P7jv9KO9gYPCsCKMYO8XmWnNTQxL0mamshpLNvg8axb93X34jGd/vleff1wZbdgxoKKJE0lLyZlel9DyXhSZjKiYCRZwViXYSapDz74LB+O1655jQ2n1bn1qgb5H0CdzMzc1KkPTmh8rf/7AM8xZpBXsZ7EXj11vnFmoZd6sK9DA105ewa5TT2+2oxxSb77L3We+e8ljv3HGh365yXNkK8O32gydVmPtUWdKzk8GVEwbkpGVOl0v7znjw31p0d0rymiZDKiYCytdJmZ5mq5MX5BM5LUvk/Hj4fW8EzY9xobzmlKzdrf6KGsY/5zR9V3zv4mc0tnd97WbENHVH/t+0/qj/slzdzU+KnPND4zo/Hxm9p//I1GDw3ACuQD8tSUd3wJBPhgfq3qSexeCNhYfcyYPSNsKPpFuXDsCGkkHVUwGJcZP6RYKK3aZeQZWRPH7dq/psMx0ADtb2j/8X268cEFzcw81Iwk/oWAtYcZZNTeSz/T5NDPCi6a+o9z6vzPWQX+/rAm/6G1QQNrJFOxQ3GZkkIjSwy7Rr++iF5UMG4qfiimUNkZ52rZpHZe2YHla9+kdklUWABr1w/LzRCXm1FeV5yyha6gniZe0NjwtIaGc/lSgEBXUF8m2goXty264G5eg+GrGso2a2B0twbLlDVMTaT1L33POM8KVbSwL5vT4PC0xifmF8bma9P+3g4NdjVXYXR19PCyzp/5XHcf3i9zhS1686NLenOT+7L7unvm1/r3W/f12L7k5U1v6R+Pntbr7uvdOqYPz1wuur37+vrDH+vroktfP/pXHdzucfpkXHFTkhFVdBnr7oz+LxS9GFTcjCue7Fc91+xVi/U36vyPzGus788acv7mfG0aSATL/O8UXVfW3+dAIlhYQjSR1oa+XMmxQ+FLGiq6tCexV6Nd9jcr/N9e9v1Z9HmnWYHeDn3ZW+HzQb7MoUW7rh/ULq+VcvnrFC+mm9Ns6oGunfxGmcxc/tJW/2b5T2zTru6WSkZWeG7/Nh25vl2Fb5HndG3neV3LlBv7nDKHr+haai5fxtHq36xd5/bI/4wVgclIUJGkFIqWXxALAJL0g6mpqecjDC/KevELu8KxZAXZzpIX2sqM9V1SZ1/tz7NsE2l1htMF4UOSprI5DfVNa6xhA1uBW8d0+sNji4RjL5d1/ud7dd4VjiXp8cPLOv/hyhfglZO8YC22C0WXOwtsKPSuUXAba1dO4bDVaSX/N5fNaSjstaAup/DWouvK+vsMe16/EZZzfyTv5515TQ1X4fnAv127uiVpTpnUnOdVZlPfWAGz+9WCThOziSs6e/h2QTiWpNnMA107fF5nE963Vx8PlHrxvFKucCxZY0vtPK9rmUUONWOKJ01Zi17jWuv/PQBqixILSZqY1pBktUPr7VDA5wqtE9MazLaVnQ1eluy0hrK1Pc+KFvZlp/OhPdDVoYHejvyM3FQ2p7Hh+coGVVf39XXqshVyt5/WsaNv6WVJenhZX585ZgXd7af10dG3Co/58JjuFh9jzyifv3VfX5/5nTo/+qV1+fbT+ig/K3xZ539+THc9Z6TLScrKtiHtW8EMsBF6V0bclJm8oKRCqv4k8kPVvnnFvIbCaUlSoDdoz5g6s7TzGhrOaTDRlr/uYDhtvUnrCmoy/2mLNVsbnpjXUN+0epxZ366gnt5xzpNTeGtaY1r8U5363h9b/nln4ROkqeGr6hyelyYeaUxtFS1W9b+zWUo90OyfHmi2r3SWNvOnuYXrFWhRa/er2nVis/z+loXrHz6vVEqaPXlbmb5GtG+b07WdV5SRpO49OnJus32frBnlVGpO1w7fkr9kRrqBZmaoQQbWKNq82QK9uzWZsEKrZL1oWR+9zmt8onoBsV7nWY6xYTtEdwU1mego+Lg64GvTYKJj7XSVeHhZkw8l6S0dzAddSZve0ptH37e+v/V/rDBcfMym913hWJK26PWjn1qh9+Hn+vdbVRqjaVov8sZrKwsZRkjWJLITtKtpRjfGk7ohSTveUK3bHvckdmsyX07QrMFeO0RmC2dhx7OSfB2ucGxdvyfxUw34ZLc1rPFgl2BJ98etIPBLgV7nf+17TVU6K+7MDGe+UaZ4ZjXzwLrMv82eaV7Q2rdHR85td4VjSWqR/5wTiuc0u9hMba24xrwQjhfGtssvKXNb10r6MduMfkVD1qcvRjRagzeWbm9oxw5JuqnxUzepRQbWoHxAdkotnstyC1+HvuwtrbHt6bJe3Kay36+t8yxLTmMTktSsgd62Z115XXp864oeS3p5mzscO7aoc9sWSdJ3yyrZWETmntXv2G+scJGdIaPa03czSX1wIKIDB07o1PiM2nfs08c1bk8V6N2t0eLadl9zSe3t1ITz6YZXXW6zeuzbMLON/aRjqfdn4WdW4C/0goyqzXJvlr9MmYVTXtH6zuZlzLa2qLWBu34sPuYW+d+xAv1spnwJSGgkrSdPntS8TaIk7bA3Cpm58Vn+f4u+yMDaQYnF8y47b4U1X4N7JVfLprfUuelzq3b4zGW9VFBi8bldevFPet11yHePrOD7OLVXH5abfaoi07Sm34zXVp42/K8ZkkxlTFMKVf/FfqYOHw0bPo+Fn74OTd7pKLjICb5Tw1e1YbiGA6rQUu9PPflPbFNr6nZRmYVTXtEif5kFd7OpK0qdnFs0bNbb7F+tscyePK/EyQYPZkk2qb29XXWoVwJQA/mATL9jrA9b9Gb3W/r6zGVrsV5JWYRVeoEi7SF9/MeQpBndOHVCp27c1KlTN/VHNjlY2/yb5fff1rXMN8pktttlCHapQvc2z+4W3ttGY7lunDqh8RtS+/5f6fj+N6hDBtYYZpAXUa+Sh8aUVth8zTIkTdkzyWv/bZI1cyxt0evbpbu3nLKILXp5+/s60F1aRvHSxi2S7uvl7ks69u6Wuo3UvJeRVlhkkblnbUrtN6o9e9xufTR84DpWptYAAByMSURBVDPduHFTN1T7OuRnsWZm5636fY8SJSzGKj24lrHKLHb1teRLFUoX50lKXcmHY/+5g+oumGF22q/VY9ylWn/cImlOrScO6khfFVrN1ZSz2c4b2k84BtYkFumVNa8xe9GcUyNcwClNcJka/rOGlr2w5hnnqTmn5jGnoTXVraIMewHey92f6uDRS/ro3/5qf12yFuB5dJl4edOrkqTHj76pyxANp4A4Y5b8DS2NKatKw1AFVRqLWF0bhAR8L0iq4xvJqv1vrw6tfdvkl6wyi3x5hVOfXChfUuH36nc8V/3tozN/K7nN2cQVzxDeai8adEotViIZCaqpqUlNwdgK//eWyu4E095OOAbWqB8EAgHKKzRfuMAnm7PbM0nydWigy3VVe8bVCpRO/9J5jfXZ7ZmqdZ66WVjkNDV8tbRHczanwTXUB/nxQyvkPr59WXcf3tfjpfQvdmqSbx3T6TO/092CY+7r8a3f6bzTBq7Eq3ppk3W9r0uOLSO0z1pBb97TyibjMrImkP2q+gTyatS10ersMJFWZ9+0xgqC6rymJqYVdtrAlXDeAFqt4MYWC7kV/W+vZnYYznyjTMopr3jVs4OKE0ILO1/MaTZ1RWdfvFLaDWOl/C12PfQDXUs8sEOy1Uru7MkyAdgZc+qKzh6+VTSWOc2mbinltIHzku+DLMmM61CsthEZwNpGiYUkZXMKh70a8zdrIFG8o1abBnqbNTZsN/R3LxrydWjAt0i7qWWdx+nfWiyn8NZL+e8KP3ZeyTH26vusvcHBRFqdW4uPb9Nombu02ry8fY9eTt3X44ef6/yHn3tcY4te735f//iuu9TiLR386H199+Hnenzrc52/9bnOlxz3ljo9z+iqebbP6T7Weyc9q/9xMplUPGYqtNwV9ckL1iYHTtBe99o0Otph9fSemFZ4YtrzOt6tCK1Wa0N9OSk7rXC48NiCnfQq+d9e5ZyeyJmTsnbXO+FRXiFZIfTwA2U0p2s7z+hawQ9b1Or3avH2QKkXvYLpA6VefJD/rrA0YrN2nbitzMk5zZ68orMnr7gGu027/F7t2jar+/qctQNf6rZSqdsed2Bz+daJhiG/lJ85rqTECcD69wN3e7fnutVbgWYFuoKavOO9sUCg96ca7W0u7MfaG/TYntbma9OXiQ71lLR8Wvw89dST2G33QC6s8bS28l1DfZA3/VL/uN2pI96ilzcV1xTf193UMZ0u3ip60y917KPTenP7lqIaZat2+eBHpws6XxTYflrHjr6v10vOVV7I3iHEvJhc5ke9pmLxpCRD0eXsUb3W+To0ORrUQJfX/1CHRkcX2Uo939/72fXLy/7fXivsBXmzmTnJ/+oiWzJvVvf1PSU9kFu79+hIuS2rV6i1b4+6T7QU9jM+scdj62kX/3Ydub5Hu7pbiq7TotbubdbYy54xpJG1uDc7gIbYMDk5+XSxK6zr8gtnpzlfx9p/AYQk6fHFvTqdum9t+uHsfFfw82M6nbIW8S1957taMBULBhU3JSOaXnpf1mRETZGkFBrRE48X++/+pxpbls9o/IMTGp95Q8f/+KuqLdJ76e+ezz7bWE2SijRFlJT3/111/n8k6aZOHfhMN9r36eOPQyV1yPwvAKsfbd6wjtzX5G2ra8Xr3aXhWJJe3r5ZL6dk9UNuKEP9X0R1MRiXGT+kWCitZ2ZkM6ZgpJ6zx85CozqcCqg1M6nYISscSyFFa7lZyMxDds8D1ji6WGBdups6prtFO99Zm4fYm4Vs2qPOhs0e24x+fRG1NvyIB50X7nJMxQ7FZcraDay2G4G1210sZjR+KqkbvNJjLTNjCjY1qSkYUdyUJEPR9Ejt6vdnbmr81AUrILdv4v0lsEaxSA/riHvB3GWd//Cyx2I7+3pHvWeY683oT2vkXlCRZFKRYEzpdL/HsqHCcox6lFHu2L9P7TcuaGbmgk59cMG67PiIjje6KTKwUoah0LtRRftDNVmaNzN+Qh8U7CXdrv372WgHWKsIyFhftp/WR5su6+vU55q8db+wlGLTFr2+rbiDReOFRtIaiQR1YV+5F25DoXdDuvduVCO1nTpe0B7Sxx9v0qlTSd1gq1ysZUa/0k/663rK9vY3tP/4r7SD6WNgzcov0qMGGVj7qrfIqPpYmITVrl7/P/wvAKsfNcgAAACACwEZAAAAcCEgAwAAAC4EZAAAAMCFLhbAOsLiH2Dl+P8B4GAGGQAAAHAhIAMAAAAuBGQAAADAhYAMAAAAuBCQAQAAABcCMgAAAOBCQAYAAABcCMgAAACACwEZAAAAcCEgAwAAAC4EZAAAAMCFgAwAAAC4EJABAAAAFwIyAAAA4EJABgAAAFwIyAAAAIALARkAAABwISADAAAALgRkAAAAwIWADAAAALgQkAEAAAAXAjIAAADgQkAGAAAAXAjIAAAAgAsBGQAAAHAhIAMAAAAuBGQAAADAhYAMAAAAuBCQAQAAABcCMgAAAOBCQAYAAABcCMgAAACACwEZAAAAcPlhowcAAKiu7/4n1+ghlPXS37U1eggAaqBezzv1eg5hBhkAAABwISADAAAALgRkAAAAwIWADAAAALgQkAEAAAAXAjIAAADgQkAGAAAAXAjI9ZCdVufWS9oQntbUMg4b67ukDVuLv9IaW/LxV7Vh6yV19i3vvOtJ5Y/BvAbDl7Rh61UNZqs8uDUiGQkqEjMbPYy6SEaa1NRU/BVRstEDs5nJiIKROo9m5qZOfXBCBw5EdOBARKdu1Pf0eSt8HnV7Xp8TM4fPKPFi8dcVZRo9MEha/c879TAzvvAc88EHn+nGTKNHREBev7LTGpqYlyRNTeQ09jyGu+f+MbivuxeP6fTP9+rrhyu7BTMWVCRpKnkxqecjIq9mppLxZH1D8kzSfrGq1avVvMaG0+qsxxvQ5/75AFgbZuw35eMNDsnspLeK9ST26qnzTXZancuZOfF1aKArp/DEvAJdberx1WaMq9pz/xh8o8nUZT3WFnWu5PBkRMG4KRlRpdP9Mtw/++6/1Hnmv5f49/hjjQ79s3pWMoY6C4080RPnGzOmYDC+it4YGOpPj+heU0TJZETBWFrpfuPZh1XgxvgFzUhS+z4dPx7SjvZqn+F7jQ3nNKVm7a/2TRd7jp8P/OeOqu+c/U3mls7uvK3Zho4Ibqv7eac+2vef1B/3S5q5qfFTn2l8Zkbj4ze1//gbDRtTPiBPTXm/1AUCgboNBtXVk9i9ELCfUzwGK2TG7FlKQ9EvisIxGiikkXTUegGNH1IslFbtMvKMrInjdu2vSTiuP54PgFWu/Q3tP75PNz64oJmZh5qR1KinHmaQARQxFTtkzWCERsoEsJd+psmhnxVcNPUf59T5n7MK/P1hTf5Da11G+lwy+vVF9KKCcVPxQzGFimf3q26T2tdBOAawRrRvUrukRpch/yAQCMjr67ngLProy2mhFm5hQVxnX670I+RFF4osbUHX1MQSzrNCFS3sy+Y02He1cGzhtAbtur0Vcx6zxR6X/HU8xmqPa0PRuMay3uNa+WNQ+jewIfxnDVW9VvG+7p7Zq9M//7E+dL4+3Kvzt+4v65jTHx7T3eLa4lvHFm7z58d01z726w9d57K/zt8qc6pkXHFTkhFVNFSFu1sJM6ZgU5OamoIqu04wf53iRS2mzGRMkWCwYPFLMBhRLFmlDzCdcwdjHh+JmooFFxu7qWQkaI99YWxLGZrR/4WihiQzrvhaW8kzkfb4v5zXULj0/zY8Uf5mpgr+V68qPFyD54Oi58MN4asKV/p8KFllDi+eUeLF87pWbqVc/jrFi+nmNJu6pdTO8wWL7s7uvKJrqbnKx+Y+985bHqUYc7q2c7Gxzylz+Lw99oWxZdbSikCedzwlI0E1NT0/i7Z/MDU1Vba84vkxr8HwVYWHC4Pq1ERanX25qp5prK80ENfiPMs2kVZnOK2hifnCsWVzGuqbXnLnDE++Dg10SdK8xsu8uExN2I9J18bCWlXXuAqun80pHL6qzjIvisuXU3hr6d+AyoTwlbus8z+3wvBj98UP7+vumV+XWUznfczjh5d1/sOVL8ArJ3nBeroPRVdBaYXRb4d0UxfLPIObyYvWi0Ron9x53owdUjASV9IsPM40k4pHggo29Ek+qUiTtQDSPQrTTCoSXORFOc9Q6F3rt+P8vp4nY32X1FnwvzqvseEaPB8UPR8qO6+xvj9XvqDQv127uiVpTpkyoXY29Y0VTrtfld99eeKKzh6+rUym8LjZzANdO3xeZxNVCskr8kCpF88rlZorCNazmQdK7VzkzcBqw/NOKTOmeNKUtVg4/lx02KCLhSRNTGsoKwW6OjQ5uldP7+zVZKIt/7Oqra7OTmtoorbn6UlYt/v0zl49He3Qkj4LyE7nQ3ugq0Ojowu3MTka1EBXc+Xj6rLuZz4IF5jXmB2AnetZcgrnxxXUpHO/7uzWqD2mqeHSF6vlPwbzGgzbM0q+0vtfzcU8jy9+bs3qbj+tY//2V31kfx376LTe3P6qxxH39fWHxzyOuaSD27dYPz/zu4XgvP10/jY/+rfTel2StEVvfvRX1+XW18HtXiNMyspbIe1r9OyxLWQPxPTspGEqedEsuN4Cv4xQVCPptJ48eWJ/pTViX81s2JO8qVjQnnUKjShdMDZDklU68ayXUSP0rvUGJnmhRvfjoWrSvKIruPD/eSdovyFu1oDr/875Gu3yOD7/PLrwnDDZ6zwflL6ZX8lzYv52Cp53nOfDFyq48wv872yWJM3+6YHnLG3mT3MF11vQotbubeq+flB9fztqfx1Ud7f109mTtxvUvm1O13bas93de3SkYGwt1s8Pe81IL48ZC3q0RPP4qrDTC887q8DMTEPLLAjItkDvbk0mOhSww1CgK2g/OZef9VzN51mOsWG7XKQrqMlER0EgDPjaNJjoqLwDgTMznPVor5TNaTwr10yzpeBFKtHmemFrVk9id/UeN/sNknwdmhwtvv8vVHUW9btHVhnF69ve0suuy1/e9JbePHpab24qOuDhZU0+lLTpfR076j5mi14/+ql1/Yef69/LlUssl2laL3DGawWzVg3lzNCYF0s/BjSTulimHMToH1F6pF8hw/0bNBQaGbFnfDIyG/Fq4BpzeiTk+vsyFBpZRumEEZI1iey8qammGd0YT+qGJO14QzuqffOVKnpOCPQ6z1Hfa6oKEw1mduENuztQW8+HQQ1W402zMzOc+aa0/CDzwLrMv82eaV7Q2rdHR85tl9/f4rq0Rf5ze+z/2TnNNiIhu8Z85NxmLaxCsMa2yy8pc1vXUg0Y20rwvFPI6Fc0ZB1lRKOq7fzJG9qxQ5JuavzUzYaF5HxAdkotnstyC1+HvuwtnSXNz3pmv19b51mWnMYmJKlZA71tz7pyBdrUUybQOrPKgYIXo3KzygsWn5VeOudxDxS9GNbCSxu3SJLunvEos/Dw+NYVPZb0clGgtmxR5zbr9r57uFj98jJk7lkzCH6j8eUVec5sdunHnc7HnMa7oWWM16/XGnjnFh/zQulE5pmvooaMar+LmUnqgwMRHThwQqfGZ9S+Y58+bmCbJU++joVP3vJekFHFT3oMn/U8PdbnUWZRNZvlL1Nm4ZRXtL7jDprP0qLWBr6rXXzMLfK/YwX62UxlJSBGv3tmdpGvkUojHM87xUIj1mNf6/aSkrTj+K+0o12aufFZ/jmp3n2R6WLxvMvOW4HIV/u+oD29HQpMTFuBtrfZDqNOEG7W/oJSju9lZiWpufwLn69ZAVW+wNGZLXJeFGvp5Xcv6eAjKxzfPbNXd89I2vSW3ux+X29u31JyfWfG+XFqrz6sw8yLaVpTT8Zrq2b+WJIUikZlJOPWx539Tnh3PuY09G7I+wnbTEZ0KJ6R2ZApG2+Ze9ZYzHhQTfHKbsv/mvXRaMY0pTKPQSVm7I84n7cmFoHe3RrNWuF4rO+qXX7VpoHeDg1WoeTM4T+xTa2p21aZRd92O1g65RUt8ne3eB43m7qi1Mm5isNmNc3+1RrL7MnzSpxs8GCqhOedRtqk9vZ21abOa2nyM8jPXQcL1J+vTft9KiyzcMorujqq87HlGvD60Uv66KPTenP7FmtW+OFlfX1mrz706koBi1NO4P640/nIMBT1bEWXjDQpGEmuqhepVa89pI//OKI//vGkju+Qtc30qZuNHlVD9CR266m9BiMgSdmchvquakM4Xb1d+Pyb5fersMzCKVXo3maVJRTJHD6js4cfrKpwXE/1qkGWxPNOA904dULjN2bUvv9X+eek/XV+p84M8iLqVfLQmNIKm69ZhqQpeya5tm+PmtXT1ayhYavMYrC3OV8eUVpGYX9kutgLUdb+6NPXXJVxWzPJxbNDzkx2lW16S28efUtvHrW6Ufz7mWO6+/Cyzp/5nV766Jf5cgqrJOO+Xu6+pGPvls4w14p5LyOtoiIL5yPAuGl93NlvGPmPDEsXyUhKRuS8PoZGnEUoDlOxYNBqZdcAzqyvEa18JzxnVshvVPt31W59xHngM924cVM3tArrkOvB16bBRJsG5XT0SWssm1O4b1qTS10EvSir9OBaxiqz2NXXki9VKF2cJyl1RSn7kyT/OWfxm2NO1xrYKaL1x9ZCvNYTB3Wkz3vme+3heacxnE2K3tD+/W807BMsFumV9YwaWKc0wWVqeCU9c59da1tbTu1eTkNVa5FUnrOYxgrGzn136pPdmu2FjPMaGvZqgTevQfvygK+yVeVOaUXpGxVXd4saennTWzp49H17NvmBviv4mdXZ4vGjb2o8CovhFLVmzNW1mlmS0W8tDLFWlTsfc3p323BKRaxFNMUvBhndq/bgzHslnQPM2CHPF0PnMbbehFR0Ull301BtKmLYIMQt4GvTaMIOxR7P/wucPrRN9m6Ui2vt2ya/nG4WTnmFU59cKD9r7N+mXSXlF3PV3z4687eS25xNXPEM4a32okGn1KJW6leD7JyP5x2H1Qe5XP/larI76LS3N7S86weUVUjSfL4OVZK1MUX4ar6zgbuzgjPjagVKp/7Vbij/zIC5jPPUjTWrK0lTw1dLezRncxqstA9yATsMZ3Mam3DKKzZ6dsno6bVfjOw+0QU9T/ucNyNtGvBY+Lgc+cV5E+mFTQDcv5uqua+vz+zV+YuX9fhh4eV37cV42rRZL7l/tP2frFZtt47p9JnfFZVg3NfjW7/TeacNXIlX9dIm57zFx5aRX7ld+sTbePaLknlRyaTzMec+z9XU+aBfsALdlJmMKNi0tKb4S2IYdueApOIxpx2U3Yi/3FSRM+ZkRMFIrGgsziYDxZsPeMnImkD2q+oTyHXjvEGft/qt1+LTmmWb12Cf3RM9W3j5mLMgOP86UModUEzXjGJ5dhjOfKNMyimveNWzi4wTQgs7X8xpNnVFZ1+s4mYc/ha7HvqBriWcNnT2BiAnywRgZ8ypKzp7+FbRWJzNTYo3PVkLeN6xruL0QZZkxnXoOdgshBILScrmFA57zVI2ayBR/DGaFcjGhuetnZyGXT/ydWjAZ/XorPw8OYU9d3vKKbz1Uv67QO/ufA/QlR1TuCDF2uWv+Pg2jZa5SyvR09UmTeQ0PixNLdY9w9ehL3tz6hwuN65mDYwGi8L1Ch4DX4cGuqYVnrBWrW9wHRXo3a2B7NVFd/Ralof3dffWMd31XHC3Ra93/7KoW8VbOvjR+/ruw8/1+NbnOn/rc50vOe4tdXqebIve7H5LX5+5LD38XOc/LDz29aNevZCtF4NkMql4zFRolX0UF7IGp4txyZShaLmt/kL7FFJSSZmKB5tUuCbFkGGYHq2WkoqU7IrlXN60cHTBR5QhRaOGknFTZjyioPtERlRRv1fbpJBG0lEFg3GZybgiSa8VMyHt875nrmHZ/Y/LvFivDc0a7G3TUF9Oyk4rHJ4u+GlPokwv5CVb2XOisvMam0hrbLjkQEnNC2/eq8T/zmYp9UCZk9KsWrTrhEd5hWSF0MMPlLF3s7tW8MMWtfq9Wrw9UKpkNz7n8gf57wpLIzZr14nbypyc0+zJKzp78oprsNu0y+/Vrm2zuq/P6ezO25pN3VYqddvjDmxePe0jl4HnHeVDeb4Ue9WV4VXfD9zt3Z7rVm8Fmu0m9Ls9F44Fen+q0d7mwr68vcHyNWm+Nn2Z6FBPSa3s4uepp57EbrsHcuFsbMDXpoFq9EF26+rQgM+qe35W9wynb3ThuJrtDU2q97j1JHYX/k59Vq/lyQpnpwttsXodO4vzXJe/vP19HfzokvfmHZt+aW8kUu44Z0MQD9tP69jR9/X6pqXXLy/eIL/BQlFFDVkLYIx3F2ncENJIeqSkF6kRGlE6nVa0iq/SRv8XGokahX1FoyNKpxfZidDoVzo9omiouJ2eYW8yMPKM0GsqFk9Ki71YrxX5/uu17yKzNM0aTLgW57kud553Fgvt+W3AJRmhES3pk357Qd5sZk7yv2ot3PO0Wd3X95T0QG7t3qMj1w96Lupbqda+Peo+0VLYz/jEHh25vr186zn/dh25vke7uluKruNsbrJnTQZknnckKaSRKpWtrBUbJicnny52hXVdfpGdVmd4WlP2BhHr+J4Cy7CwmGRtLOh4DiUj1ir90IhnreV3/1ONretnNP7BCY3PvKHjf/xV1RbpvfR3jVhrAaByC7PdXq8N1XnekaSbOnXgM91o36ePPw6V1CHX6zkkX2KxroMwgGUw1P9FVBeDcZnxQ4qF0p7tjNAgZsxe/FWv2WNnwUwdTgVgdTKTih1ySkFCitbyRWHmYUO3mHbQxQJAKaNfX1h7jyq+pAVjqA9TsUNxq83USK3fuLTbXSxmNH4qqRur4RULQH2ZMQWbmtQUjNiLTw1Fn1kCVoGZmxo/dcEKyO2bGtvFooHnBrCKGf1OH8+kIjVv64NnKyx9qUc54I79+6wXqJkLOvVBRAcORHTqRu3PC2CVMewa5ye1eWM+M35CBw5EdOCDz+wtpdu1f39jt7mniwWAskIjaY1EgrqwL7TO1yuvBYZC74Z0792oRupV89Ie0scfb9KpU0ndaOCWrwAaxOhX+kl/XU/Z3v6G9h//lXY0uKwrv0iPGmQAWB+qt1im+likB6xP9XreqddzCCUWAAAAgAsBGQAAAHAhIAMAAAAuBGQAAADAhS4WALDOsBAOQL2tt+cdZpABAAAAFwIyAAAA4EJABgAAAFwIyAAAAIALARkAAABwISADAAAALssOyGYsqKamJjU1NSkYjChp1mJYAAAAQGNUNINsmklFgkHFCMkAAABYJ5YdkI3+tJ48eaIn6RFFDUkyFY8nqz8yAAAAoAFWPoNshNT/RVSGJGVMMYkMAACA9aCyRXqGIX+VBgIAAACsBnSxAAAAAFwIyAAAAIBLdQKyeU+ZqtwQAAAA0FgVBuSQ9oUkKal4JMlCPQAAAKx5Fc8gh0ZGFDIkMxlRsKlJTU30RQYAAMDaVYUSC79e8xuV3wwAAACwCvyw0htIRoKKJyUjOqIv+kMiKgMAAGAtq3AG2ZSZkaSQooRjAAAArAMVBuSM7pmSjNfYMAQAAADrAn2QAQAAABcCMgAAAOBCQAYAAABcCMgAAACAS2UB2TTZYhoAAADrysoDsplU7FDc2l7ab9DiDQAAAOvCsjcKMWNBBePuvaQNRaOhKg4JAAAAaJyKSiwMI6SRdFr9TB8DAABgndgwOTn5VJICgUCjxwIAAAA0HF0sAAAAABcCMgAAAOBCQAYAAABcCMgAAACAS77N2//7v3ONHAcAAACwKvx/TmQb93eTwv8AAAAASUVORK5CYII=;sketch=1;imageBorder=default;" vertex="1" parent="1">
                    <mxGeometry x="220" y="960" width="312" height="120.51" as="geometry"/>
                </mxCell>
                <mxCell id="55" value="主要的作用是作为内部存放的对象的锁，保证创建时的线程安全" style="rounded=0;whiteSpace=wrap;html=1;fillColor=#ffe6cc;strokeColor=#d79b00;sketch=1;" vertex="1" parent="1">
                    <mxGeometry x="570" y="994.14" width="140" height="52.24" as="geometry"/>
                </mxCell>
                <mxCell id="60" style="edgeStyle=none;html=1;exitX=0.5;exitY=1;exitDx=0;exitDy=0;entryX=0.5;entryY=0;entryDx=0;entryDy=0;sketch=1;rounded=0;" edge="1" parent="1" source="57" target="59">
                    <mxGeometry relative="1" as="geometry"/>
                </mxCell>
                <mxCell id="57" value="ExtensionLoader的静态方法getExtensionLoader(Class interfaceClass)" style="rounded=0;whiteSpace=wrap;html=1;fillColor=#ffe6cc;strokeColor=#d79b00;comic=1;" vertex="1" parent="1">
                    <mxGeometry x="40" y="1120" width="240" height="45" as="geometry"/>
                </mxCell>
                <mxCell id="65" style="edgeStyle=none;html=1;exitX=0.5;exitY=1;exitDx=0;exitDy=0;entryX=0.5;entryY=0;entryDx=0;entryDy=0;sketch=1;" edge="1" parent="1" source="59" target="61">
                    <mxGeometry relative="1" as="geometry"/>
                </mxCell>
                <mxCell id="59" value="&lt;div style=&quot;text-align: left&quot;&gt;&lt;span&gt;对传入的类对象进行限制：&lt;/span&gt;&lt;/div&gt;&lt;div style=&quot;text-align: left&quot;&gt;&lt;span&gt;① 需要是接口类型的类对象&lt;/span&gt;&lt;/div&gt;&lt;div style=&quot;text-align: left&quot;&gt;&lt;span&gt;② 该接口被@SPI注解修饰&lt;/span&gt;&lt;/div&gt;" style="rounded=0;whiteSpace=wrap;html=1;comic=1;" vertex="1" parent="1">
                    <mxGeometry x="75" y="1190" width="170" height="60" as="geometry"/>
                </mxCell>
                <mxCell id="63" style="edgeStyle=orthogonalEdgeStyle;html=1;exitX=1;exitY=0.5;exitDx=0;exitDy=0;entryX=0.5;entryY=0;entryDx=0;entryDy=0;sketch=1;rounded=0;" edge="1" parent="1" source="61" target="62">
                    <mxGeometry relative="1" as="geometry"/>
                </mxCell>
                <mxCell id="64" value="存在" style="edgeLabel;html=1;align=center;verticalAlign=middle;resizable=0;points=[];" vertex="1" connectable="0" parent="63">
                    <mxGeometry x="-0.604" relative="1" as="geometry">
                        <mxPoint x="14" as="offset"/>
                    </mxGeometry>
                </mxCell>
                <mxCell id="67" style="edgeStyle=none;html=1;exitX=0.5;exitY=1;exitDx=0;exitDy=0;entryX=0.5;entryY=0;entryDx=0;entryDy=0;sketch=1;" edge="1" parent="1" source="61" target="66">
                    <mxGeometry relative="1" as="geometry"/>
                </mxCell>
                <mxCell id="68" value="不存在" style="edgeLabel;html=1;align=center;verticalAlign=middle;resizable=0;points=[];" vertex="1" connectable="0" parent="67">
                    <mxGeometry x="-0.4867" y="-1" relative="1" as="geometry">
                        <mxPoint x="1" y="8" as="offset"/>
                    </mxGeometry>
                </mxCell>
                <mxCell id="61" value="&lt;div style=&quot;text-align: left&quot;&gt;查询EXTENSION_LOADERS看这个接口对应的ExtensionLoader是否存在&lt;br&gt;&lt;/div&gt;" style="rounded=0;whiteSpace=wrap;html=1;comic=1;" vertex="1" parent="1">
                    <mxGeometry x="75" y="1270" width="170" height="60" as="geometry"/>
                </mxCell>
                <mxCell id="62" value="&lt;div style=&quot;text-align: left&quot;&gt;返回ExtensionLoader对象&lt;br&gt;&lt;/div&gt;" style="rounded=0;whiteSpace=wrap;html=1;comic=1;" vertex="1" parent="1">
                    <mxGeometry x="319" y="1382.5" width="170" height="40" as="geometry"/>
                </mxCell>
                <mxCell id="77" style="edgeStyle=orthogonalEdgeStyle;rounded=0;sketch=1;html=1;exitX=1;exitY=0.5;exitDx=0;exitDy=0;entryX=0;entryY=0.5;entryDx=0;entryDy=0;" edge="1" parent="1" source="66" target="62">
                    <mxGeometry relative="1" as="geometry"/>
                </mxCell>
                <mxCell id="66" value="&lt;div style=&quot;text-align: left&quot;&gt;创建一个ExtensionLoader，并put到EXTENSION_LOADERS集合中&lt;/div&gt;&lt;div style=&quot;text-align: left&quot;&gt;(interfaceClass-&amp;gt;extensionLoader)&lt;/div&gt;" style="rounded=0;whiteSpace=wrap;html=1;comic=1;" vertex="1" parent="1">
                    <mxGeometry x="57.5" y="1372.5" width="205" height="60" as="geometry"/>
                </mxCell>
                <mxCell id="75" value="这一步使用了ConcurrentHashMap# putIfAbsent()方法保证了创建操作的线程安全" style="rounded=0;whiteSpace=wrap;html=1;fillColor=#ffe6cc;strokeColor=#d79b00;comic=1;sketch=1;" vertex="1" parent="1">
                    <mxGeometry x="57.5" y="1450" width="250" height="45" as="geometry"/>
                </mxCell>
                <mxCell id="76" value="这里的map只有cachedClasses的实现类为HashMap，其余均为ConcurrentHashMap" style="rounded=0;whiteSpace=wrap;html=1;fillColor=#ffe6cc;strokeColor=#d79b00;comic=1;sketch=1;" vertex="1" parent="1">
                    <mxGeometry x="670" y="790" width="240" height="45" as="geometry"/>
                </mxCell>
                <mxCell id="78" value="这个静态方法基本只是创建了一个ExtensionLoader，并填充了它的type字段值，而其他的逻辑是等到该extensionLoader执行getExtension()方法时才延迟加载的（&lt;b&gt;懒加载&lt;/b&gt;）" style="rounded=0;whiteSpace=wrap;html=1;fillColor=#ffe6cc;strokeColor=#d79b00;comic=1;sketch=1;" vertex="1" parent="1">
                    <mxGeometry x="420" y="1230" width="250" height="85" as="geometry"/>
                </mxCell>
                <mxCell id="81" style="rounded=0;sketch=1;html=1;exitX=0.5;exitY=1;exitDx=0;exitDy=0;entryX=0.5;entryY=0;entryDx=0;entryDy=0;" edge="1" parent="1" source="79" target="80">
                    <mxGeometry relative="1" as="geometry"/>
                </mxCell>
                <mxCell id="79" value="ExtensionLoader的成员方法&lt;br&gt;T getExtension(String name)" style="rounded=0;whiteSpace=wrap;html=1;fillColor=#ffe6cc;strokeColor=#d79b00;comic=1;" vertex="1" parent="1">
                    <mxGeometry x="67" y="1550" width="200" height="45" as="geometry"/>
                </mxCell>
                <mxCell id="84" style="edgeStyle=none;rounded=0;sketch=1;html=1;exitX=1;exitY=0.5;exitDx=0;exitDy=0;entryX=0;entryY=0.5;entryDx=0;entryDy=0;" edge="1" parent="1" source="80" target="83">
                    <mxGeometry relative="1" as="geometry"/>
                </mxCell>
                <mxCell id="85" value="holder==null" style="edgeLabel;html=1;align=center;verticalAlign=middle;resizable=0;points=[];" vertex="1" connectable="0" parent="84">
                    <mxGeometry x="-0.5716" y="-1" relative="1" as="geometry">
                        <mxPoint x="24" y="-1" as="offset"/>
                    </mxGeometry>
                </mxCell>
                <mxCell id="86" style="edgeStyle=none;rounded=0;sketch=1;html=1;exitX=0.5;exitY=1;exitDx=0;exitDy=0;entryX=0.5;entryY=0;entryDx=0;entryDy=0;" edge="1" parent="1" source="80" target="82">
                    <mxGeometry relative="1" as="geometry"/>
                </mxCell>
                <mxCell id="80" value="查询cachedInstances看服务是否存在&lt;br&gt;holder=cachedInstances.get(name)" style="rounded=0;whiteSpace=wrap;html=1;comic=1;" vertex="1" parent="1">
                    <mxGeometry x="58" y="1620" width="218" height="50" as="geometry"/>
                </mxCell>
                <mxCell id="90" style="edgeStyle=orthogonalEdgeStyle;rounded=0;sketch=1;html=1;exitX=0.5;exitY=1;exitDx=0;exitDy=0;entryX=0.5;entryY=0;entryDx=0;entryDy=0;" edge="1" parent="1" source="82" target="89">
                    <mxGeometry relative="1" as="geometry"/>
                </mxCell>
                <mxCell id="82" value="Object serviceInstance = holder.get();" style="rounded=0;whiteSpace=wrap;html=1;comic=1;" vertex="1" parent="1">
                    <mxGeometry x="43" y="1700" width="248" height="36" as="geometry"/>
                </mxCell>
                <mxCell id="87" style="edgeStyle=orthogonalEdgeStyle;rounded=0;sketch=1;html=1;exitX=0.5;exitY=1;exitDx=0;exitDy=0;entryX=1;entryY=0.5;entryDx=0;entryDy=0;" edge="1" parent="1" source="83" target="82">
                    <mxGeometry relative="1" as="geometry"/>
                </mxCell>
                <mxCell id="83" value="创建一个空Holder对象填入" style="rounded=0;whiteSpace=wrap;html=1;comic=1;" vertex="1" parent="1">
                    <mxGeometry x="365" y="1623.75" width="190" height="40" as="geometry"/>
                </mxCell>
                <mxCell id="88" value="同理使用putIfAbsent()保证线程安全" style="rounded=0;whiteSpace=wrap;html=1;fillColor=#ffe6cc;strokeColor=#d79b00;comic=1;sketch=1;" vertex="1" parent="1">
                    <mxGeometry x="580" y="1626.25" width="210" height="37.5" as="geometry"/>
                </mxCell>
                <mxCell id="93" style="rounded=0;sketch=1;html=1;entryX=0.5;entryY=0;entryDx=0;entryDy=0;exitX=0.5;exitY=1;exitDx=0;exitDy=0;" edge="1" parent="1" source="89" target="92">
                    <mxGeometry relative="1" as="geometry">
                        <mxPoint x="167" y="1810" as="sourcePoint"/>
                    </mxGeometry>
                </mxCell>
                <mxCell id="94" value="存在" style="edgeLabel;html=1;align=center;verticalAlign=middle;resizable=0;points=[];" vertex="1" connectable="0" parent="93">
                    <mxGeometry x="-0.2924" y="1" relative="1" as="geometry">
                        <mxPoint x="-1" y="3" as="offset"/>
                    </mxGeometry>
                </mxCell>
                <mxCell id="89" value="服务是否存在？" style="rhombus;whiteSpace=wrap;html=1;comic=1;sketch=0;fillColor=#fad7ac;strokeColor=#b46504;" vertex="1" parent="1">
                    <mxGeometry x="100.5" y="1760" width="133" height="40" as="geometry"/>
                </mxCell>
                <mxCell id="92" value="返回服务对象" style="rounded=0;whiteSpace=wrap;html=1;comic=1;" vertex="1" parent="1">
                    <mxGeometry x="108.5" y="1890.7" width="117" height="36" as="geometry"/>
                </mxCell>
                <mxCell id="95" style="rounded=0;sketch=1;html=1;exitX=1;exitY=0.5;exitDx=0;exitDy=0;entryX=0;entryY=0.5;entryDx=0;entryDy=0;" edge="1" parent="1" source="89" target="97">
                    <mxGeometry relative="1" as="geometry">
                        <mxPoint x="177" y="1810" as="sourcePoint"/>
                        <mxPoint x="310" y="1780" as="targetPoint"/>
                    </mxGeometry>
                </mxCell>
                <mxCell id="96" value="不存在" style="edgeLabel;html=1;align=center;verticalAlign=middle;resizable=0;points=[];" vertex="1" connectable="0" parent="95">
                    <mxGeometry x="-0.2924" y="1" relative="1" as="geometry">
                        <mxPoint x="8" y="1" as="offset"/>
                    </mxGeometry>
                </mxCell>
                <mxCell id="99" style="edgeStyle=orthogonalEdgeStyle;rounded=0;sketch=1;html=1;exitX=0.5;exitY=1;exitDx=0;exitDy=0;entryX=0.5;entryY=0;entryDx=0;entryDy=0;" edge="1" parent="1" source="97" target="98">
                    <mxGeometry relative="1" as="geometry"/>
                </mxCell>
                <mxCell id="97" value="创建服务对象" style="rounded=0;whiteSpace=wrap;html=1;comic=1;" vertex="1" parent="1">
                    <mxGeometry x="317.5" y="1762" width="117" height="36" as="geometry"/>
                </mxCell>
                <mxCell id="101" style="rounded=0;sketch=1;html=1;exitX=0;exitY=0.5;exitDx=0;exitDy=0;" edge="1" parent="1" source="98" target="92">
                    <mxGeometry relative="1" as="geometry"/>
                </mxCell>
                <mxCell id="125" style="edgeStyle=none;rounded=0;sketch=1;html=1;exitX=1;exitY=0.5;exitDx=0;exitDy=0;entryX=0;entryY=0.5;entryDx=0;entryDy=0;dashed=1;" edge="1" parent="1" source="98" target="103">
                    <mxGeometry relative="1" as="geometry"/>
                </mxCell>
                <mxCell id="98" value="" style="shape=image;verticalLabelPosition=bottom;labelBackgroundColor=#ffffff;verticalAlign=top;aspect=fixed;imageAspect=0;image=data:image/png,iVBORw0KGgoAAAANSUhEUgAAAr4AAAFYCAYAAAC1cv93AAAgAElEQVR4nOy9f2wc15Xn+/VDMMNejP4K1oKscdZQRjRVkoAxyxEmyMsaiAVEAyuIWRoJY1ZoAwZGRp7sEN4AGVnVA0nDKq8TYJ7CWEJiAS9AwLT1RgwvlbEMK1hqsFpvxjOMawKE4hVNjgW/2CJDL/af1WCJ+aveH7equ6q6qlnVXf2D7O8HKEjsvrfuufd23z517jnnPuB5ngdCCCGEEEK2Of9HtwUghBBCCCGkE1DxJYQQQgghfQEVX0IIIYQQ0hdQ8SWEEEIIIX0BFV9CCCGEENIXUPElhBBCCCF9QecV39VpPHbyBH7/3DRkSzf6GBPnTuD3T57AY2+8V5BwpFsIU0epVIJu2i1+LgjpItKGXiqhpLf/cyzMEkql+GVCNHU3CVsvoVTSYfML2FaEqcNsMMhSmNDN5maRELI5W9fi6/4M9qr6r3T/ETPdlQbAx5h56wIeO/ltTKx2W5YthrThCPVDIMUsBH94MyAhbBM6FRVCOsQKFmbHMfncUdy819wdpK3DFBJiVqQ8GEkIR1D5JaSNFKP4rr6HiTe+rSy5/vXYuQuYcD8u5PaJ6H+G8kPqv5r+JzjWvpYy8glm3nqP1spm0MqwDE391xiB/9/uEVjtGl7NWtaKYgkzTtqPJ+kHjMoGNjb8y7XQ7a/N9udD3L52A+vNVhcmdEcCmgXXLafMl4ayW4EB3/LLp1pCCuczLd/BvYDH3qhX+OTqe5BvvAfxtb/Br7/2cMvN1PMw/urcVfxVG+5MOo9RcbHRbSEIIaQdSNu34GqwptKU3gADFdeCrjuQzhhsw0WZTzWEFEaLFt/3MOorvZr+Mn59+Sr+7fJV/Nvlv8GbulJ25VvfxqjbuqCEdAytDHejZk1zLd8abbk1C9uGssoQQkhjJOwxBxLqAT+TEquVMWVpACScMcY9EFIkLSm+M29cUL61+sv49QtfDD3FPoxjL9QsvTNvpQeySfdC1EUiwXoMvIfRUJm6q2Fw28eYSXDDmNnMDzeL+4Z7ISSHPxb4GPa5ehmLU/4lhKlHt+J15TeWp46um6m+tCpoJvAdjdXVzahPadUtoIGvabVM1D2gpeAcKWAn9MlOHYd8Y5CboI+mQM3/NmhLh243ckvIOKfCTBgnCUevH8d690AJKWyYuh4plzpmLfUHvTc/XULGxq1RUFMwZvH5EbLoQYjPZwklfQxO4wlt3xrSKvdu4MqZozjz3KMpV5JP7goWLh3FZKjc5JlxLMTLzY+H7jOOBb/uzTP17VyZT5FPOGpsNQtWjqdlrTwFpfs6cDL6Vakg4U0+Z4T0OS0ovu9hxgWAh1H+2hcTS2j6nyhlePUfExXNmTfqFV3pu04Uw3sYPfltjLofR9tYfQ+j5xoEobkX8Ni5C7AT6tlv/KyLgXQCZkkpRJFlTUoIcyzlxyS5jpQCpr5ZYJQqE6krBZxwPa3sL+YSsym/glLMqvrGsWKspMKErptwEvrkmE6C4tzKGORFwtZ1mBH/WwnppAWrNDOnTUhlj0E3nTolSo2Z3sCXMG9/0OPz0zmEWYIeGzfhpIx1aMzCBGNQnK+nP9Zx//CGynWb15BWmB/3FdaVHJVu4MpzR3FlfiXir7vuK9DNBq6lIWbUJ96wNnNxiKPBGNEi92hINUhYQjhJ3zNCCADAa5Z7V70//ovj3u+dveotphb6rffXZ497v/cXx71n3o/V868//tFVb/Geemvx/f/bf/0/eX99L4MMQfkf/UPDtn/vR/8QkvG33s9+9J/U60myh+T74x9d9X4WkmPx3j94f/2jq97PEoX5B++ZPLI3weLEsDcwMOANjM5E5F5cnPEmRke9ibrOLHoTwwMJdRa9mVH/XsMTdWMwM+rX8a/hiaBu9H6hCqn3CtcJV0nonDc8MOANDIx6jYrVyg14w6MT3kyoQTUOE7H6zY1BtMlhfxwalArJpWSrtVWdt4S+5Z/TgBlvdGDAGxgYblAm3M6oP16RVkJzHZOtyf50Y36yUJN5k6vhhzRTQ02MWzCX0fKRMdhsnjN9f0JjPVw/N6PDSe10aA1pimVv7pVB75VnB71XLr7j/S54+ZN3Iq9nquMte7+5+JR6/ZUfhF4P84735rOD3ivPPuXNfZJVxmBuN1nX0si6LkbKttAeIX1A84pvQ6Wzxs9+lK74/vHf/Ta1fNJ7uWRoqJgnKOSx9jfrVz3tV3yDH5PMvxfBQphTIQ3/aI3OLMbfTPixa6CENZQhodwmC3ZVtqyD0OQYRG+RU/Gtu1n6+OSe0wz3LOQ+Lfank/OTrZkuKL4Zxy388JNEMKbZPn8Nvj+ZHlBTPgdtX0Oa4JMfeN9/dtB75dlveb/J+l7weqJyW1OK3/ynpAabUHyzrn/pN8j1HQgeRhp+Vgjpc7qXx/eh46gkZHs49rhym5Crn7R0e+n+ox909ycJ20sP45gffHdnNZxybXP3jW4ytM/f9jITtsYTCFwMtBEjYQxq22hLKducmuWiEs8tNrQv4V4GjqW4OzSWIS8CasdPg5XRWa7VMciNZsGtxGUbwr6Uzued0+JJlw1Azv707vxo5XBgYoOrrq/NNph13CTErOqbcSy57eB1mZr7NRtSLinRcnwXO7eGdIb1+V9gHcDOLxzBzrp39+LAF/YCAD7N5TrRgKU7as6GtCb7rEEbyl7aqKjPucs0EISk0no6sx4lUGjlW9/G77+VsdLqJ7gDAA/9CY491C7Jmkcru6jc8ROgm7ry4dIMWJaFckLy26U7/qEQjo6Sk7+9IS1h8dTKcDfKdS8blgVNOOrHuRws8sGPuoaRIpLzSoklANCy5/ptdQzaTd45bQUpTIw5S5CFB0sFDWy/+Wk/S1BDoGFfmoLjK4qtzlow1onf603qdGINyc3uIziw+6Lyzb10Aw+e8pXZezdw89JF5b976E9xMFTl01Wl0K5fO4oz11oXYTOqDxupk7s56uFYqoeLric5J2Tr07zFd9cfKuVm7ZMGC/LHkGsA8DD27Wq6JRLCqLjYcCuwDF+59IOTSt2OgNcMjGgAZOjkNSkwKwEYFvNQNqATcyrMEnRTtE/p7XGkrddlvki8eFrWFmIvnnz6iPrv/HgtQ8OZcT9A7QieOXWkmwISQnqQ5i2+D/0h9gGQq/+ImdXj0JIspKv/CLEKAH+Y/H4Crbo4BOx76GHA/RhangM0qn1Slt+e1dU0A+WKgTL8SPkxE0IKmGN25ESgwFKgWW4Htr7UtqcjlbtDWdOq26RpW7j5m9AwBEDKO1hCtvnp7Bi0QMY5bQphVtObGZX41rPK2tA4lVVGtvP8tA3f/aHR+Le8XR67XaLlMLA8x6Tr6flRll5gLw4eAhbmA/eEvdh56EX8+dP17gwPPrQXwAp2Pn0d4yN7OyapvJP1G1FPM5Z6Qkg6Lfj4fhHHdAD4GPZbyenHqvl7Mx8p/DFm/Dy5ga9vs2gP/SGAvIr0H2LfQwDwHuy32njccoFomoHKlH9cqa9w1N5T22tq0e2ALGVLHbU5KyCrbg6B/28RBD6SAk7GXEidHoMiaDSnzRBst6o8ogkKT4v3r9G789NxH9/skvk+nBJOYrJWCdt/vZXtcqDmT14/1hK2npw/uzvfHwnbz02dmjIPAObfwQKAnU9fwDOnruPVn3zgX9cxfuoIdu6ur7Jz9+cBAOurH7ZH9BjB+GGpWf99CfX1beAKE0IEeaB1HnpBSBotBbdVldO6Y4vVoRGjDQPFPokGlq2+h4lz34a9CuCh4yjrrUiGmrLtXsBjb0zH8gh/DOlOY/TchVhO3lrQm3zr2/U5hlffw8Qb0yl5fAOl+WPYl+PtFYGEbeowbRFLuSkhgjy52j5E1sYgb64woZt2bNs8ONAg44ERmfCVXDkLIQI3h4Jy9wIIB9NIR1db96F3pRSwTTvan46PQR6amNMqgZKpTnZq5BJR/fENu6FAQgoTeqlIF5ntNj+dwbD8hxxhxsZM5XJW1ngDVosWV80YqbZTPRxFisYW/y7Mj7Rrh2nI0G5FnPV7Snld/9UNLNxbwXqW/LuBz+/8OCYvvR47sGIF6/Ov48qZ4KCKOJ/Hg7tVuZt1dVMIxq/pB9jAEj+ETQ2+1Ty+AKSDsa2aAJuQNtNacJv+Mn79tU/w2Fsf+yewXYgVUCe4/VWiG8R7GD2XZCl+GOWTxwvY0vsi3jz3CR47N62UXHc6sUzcEq197W/w5qp/6EVin76INxPbexh/9bUvwn7jPWB1GqPnou0de+Eq3mxVmV+SEMKESAwy0RISpIfOfBcOzMSKRkZrfDaMYwYgBGYdQDaM7hcwE09pEzBLpepf8S3WcDCYUtzqJEAl/nfeMZC2Kh8rFQ3wMVAp4tji3HNae69sGXBMAUgHph69gVHZQNV4aRyDAQHhn/LmxO6jabLx+QU56Mj8bDe0MqasWehO2phpsNz4Z62J749WhmU4MIVvGQy3YLmw7ugJSmbvzs/OQ1/FzmsrWL93EVfOXEwosRcHn34RXxkJuzwcwTOvvohPz1zE+vxFXJm/iCt19Y7gQGKLyqf45qUbgN9muO7BUx/gmUPxOsoYIITaBTHyPryIGTXHWQwIgauR/2cr7hWEbGdaTmemfe1v8OsXjuPYQ2E/2oeh6cfx5rm/qVf2HvoTVPzy0a/kw9D0l/HryymKcjM8dBy/PvcyynpSW8fx5rmXExfsYy8k9QnQHvoiyi/8Wfoir7+cWK8YNJSnQgFQodc1w0LFdZG4S6uV4bqN6hWgvIUxLFgaVBBVjuj+XE1UXLgVC0bMBKJpBqyKVd+fTo9BZpqc0wCjkjgOCQVVHyPlNGhGBa7rwmptBz1BrO0yP51DKyeNWe1zUJR7rVFxUbFC46xpar4aNdDh+ake1QtAMyrp34HdL+ErhwI/3b3YuTvus7uChWvjmLx0o67e+KuTePLQ3pgPsPINfubVyUgmiAiHJjF+6kUcrGsrnebT0QVuLlnTAxqodNxVh5CtxwOe53ndFqJp3Av4/TfeA/SX8W8v9F7eXUIIIe1hffYoJq+tALtfxPirL9UFsq3PjmPymgp+e/LV63gywee3M9QCSHMFCQpTZRkxKjl8z2s7Ab0ZkEhI9+neARYFMPO+cpUIAtkIIYT0Ayu4/SuVxeHg0/VKLwDsPPRHia93Hg1lP1hVOmPI5HorbT+wL/thMMpfO3B/ad0nnJDtypZQfOVbFzD6VizQzL1QDZ4z9Ha4FhBCCOl1Fq6NYyF20po61MI/xGL3V3Gga9ZeH62MKUulhnM2DQaUsMdUjIFRyeDmIm3opRJKuukHBSb5hBNCAraEq4N869t4LCW9WK48vVuUycnJbotASE8wPj7ebRFS4fe0OZqe0/lxnIn779bRbTeHKMHR5NCslPzcTbhFBMG4mgZjxIJVLuJ4eEK2L1tC8VXp0b4P2/24avXVHvoijK/9Gf6K1l5CCOlP7t3AzWsXcXt+RVl3A3bvxcEvxDM69AbC1DFzbCp2kEwNaZtwYKFCVwVC2sIWUXwJIYQQQghpjS3h40sIIYQQQkirUPElhBBCCCF9ARVfQgghhBDSF1DxJYQQQgghfQEVX0IIIYQQ0hdQ8SWEEEIIIX0BFV9CCCGEENIXUPElhBBCCCF9ARVfQgghhBDSF1DxJYQQQgghfQEVX0IIIYQQ0hcUqvhOn76FBx6/jgOnl7GYo97i3DJOnFB1a9ctnLtbpHQ1hKnDtGV7bt7DCFNHqVSCbtrov94T0hmmT1+PrWXX8cDjLqYLrgMAUpjQTVGk+JsjBUxdrSWlUgmdbp4QQlqhOMX37jLOz90HACzOrWE6o9K6ePkWDpxexvTd+4WJ0ghp6zCFhJgV/aX8SRuOUD2WYhairzrfLBLCNqGXdPThcxLpeSSEIzqr/Eobum5CSH4hCCFbk+IU3z2DOHt4BwBg/+FdOL4nS6U1nL+sFN79J3Xcfv8ovOr1BM5lukcOhAndkYBmwXXL0Aq+fU+jlWEZqseaMQKj252XNnTfYpR+meiuMWkJM06fPSCRljn+WmgduzqI/W2qA2gouxUY8C2/HXg6E46jvg+ahYq7gY2NDVSMtjdLCCGF8Zkib3b8tSfg5alw975aRPcM4m9P7sq42DeJtH2riAZrqs+UXh+j4mKj20IQQgrEQMW1oOsOpDMG23BRbtviJiGXgGAN7frDMyGENEF3g9vu3le+wHt2tFfphYQ9piwVRqWdPwwkM1oZ7oayGG1sbMC1fGu05VZf29hQ1ixCSAO0MqYsDYCEM9YJ//0haFxDCSFblJYV32aDMjqKcOBIAJoFK5MmJSFMPboVryvf4Dx1lC9cikhmCaWq72isrm5GfUqrbgENfE2rZaLuAaqdJl0IpICd0Cc7dRzyjUFugj6aAjX/26AtHbrdyC0h45wKM2GcJBy9fhzr3SolpLAjgT8Nx6yl/qD35qeXubuMA49fxwOn1wDcx/RlV/3tB9IeuLxWH5Ab1DmRFKx7H+dOtDcINw9aeQpK93XgMNiMEEJS6bDFdw0nwgry6TX18pxbrzwH7xWAmFG/BIaVxcVBwCwphSiiD0gJYY6lKJ7JdaQf/dzY9U6VidSVAk64nlb2FXaJ2RQtRYpZVd84VoyVVJjQdRNOQp8c00lQnFsZg7xI2LoOM+J/KyGdtCCfZua0CansMeimUxf4o8ZMb+CDmbc/6PH56WXu49yJWzgRUXTvY/GyiwMFrjmdR4Mxola3YL0jhBBST8uKb3NBGZ1EQP0OGDiWQSOUtq80GJXoVrxbgWUMJdWArZsJdVxUjM22HyUc3+KmWUFdV1luIOGETDeGL7xMzEYhIWZlpFy1XqXWhw3Xyubb7PtDSwCaUQtiqY3DvgLHoAl8C74WaitwlYCYqVP6cs2pUUlwtdBghcYguOqDeob88Qq7a7jVctJJUkjz96dX50faesLuQsIVUuabqdMSc8s4fxfYf7gWTHv75A7/vdXe2qnKiWaMqO930memEJZwp28ekAgh2xavSD78wNuvv+VBf9+7mqX8f3nfg/6Wh79cLVSMCIsT3vDAgDcwPOEtZig+MzrgDQwMeKMzRdx/0ZsYTr5f0I56bzH+pnovcs8Zb3RgwBsYGPYm4g1l7WNQbmDUa9S9qmxZB6HJMYjeYtgbGBjwhus6lyR/kmzp45N7TjPcs5D7tNifTs5PtmaGq5/phleooWbqNEV1bUpab1a94/pbHvT/6p39MKHO8Q+823U3/F/e2eMJdVLbzbgmNlvH87wi5zLp3jPBXBV/c0II6Rjb/+S2pTvKkjWkZbJ2Du3ztwvNhK3xBAIXA23ESLh/bftxKSXvpWYFVreIEAn3CizW9e4OjWXIS2Ah12Blc4hueQxyo1lw68ytQ9iX0vm8c1o86bIByNmf3p0frezWWcUTr1Bfm6nTEnsGcfu1XbEX/wBa0akTu4IGLWlTqhVC8QWmI6EZSZ9VQgjZOmx7xVeq/DvQ9mX7RdDKte3faiBQg4ChJX/vTzrJW7a601iZGEoKjw4yHsRyDRuWclWIujsEbg4aRorILyQlVMai7Ll+Wx2DdpN3TltBChO6Hh8HHYUNwTacH1IcwUNeYQ+ZMeTSHfX5I4SQLcq2V3ybwai42HArsAzfSuwHJ5W6HQGvGRhRmm9NDikwKwEYFtO0NaATcyrMkvK97dNTrbaEjy/JRzXtoO+rLgVMzgUhZAvTN4qvvJPTTqEZKFdcuH7AkDIYCpixIKDAwhLNP1t/uYVopcG2dM3dIdjGjge1Nd+EhiEAkNktO50dgxbIOKdNIcxqejOjEh+HIGCxALbz/JCWCaz7iTtJLaHBqPjBnm0LniOEkPaz7RVfLXB6W2ret1PTDFSm/IwIMYUjuH9uxbpZWcqWOqJ0VkBW3RyyZazIRuBbKuBkzHHV6TEogkZz2gyBS43KFR1XOpZwp8X71+jd+dkSPr7NEJwwGWLx8j/jfA/k741SO1kto2dXTjbxVSeEkC3Atld8q3ltMyk3Erapw7QForvVEiLIk6vtQ+Q3Jbi/MKGbdmzbPDjQIOOBEZnwlVw5CyECN4eCcvcCCAc7SUevps0KkFLANu1ofzo+BnloYk6rBD/0Kt1XI5eI6gNW2A0FUvn8lop0kdlu89PD7Nnh+9iv4Xw17+99TJ++hQOX73dTshSCdGM8WY0QQtL4TGvV13Ai8ZQ2dVBFwP6TT9RyZXYcpSgKoSxkxmbbuUsSQpgQTtKbWsIhGAYqrgVddyCFAzOxooFjzYqfdDfVIcw6gGwY3S9gJp7SJmCWStW/NMuNbHNrZReVO34GBGFCL8XrG6jE/847BtJW5WOlpKOj5NTqVIo4tjj3nNbeK1sGHFMA0oGpR29gVEK5fI1jMCAg/FPenNh9NE2isKQWnZgfAmAXzp7cgenL/gEXl0Nv7RnE2T3LOD8Xr9PMmljQOhq4IBT6IEwIIduL7W/xxWaHP4TRUJ4KBUCFXg8OJkjccdXK/sEBafUKUN7CGBYsDSqIKkd0f64mKi7cigUjZjrSNANWxarvT6fHIDNNzmmAUUkch4SCqo+Rcpo6lMJ1YRW89bx95qe32X9yGFdP7ggdzLMDx0/quN1zh/VI2I5AnjR3hBDSjzzgeZ7XbSHajzoS1pH11k1CCNnyCFNlvjAqbfSHDtbRgnZiCCGkC/SFxVdZ/fwcuM4YMsYEEUJI7+MfYd05a+9SYW47hBDSafpE8QWglTFlqVRgDgN5CCHbAgl7TPnKGxW3zbm8g5PhNg/2JISQXqVPXB1qBMfWQrPghk5Gm5yc7KpchPQK4+Pj3RaBZKILLlwJQamRIE9CCOlx+k7xBZTyO3Nsyj/GlhBCtibSNuHAQqWTcQtSwBxzIHx/Byq+hJCtRF8qvoQQQgghpP/oHx9fQgghhBDS11DxJYQQQgghfQEVX0IIIYQQ0hdQ8SWEEEIIIX3BZ7IUWltbAwDs2rWrrcIQQorlf/+P/9ZtEbYk/+7f/8dui0AIIaQN0OJLCCGEEEL6Aiq+hBBCCCGkL6DiSwghhBBC+gIqvoQQQgghpC+g4ksIIYQQQvoCKr6EEEIIIaQvoOJLCCGEEEL6Aiq+25m7yzjw+HU8cGIZi92WpQ1Mn76FBx6/jgOne71/93HuxHU88PgtnLvbvlaEqcO0Zf0by1P40ue+is8ensJS+5oHAPz8m1/FZz8Xv2z8vKm7fYTvHv4qPvu5F/Dd5YIFzYEUJnRTdLpRmLqOUqmEUqmETjdPCCHbFSq+ZGtydxnn5+4DABbn1jDdRoVyKyBtHaaQELMCCaovaRoJ4YjOKr/Shq6bEJIzSQghRUPFl2xN9gzi7OEdAID9h3fh+J4uy9NNhAndkYBmwXXL0Looytd/+Av8z9/619w3MNRFWYpBQ9mtwIBv+U2yqBeMcBz18KJZqLgb2NjYQMVoe7OEENIXUPElW5bjrz0B7/2juP3aIPZ3W5huIW3fEqnBmuqu0rt9MVBxLWgApDOG9uq+EnIJCObT4IQSQkihUPElZMsiYY8p66BRcVGmktQ+tDKmLA2AhDNmd8CdZAga55MQQgqHim8i9zF9+pYKDAuuE7dwwvcprRIEjzUKWqqWcTEdf+30mmrrshtq6xYOXF5rHKx1dw3nYvIdOOHiXFy+GIuxdk5cTi4/fTrcp9hYnHAb9FXJ9UBMrum7Ce00OQZKtvgVGts6gsCyRlda/frPgepPamMJfbmOB078M863wwdZOHAkAM2ClWMrfOmCrYLdPqcCx56/8FF64eV38d1vvhAJVvvSYRs/X25Qpyk+ws8jcn0Vnz38n/G9hkFtH+Hn33whUkfJllxaBd4FgXKxuoftTQPotPIUlO7rwGGwGSGEbEmo+NaxhhOPKyU3onjdvY/p0/8cVfr2DOLsYQC4j5+lKJ2Lc74Cd/ghHK979z7OnbiFExEl775SUE+vJYs35+LACRfnY/It3l3D+dPLqQrg9OnrMWXyPqYv38KBFOVXsYYTJ2JjcXcN508kKPohucIs3lX3SG+niTHoCMmfg6A/ycq/XyeutCcp/gUgZpT2ZVjZXRx+/s2v4ksX3g1ld/gIP7/wAr6UpPy+beNLh2187+3oe0vL7+L5wyl1muJdPP+5F/B8RC4ADZVrv87bH0XqBLI1VmJVmUjd5XfxvU3raTBG1EgHY08IIWRrQcU3xuJlX3k8rOP2+0fh+dftqzrOHv6DuvLHD+9S9eaSLJT3MT13H8AOnD25q76xuWWcvwvsD7V1++QO/73VeiX27jIOnFbt7D88iKtX4/LtSO7U3WWcn0tup9rfBNnP+9bN/SeDek/g7B7/vcthpXQNJ6pyhcftCVw9HLTzz8nKYs4xOP5arc/e1Sy+vTtwLjROXkg21ZcdOHtVjz2U3Me5E27C5yDoz32cr0uhFqqzp35uig++E1C6l4FjWa29yz/F994Ghp4q45d+ANovX34EALB04aexlGPv4vlvKkU0XP5//vYN/PipoM5/LiDN2Ef47mE/3dngN/DjuVpw3C/nyvj64CZ1EmX7CN/7v9JSt32E7/lW4aGXg7pv4DuD/nsX3m0orWaMqIcMMYP2qL5LuMNkDoQQ0jao+MaQvnXu+OFdEaVq/55dOPeajnNxBSaw5N5NSKl1dw0/uwtgT4OsA4d13H6t1tb+k4O+EvavWIzdb/qyr2wd1nH7tcHIPZV8gwlW5fzthDn+2hO4fTKotwPnAgX+bs0SGnlYeC08bjtw/LUncHUTq3izsrXC4mXlfrD/5HD9nFbnbTChP8NKYfYfJqr4Cjz2DOL21fjc/EHxQWdSKsVO25cvc8JTZfzyh1+u1hl6+Rv4OgDgYyyFlNiqIhwrDzyCr//wDfz4KQD4CH/3dotW37d/qtwZBr+BX86NRRTdocGH8WhSneV38XdBnTrZXlFKrK/kp/H1H76BX74c1H0Ef/nyl9UbKx81znWsGVBG3+DBo0gkhEsdlswAACAASURBVO0ohdo4BiZyIISQ4qHiG0Pbo6yN06cT3B0S2YWzJ30r4OXo1nxgBd4fU6Kr+IpVlD+Alqgkr2F6Dki1HjciVzs19p+sWWxr99oR60tg1a5Zv+M0tIo3KVtLzLnK9eKwXrMuh2g8bztw3B8TGXJhWLz7r0BqnTawdEcFWA1p2ZVqX1GM8jAerbOqfoSf+wrt14/GyyPy+tLb77Z0KMbS8scAgKGnvpxZgV96+7/7luikOo/g675F+oMUV4mhl2tW6yp7/0PG9jVoRedokzb0Ugmlkg7TkdAMCy7zlxFCSFv4TLcF6DX2n3wCV+8qpXf69C1/63oXzp4cxLkUV4L9h3dh/+X7WJxbxTR2+dbKQCEMFOMWuXtfKTqNrMcFEzwERNgziNvvhzWlf4W8CwA70pXVPTuwH5sE7HUM5ZYB7MLVOoVbESi0i5dv4YHL2e4a1EkcszYgVc4raPvakSn3Y3ywDACP4NG9KUX2/gcMoTWlF6gpp48OPrJJyfo6SxdewGcv5G8zsa3BMfzyt2OZ6g/tU9kdlqREO/KNyaU7WAKYmo4QQtoALb4JHH/tCXi+z+x+QAV0nb6FB9Ii+vfswp/tAWpWWdS2vhOD2kh3CPxwk/x6CekSWhnuxgY2Nlx1UIUUMHlGMSGEtAVafNPYswvnXtuFcwgyJriYvruGE6eXcbsuqEr5vp4/vYbpuTXg8C71bzNuCany7IAGYNG3/PbOgQ2+W0IjX9zAH7jOTaKzTJ++hfN31YNNnV9vCGW1vY/9J59IdIVohLL8xusEVvHikXfaYRv03R8aBa6t/H/K2rv3kUJOZ/tg+SMg7n5QtTxHeXTwEeDtjzD08hvV4LxOsuRHnw0VnmhXg1GpwCiZEGIGAgb9fAkhpGBo8c3A/j27cDU4HSxwOYgTWHbnVjEdWH4LdUsI/F7XcL5hCrJOswP7EzM9BNzHOf/1/Xvqs2J0jDkXJ+YAHNb9YLt0AjkDv90sBC4O9XVC2R4KRAscTZdkGw5TeARDe4H0LAcf4bv+60ODD7fUUuB2EPj6RtoIMjfECNqsr9MJaiertcXLBEPYRx8HQghpG1R8I9zHudN+Hta70deng8As3/Jazy4cPwwAazh/QmU5KDbQqRZUtXj5VjWtWcDi3TWca5DHt50cP+k/FMy5MblU7mN1eENBvs7N4KeBSw6kS6D6EOPiwOnlmHvLfSzOLeNETJmtzvWcWzvo5O4azp241Z7DK4Kof3mnZT/bJL7+8jeUJfdtG1/6Zizv7zeDgyW+jO+0aHEdeur/rLbzfJAhYvldfPfwC+mHVzz1hMpE8baNL31zKnZgxUdYensKz6coza0TpBvjyWqEELIVoatDnLv3MT3nYjoxqGlHTclL4PjJQeyfW8bi3QKD2kKEA+8W51wceDxeYheuFtpiRvYM4m9PruHA5TS5ivKpXcOJxFPW1nDi8evVv6IuCvdxLsi5e3cZBx5P1qaidXbh6tVBHDixrJTcuaQ6u6L92TOIs4eXcWJOuVQ8ELv32bu3lMW5MFT+XiEEHFvCKPq84sEx/D8v/3d86cJHWHrbxpc+Fy/wCL4zV/ZToQW8i+c/l6RwvovnP/fV6l8RF4XBMXznqZ/i+beBn3/zBXw2VGvo5TfwneUX8HxdWrIv48dz38CXDv8US2//FM+//dOEDnw5JltBBPl7mW6MEEK2JLT4RtiBc6+FgtpCr6sDI55ovE1eDXJD24Lajr/2hJ/DN6pU79+zC2cb5fFtM/tPJslVG7dGPrXtpUn/2j2D1UNBkj8L9Yr88deewNWTofJ7dvh5kNtj6Tb8kyvkrGiDu4OvoP7wG/h6JAvCIxh66hv48dwb+MvEwyXy8/UfvoEfvxzyFR58xM+z28CaPDiGX86V8Z2n4j7GgXxxpbwIJGxHANBg5TkjmhBCSM/wgOd53maF1taUj+auXQUFam1b7le3to+/dnRTX1JCWkPC1nU4EtAsF26C1fd//4//1gW5tj7/7t//x/oXhYmSKQCjgo225dkN5tRAZaNCqzIhhBQMLb4FEpwGpra9uy0N2f5oKE9Z0ABIZww2j7ptH9KGbnbS2rsEyfkkhJDCoeJbCPcxffmWOg0MO3D2tXQ/YEIKRStjylIHKji6CWZ/bQcS9pgDCcCouCjanTpKcDKchDNmQ1D5JYSQQqGrQwssVpXdGsdfSzjml5A2I0wdppCAZsF1y9XMI5OTk12Va6syPj7u/29zd5LCkTZ03Yn4bRuVDfAUY0IIaR1mdSgIFVymd+w4YULCGBUXFVPHzDEjkm7vL0Yf65pM2wMNxoiBOyMWKp1QegF1kpurwRxzIOjvQAghhUKLLyHbGAa3NUdicBshhJAtD318CSGEEEJIX0DFlxBCCCGE9AVUfAkhhBBCSF9AxZcQQgghhPQFfZfVgYF6pJ9gkBYhhBBSgxZfQgghhBDSF1DxJYQQQgghfQEVX0IIIYQQ0hdQ8SWEEEIIIX0BFV9CCCGEENIXUPElhBBCCCF9ARVfsmURpo5SqQTdtCG7LQwhzSJt6KUSSnr7P8fCLKFUil8mRFN3k7D1EkolHTa/gG1FmDrMBoMshQndbG4WCek3qPiSrYm04Qj1QyDFLAR/eDMgIWwTOhUVQjrEChZmxzH53FHcvNfcHaStwxQSYlakPBhJCEdQ+SUkI1R8ydZEK8MyNPVfYwT+f7tHYLVreDVrWSuKJcw4aT+epB8wKhvY2PAv10K3vzbbnw9x+9oNrDdbXZjQHQloFly3nDJfGspuBQZ8yy+faglpCBVfsmUxKi42NjbgVtJ+EAghZIsibd+Cq8Ga2myNM1DxH2SkM8YdHUIaQMWXkCLQynA3atY01/Kt0ZZbs7BtKKsMIYQ0RsIecyChHvDLWZ7stTKmLA2AhDPGuAdC0qDi2xdICFOPbsXrym8sTx1dN1N9aVXQTOA7Gqurm1ELRNUtoIGvabVM1D2gpeAcKWAn9MlOHYd8Y5CboI+mQM3/NmhLh243ckvIOKfCTBgnCUevH8d690AJKWyYuh4plzpmLfUHvTc/XULGxq1RUFMwZvH5EbLoQYjPZwklfQxO4wlt3xrSKvdu4MqZozjz3KMpV5JP7goWLh3FZKjc5JlxLMTLzY+H7jOOBb/uzTP17VyZT5FPOGpsNQtWjqdlrTwFpfs6cDL6Vakg4U0+Z4RsI6j4bnsEzJJSiCLLmpQQZtqWWHIdKQVMfbPAKFUmUlcKOOF6WtlfzCVmU34FpZhV9Y1jxVhJhQldN+Ek9MkxnQTFuZUxyIuEreswI/63EtJJC1ZpZk6bkMoeg246dUqUGjO9gS9h3v6gx+encwizBD02bsJJGevQmIUJxqA4X09/rOP+4Q2V6zavIa0wP+4rrCs5Kt3AleeO4sr8SsRfd91XoJsNXEtDzKhPvGHldePSYIxokXs0pBokLCGcpO8ZIdsQLwOrq6ve6upqlqI9z3bqSxYWJ4a9gYEBb2B0xlsMv744402MjnoTi3U1vInhgYQ6i97MqH+v4QkvXm1m1K/jX8MTQd3o/UIVUu8VrhOuktA5b3hgwBsYGPUaFauVG/CGRye8mVCDahwmYvWbG4Nok8P+ODQoFZJLyVZrqzpvCX3LP6cBM97owIA3MDDcoEy4nVF/vCKthOY6JluT/enG/GShJvMmV8MPaaaGmhi3YC6j5SNjsNk8Z/r+hMZ6uH5uRoeT2unQGtIUy97cK4PeK88Oeq9cfMf7XfDyJ+9EXs9Ux1v2fnPxKfX6Kz8IvR7mHe/NZwe9V559ypv7JKuMwdxusq6lkXVdjJRtoT1CthhUfLc5wY9J5t+LYCHMqZCGf7RGZxbjbyb82DVQwhrKkFBukwW7KlvWQWhyDKK3yKn41t0sfXxyz2mGexZynxb708n5ydZMFxTfjOMWfvhJIhjTbJ+/Bt+fTA+oKZ+Dtq8hTfDJD7zvPzvovfLst7zfZH0veD1Rua0pxW/+U1KDTSi+Wde/9Bvk+g4EDyMNPyuEbCPo6rDNGdrnb3uZCVvjCQQuBtqIkbDFVttGW0rZ5tQsF5V4brGhfQn3MnAsxd2hsQx5EVA7fhqsjM5yrY5BbjQLbiUu2xD2pXQ+75wWT7psAHL2p3fnRyuHAxMbXHV9bbbBrOMmIWZV34xjyW0Hr8vU3K/ZkHJJiZbju9i5NaQzrM//AusAdn7hCHbWvbsXB76wFwDwaS7XiQYs3VFzNqQ12WcN2lD20tXsOJki6AjZ+nym2wKQ9qKVXVTu+AnQTV35cGkGLMtCOSH57dId/1AIR0fJyd/ekJaweGpluBvlupcNy4ImHPXjXA4W+eBHXcNIEcl5pcQSAGjZc/22OgbtJu+ctoIUJsacJcjCg6WCBrbf/LSfJagh0LAvTcHxFcVWZy0Y68Tv9SZ1OrGG5Gb3ERzYfVH55l66gQdP+crsvRu4eemi8t899Kc4GKry6apSaNevHcWZa62LsBnVh43Uyd0c9XAs1cNF15OcE9Jb0OLbBxgVFxtuBZbhK5d+cFKp2xHwmoERDYAMnbwmBWYlAMPKlsKnT+nEnAqzBN0U7VN6exxp63WZLxIvnpa1hdiLJ58+ov47P17L0HBm3A9QO4JnTh3ppoCEkDZDi2+/oBkoVwyU4UfKj5kQUsAcsyMnAgWWAs1yO7D1pbY9HancHcqaVt0mTdvCzd+EhiEAUt7BEpBp67CzY9ACGee0KYRZTW9mVOJbzyprQ+NUVhnZzvPTNnz3h0bj3/J2eex2iZbDwPIck66n50dZeoG9OHgIWJgP3BP2YuehF/HnT9e7Mzz40F4AK9j59HWMj+ztmKTyTtZvRD3NWOoJ6Rdo8e1DNM1AZco/rtRXOGrvqe01teh2QJaypY7anBWQVTeHwP+3CAIfSQEnYy6kTo9BETSa02YItltVHtEEhafF+9fo3fnpuI9vdsl8H04JJzFZq4Ttv97KdjlQ8yevH2sJW0/On92d74+E7eemTk2ZBwDz72ABwM6nL+CZU9fx6k8+8K/rGD91BDt311fZufvzAID11Q/bI3qMYPyw1Kz/voT6+jZwhQkhgjzQOg+9IP0BFd9tjYRt6jBtEUu5KSGCPLnaPkTWxiBvrjChm3Zs2zw40CDjgRGZ8JVcOQshAjeHgnL3AggH00hHV1v3oXelFLBNO9qfjo9BHpqY0yqBkqlOdmrkElH98Q27oUBCChN6qUgXme02P53BsPyHHGHGxkzlclbWeANWixZXzRiptlM9HEWKxhb/LsyPtGuHacjQbkWc9XtKeV3/1Q0s3FvBepb8u4HP7/w4Ji+9HjuwYgXr86/jypngoIo4n8eDu1W5m3V1UwjGr+kH2MASP4RNDb7VPL4ApIOxrZoAm5A8ZEn9sJ1SgG2nvmxOKP9l4jWcnO4mlle0/qpPf9R8ii2vmqpoeHh4k1Rbtdylja6ktDy13KbZ+pN7DDYt36BOnlRRzc5pbKyTrmi9RmM97A03ncYqeX7bPj+9TJPj1jjdWtI4N/f9iefXDZdT7zVISdihNSQ+Fqn3qKYsS7ue8t4U79SnLdu0XkJ6tIB/+lZqveQUaBnT0aURfMczDWTsM9FynmRCeh9afLc1GspToQCo0OuaYaHiukjcpdXKcN1G9SoFWmQBGBYsDSqIKkd0f64mKi7cigUjZgLRNANWxarvT6fHIDNNzmmAUUkch4SCqo+Rcho0owLXdWG1toOeINZ2mZ/OoZWTxqz2OSjKvdaouKhYoXHWNDVfjRro8PxUj+oFoBmV9O/A7pfwlUOBn+5e7Nwd99ldwcK1cUxeulFXb/zVSTx5aG/MB1j5Bj/z6mQkE0SEQ5MYP/UiDta1lU7z6egCN5es6QENVDruqkNId3nA8zxvs0Jra2sAgF27drVdoHaznfpCCCEkO+uzRzF5bQXY/SLGX32pLpBtfXYck9dU8NuTr17Hkwk+v52hFkCaK0hQmCrLiFHJ4XsuYJaU60lvBiQSUiy0+BJCCOkDVnD7VyqLw8Gn65VeANh56I8SX+88Gsp+sKp0xpDJ9VbafmBf9sNglL924G/duk84IVsBKr6EEEL6ioVr41iInbSmDrXwD7HY/VUc6Jq110crY8pSqeGcTYMBJewxR6WCrGRwc5E29FIJJd30gwI1WH3gHkQIwDy+25LJyclui0BITzA+Pt5tEVLh97Q5mp9TdXjFzUs3gHs3cOXMDVxJK3cq2SLcaWqnNAqYelp+7qhbRC6XXU2DMWLBKhdxPDwhWwP6+BJCCOkf7t3AzWsXcXt+RVl3A3bvxcEvvIivjNQfYtFthKlj5thU7CCZGtI24cBCha4KhGwKFV9CCCGEENIX0MeXEEIIIYT0BVR8CSGEEEJIX0DFlxBCCCGE9AVUfAkhhBBCSF9AxZcQQgghhPQFVHwJIYQQQkhfQMWXEEIIIYT0BVR8CSGEEEJIX0DFlxBCCCGE9AVUfAkhhBBCSF9AxZcQQgghhPQFVHwJIYQQQkhfQMW3j5g+fQsPPH4dB04vYzFHvcW5ZZw4oerWrls4d7c9cgpTh2nL9ty8hxGmjlKpBN200X+9J6QzTJ++HlvLruOBx11MF1wHAKQwoZuiSPE3RwqYulpLSqUSOt08Ib0OFd9+4e4yzs/dBwAszq1hOqPSunj5Fg6cXsb03fttFK6GtHWYQkLMiv5S/qQNR6geSzEL0VedbxYJYZvQSzr68DmJ9DwSwhGdVX6lDV03ISS/EISkQcW3X9gziLOHdwAA9h/eheN7slRaw/nLSuHdf1LH7fePwqteT+BcpnvkQJjQHQloFly3DK3g2/c0WhmWoXqsGSMwut15aUP3LUbpl4nuGpOWMOP02QMSaZnjr4XWsauD2N+mOoCGsluBAd/y24GnM+E46vugWai4G9jY2EDFaHuzhGwpPtNtAUjnOP7aE/DyVLh7Xy2iewbxtyd3ZVzsm0TavlVEgzXVZ0qvj1FxsdFtIQghBWKg4lrQdQfSGYNtuCi3bXGTkEtAsIZ2/eGZkB6FFl+Szt37yhd4z472Kr2QsMeUpcKotPOHgWRGK8PdUBajjY0NuJZvjbbc6msbG8qaRQhpgFbGlKUBkHDGOuG/PwSNayghqVDx3eY0G5TRUYQDRwLQLFiZNCkJYerRrXhd+QbnqaN84VJEMksoVX1HY3V1M+pTWnULaOBrWi0TdQ9Q7TTpQiAF7IQ+2anjkG8MchP00RSo+d8GbenQ7UZuCRnnVJgJ4yTh6PXjWO9WKSGFHQn8aThmLfUHvTc/vczdZRx4/DoeOL0G4D6mL7vqbz+Q9sDltfqA3KDOiaRg3fs4d6K9Qbh50MpTULqvA4fBZoR0FSq+JMQaToQV5NNr6uU5t155Dt4rADGjfgkMK4uLg4BZUgpRRB+QEsIcS1E8k+tIP/q5seudKhOpKwWccD2t7CvsErMpWooUs6q+cawYK6kwoesmnIQ+OaaToDi3MgZ5kbB1HWbE/1ZCOmlBPs3MaRNS2WPQTacu8EeNmd7ABzNvf9Dj89PL3Me5E7dwIqLo3sfiZRcHClxzOo8GY0StbsF6RwjpDlR8tznNBWV0EgH1O2DgWAaNUNq+0mBUolvxbgWWMZRUA7ZuJtRxUTE2236UcHyLm2YFdV1luYGEEzLdGL7wMjEbhYSYlZFy1XqVWh82XCubb7PvDy0BaEYtiKU2DvsKHIMm8C34WqitwFUCYqZO6cs1p0YlwdVCgxUag+CqD+oZ8scr7K7hVstJJ0khzd+fXp0faesJuwsJV0iZb6ZOS8wt4/xdYP/hWjDt7ZM7/PdWe2unKieaMaK+30mfmUJYwp2+eUAipAW8DKyurnqrq6tZivY826kvufnwA2+//pYH/X3vapby/+V9D/pbHv6yjeO1OOENDwx4A8MT3mKG4jOjA97AwIA3OlPE/Re9ieHk+wXtqPcW42+q9yL3nPFGBwa8gYFhbyLeUNY+BuUGRr1G3avKlnUQmhyD6C2GvYGBAW+4rnNJ8ifJlj4+uec0wz0LuU+L/enk/GRrZrj6mW54hRpqpk5TVNempPVm1Tuuv+VB/6/e2Q8T6hz/wLtdd8P/5Z09nlAntd2Ma2KzdTzPK3Iuk+49E8xV8TcnZFtBiy/pLkt3lCVrSMtk7Rza528Xmglb4wkELgbaiJFw/9r241JK3kvNCqxuESES7hVYrOvdHRrLkJfAQq7ByuYQ3fIY5Eaz4NaZW4ewL6Xzeee0eNJlA5CzP707P1rZrbOKJ16hvjZTpyX2DOL2a7tiL/4BtKJTJ3YFDVrSplQrhOILTEdCM5I+q4SQMFR8SVeRKv8OtH3ZfhG0cm37txoI1CBgaMnf+5NO8pat7jRWJoaSwqODjAexXMOGpVwVou4OgZuDhpEi8gtJCZWxKHuu31bHoN3kndNWkMKErsfHQUdhQ7AN54cUR/CQV9hDZgy5dEd9/gghqVDxJVsOo+Jiw63AMnwrsR+cVOp2BLxmYERpvjU5pMCsBGBYTNPWgE7MqTBLyve2T0+12hI+viQf1bSDvq+6FDA5F4Q0hIov6QnknZx2Cs1AueLC9QOGlMFQwIwFAQUWlmj+2frLLUQrDbala+4OwTZ2PKit+SY0DAGAzG7Z6ewYtEDGOW0KYVbTmxmV+DgEAYsFsJ3nh7RMYN1P3ElqCQ1GxQ/2bFvwHCHbAyq+pKtogdPbUvO+nZpmoDLlZ0SIKRzB/XMr1s3KUrbUEaWzArLq5pAtY0U2At9SASdjjqtOj0ERNJrTZghcalSu6LjSsYQ7Ld6/Ru/Oz5bw8W2G4ITJEIuX/xnneyB/b5TayWoZPbtysomvOiEEABVf0m2CvLaZlBsJ29Rh2gLR3WoJEeTJ1fYh8psS3F+Y0E07tm0eHGiQ8cCITPhKrpyFEIGbQ0G5ewGEg52ko1fTZgVIKWCbdrQ/HR+DPDQxp1WCH3qV7quRS0T1ASvshgKpfH5LRbrIbLf56WH27PB97Ndwvpr39z6mT9/Cgcv3uylZCkG6MZ6sRkg3+Uy3BSDtZA0nEk9pUwdVBOw/+UQtV2bHUYqiEMpCZmy2nbskIYQJ4SS9qSUcgmGg4lrQdQdSODATKxo41qz4SXdTHcKsA8iG0f0CZuIpbQJmqVT9S7PcyDa3VnZRueNnQBAm9FK8voFK/O+8YyBtVT5WSjo6Sk6tTqWIY4tzz2ntvbJlwDEFIB2YevQGRiWUy9c4BgMCwj/lzYndR9MkCktq0Yn5IQB24ezJHZi+7B9wcTn01p5BnN2zjPNz8TrNrIkFraOBC0KhD8KEkLzQ4ku6TuPDH8JoKE+FAqBCrwcHEyTuuGpl/+CAtHoFKG9hDAuWBhVElSO6P1cTFRduxYIRMx1pmgGrYtX3p9NjkJkm5zTAqCSOQ0JB1cdIOU0dSuG6sAreet4+89Pb7D85jKsnd4QO5tmB4yd13O65w3okbEcgT5o7Qkh7eMDzPG+zQmtr6qjIXbvi+RW3HtupL9sHdSSsI+utm4QQsuURpsp8YVTa6A8drKMF7cQQsk2hxZf0ABrKfiCTdMaQMSaIEEJ6H/8I685Ze5cKc9shZDtCxZf0BloZU5ZKBeYwkIcQsi2QsMeUr7xRcducyzs4GW7zYE9C+hm6OpCeIji2FpoFN3Qy2uTkZFflIqRXGB8f77YIJBNdcOFKCEqNBHkSQpjVgfQWRsVFxdQxc8yIBPnwx54QsrXQYIwYuDNiodKpuAWtDNfVYI45EPR3ICQRWnwJIYQQQkhfQB9fQgghhBDSF1DxJYQQQgghfQEVX0IIIYQQ0hdQ8SWEEEIIIX0BFd9twNraWjVojxBCCCGEJEPFlxBCCCGE9AVUfAkhhBBCSF9AxZcQQgghhPQFVHwJIYQQQkhfQMWXEEIIIYT0BVR8CSGEEEJIX0DFl5AeQZg6SqUSdNOG7LYwhBCyBVm4dBRnnnsUk5dex3q3hWmAMHWYdv+s9FKY0E3RbTEAUPElpDeQNhyhFkEpZiH6Zz1sAQlhm9BLOvro94N0jRUszI5j8rmjuHmv27IUwXbrD4B7r+Pv51cAAOvzv8DtHu2XtHWYQkLMij4xckgIR/SM8vuZbgtACAGglWEZszCFhGaMwNC6LI+0oevOJouygcpGBUaHRKpnCTOOgISGka7JQPqHD3H72g2sYy8OtKmFhUuP4sp8oxJH8MxPJnGwkNba35+Os/slfOXQL3BlfgU7D30VB3Z3W6AEhAndkYBmwXXL6PZS3xk0lN0K7pRMCGFCt1245e71nIovIT2CUXGx0W0hCCFkC3Pw1HUcPNVtKVKQtm/x1GBN9YvSG2Cg4lrKoOKMwTZcdEv3peJLCKlHK8PdKFf/lLYO3ZHQrO4+qRPSDxw89QGeOdRtKUixSNhjahfNqHRP6esqWhlT1ix0R8IZs2F0yeJNH1+yBZEQpg69VEIpuHTlM5Wnjq6bqb60wiyhVPUdjdXVzahPqbT99xr4mlbLmAh7OKl24le0THqXBOyEPtmp45BvDHIT9NEUqPnfBm3p0O1G/mwZ51SYCeMk4ej141jvSiYhhQ1T1yPlUsespf6g9+anG9y7gZuXjmLyuUdxxr8mz4zjpu+HGWbh0qM4U/U3XcFCuN6Z8QZ+qLGyfhsLDcqvz7+OK2eOVsunyjU/HiozjgW//s0zj0bqnnkuzUUhr2z5UGMWli3K+uzR6Pud7M+911W5SzdQ8ycO6h3F5OyNBsFn9e2cOXMUVxI+N9FxeDShfw3wP5/xz8HCvYR2WuoPAOHAkQA0C1Yj/7Cm150865uAWW1DwPTXzyCwWgqz+puW7JLb/FqlladgaQCkAyeju68K/C4uGJCKL9liCJglpRBFvgJSQphjKYpnch0pBUx9s8AoVSZSVwo44Xpa2V/IJGZTvvlSzKr6xrFifGKFCV034ST0yTGdBMW5lTHIi4St6zCd8AItIZ20wIZmvhz/iQAAHJpJREFU5rQJqewx6KYDIaM3VGOmQ09/asnZH/T4/HSI+fGqMhlWCNbv3cDNSxcbKCU3cMVXcqr17t3AzTNJQVg3cOW5WFm/jSuJ5YH12ZcxeelinXKzHijps8nKVX7yy5aXg6eu48ndfluXbkTfnB/H5LUVAHvx5KtF+AU3258V3DxzFFeuhRXDFaxfG8dkXOYG7eDeChYuvVxcIF7o8xkm6E/65yBvfxRiRn3rDSurlTPfutPU+rY0AzOksErhwLFtjJlBmxLCjBtiWl2rNBgjagSCMWlINfBbQjhJa2cTeBlYXV31VldXsxTtebZTXwK2Y5/SWJwY9gYGBryB0RlvMfz64ow3MTrqTSzW1fAmhgcS6ix6M6P+vYYnvHi1mVG/jn8NTwR1o/cLVUi9V7hOuEpC57zhgQFvYGDUa1SsVm7AGx6d8GZCDapxmIjVb24Mok0O++PQoFRILiVbra3qvCX0Lf+cBsx4owMD3sDAcIMy4XZG/fGKtBKa65hsTfanG/OThZrMm1wNP6QZ+eQH3vefHfReeXbQ+/7FH3i/+aT21u8+ecebu/gD7zexKr+5qMoH1/fFO97vPM/zvGVv7hX/9YvvhGpEX/9d6PXfXHxKvf7KD0Kv++2Lb/kyLUfuVWv/W3WyKd7x3nx20Hvl2ae8uU8SC7QsWyDDm/+02f1DhMa6Vi+QddD7vlhOqdjm/oTkUp+DWr3fiadSx7r6XqSd4HPzrc1lrbabNo/hvkflivQnPi5N9kcRrFWbrO2e18I6mmd9C+SprZ+R9WF4wltMXF8LWquy/tbVjUeG8hmgxZdsKZbuqMdJ45gReWrWNAPlSqXeb0oKzPrbS24lXEeDUcm25WJUXLjloK6GcrBPtRR64g0suTIhFVlIhoZbXBkRjp9twajArZQjGSDUOJSjVuUCxiA3RiXSlla2fJmWEDNI5J/TJtHKwXhFWoFRqaTKViVHf7bE/LSZhWsXlTXs0CTGT72Eg6Ho+p27j+DJUy81tEAePHUd4yNHsBMAsBdPPn1EvXEvagW+fQ/A7hcxfiooq8ofPHVBWULvXcTfx7bsd44EMu0NvboXB08FVtEP8WmrVsUmZQtI3rp/FGfOJOSm3f0S/vzpvX49tb0f/ItDkxgf2Ruv0fH+qM9Brd7OkRdTx/rTVWVpPfiFcDvB52bSt3C3xvrsxdr41PXnuu9fvYLbKa4VefoDAJASSwCg7cNQHkFzrDtNr2+GhbIGaNpQtY4KvBvCvjb8nqriBpTRV2BTo69WhuUvopplFbJjSsWXbCmG/G+iMBO2xhMIXAy0ESNhe6m25bKUovFolotKPLfY0L6Eexk4luLu0FiGvAQLhQYroxbd6hjkxl8UoyQsosE7Oee0eNJlA5CzP707P1rZxcbGxuZXXV/zcgO354GIwpqDnU9fxzOHYsra7j+KKEGAytO6DmBnTEFS7MWBL6h7fJrkr5nI5/FgQemvipetMTtHLtRcHs4cVf65vpJaBC31J1GO9LF+8KFAiU9wdyiEFdz+VU25TiJ4ff1XCX67OfsDAFi6o9a1IS37b0DOdTSdRnUS1ilfEU6iuLVKg5bjCcCoqLWrqMBqZnUgWwqt7KJyx0/+berK30czYFkWygnJbwNronR0lJz87Q1pCV+0WMaDAMOyoAkHclZAloMFTkKoR2SMFJGct2o5yJ7rt9UxaDd557QVpDAx5ixBFqXk1zWw/eYnN/dW8CkA7G4uj+qDuxMslLtfwvhPXoq8FFgG168dxZlr+dpYnx/H/3vtQ6wXpHjGaUU2oJmsDsqP99PngsCsvXjy1EsJSmpztNqfPOwcuY5nVpXSu3DpKBYuAdh9BE8+/SKejD8QNUVgld2brqz6D1pFKd1SLgEAtH257L3528m9vg0h6ScujSLXKmXwkEpJ7nDielp8yZbDqLjYcCuwDF+59J33S92OgA+2b8LuDsHWUIOnaNKZORVmCbop2qf09jjS1usyXyRePXCyUjtZuPQoJi/daJvS2zWCBw4AwErr7hpd5OCp63j11Uk8eWivUt6D7AsFZsTYbvT7+pYHWnzJ1kQzUK4YKMOPWh0zIaSAOWZHTsMJnio7k39WbfU4Urk7lDWtujVkHCvofDNNwxAAKe9gCci0bdbZMWiBjHPaFMKspuUxKnH3FRU97RTxe7Gd5ycru/fiQQDr9/4FnwKFWR3jqC3xFex8+np2P9b58WqaLuXLGa63kpI5okOytcQKbl5SftUHDx3BwvwNLFwax4FDxZzy1vn+QFl5Tx3Bk6dUpoW/vzSOhXs3cOXS63jw1Vas2b5bQqN5vvcvytq7e2+hn195J+uqkJMOrW9FrlWB9ThxV7XN0OJLtjyaZqAyZfmWQqVw1N5TW0tqwemALH7wgZwVkFU3h8D/twgCfy0BJ2OOq06PQRE0mtNmCLYaVYBhfKFdwp0W71+jd+encz6+gb/jDfx9YanB6tm5+/MAgPXVDzPXWb/nl939Ir5St23+Ychi2nnZWmHhkq+wH5rEM6cmfTeJhBRnTdLp/tS3fwTPnHrRt/7+S4vzFLg4rODmtaTxqb2+86HPt9RSQDVwbKk9MQydWt+KW6sklMgasnh/qDy+JZR0u5Dxo+JLthAStqnDtEUsOlVCBHly41GzQbYFYUI37di2eZDwO+OBEZnwlVw5CyECN4eCcvcCCAcQSEdXW1uhd6UUsE072p+Oj0EempjTKoGSqU4BauQSUf3hiWTdkH6i9iJdZLbb/DRDLdhp/dpR5VYQelfly31988MFNuPQnypr5vw4Ji+9HtsCDw6piB5iEChwuPcLlaWgWnYck89tto3++ZrCVNde67I1TdWKfQTP+EFX1QwV8+MN8tH2Yn9WcPPSUVyZvYH1WBsLfoAddv8RHmyxlYNP+0r0/Hjs8xnOFXwEXynKul3N+tP6Q3wSHVvfClurlqAMvhl8jKt5fAFIB2MFJDWnqwPZWixJCGFCJDrWawnJwUPngwsHZmJFA8cKFNE4ZgBCYNYBZMPofgEz8ZQ2dapOQHxbKRwMpha2OglQif+ddwykrcrHSkWDGgxUNiqtK/W557T2Xtky4JgCkA5MPXoDo7KBqvHSOAYDAsI/5c2J3UfTZHoqs5x0ZH56nHCA0vr8OCbr0lwdwTOnWm3lCJ559UV8euYi1ucv4sr8RVxJKHMg/OehP8XBSzew4J9WdjNSdi927l6JKVzR9598+ghuXroB3LuIK2ei7UUD0pqQLcTCpUdVUFdSn38Scl+493r10IRaOja/3KkjWLh0A+vXXsbNQ9cT0oB1rj+5uLeChflxLCQG0e3Fwafjbg43cCXxlLYbuPLco1U5I24au1/Cnz/9C0xeS/t8FnXoR4AyiAihdoKMol2aOra+FbRWiRn1u5fFKBS4j/l/FuEuQosv2UJoKE+FAqBCr2uGhYrrInGXVivDdRvVK0B5C2NYsDSoIIMc0f25mqi4cCtWLGejchGwKgm5Djs9Bplpck4DjEriOCQUVH2M5bjUjApc14VVcLD19pmf5jl46jrGT70Yy5cb5GN9sRilYvdLGA8HQVXZi52HXsQzdcrLEfVaLIfvzkOTGH/1Or6yWRaKQ5OJfSpGtrzU/HqV60Zc1hd9ZVdZdBMzFPRUf9S9njzVqI3rObNdpLNzJOnzWWuniHzBYYI4D+UGVzQdXN9aXqskbEcge8pHA5WW3a+iPOB5nrdZobW1NQDArl27Cm28G2ynvgRsxz4RQggh24dakNm2CWRtBmGqzDFGJUc8QW13tIixo8WXEEIIIaStaCj7AbvSGUMBrqpbD2lDN/NYewFIAbvqN2zAKuCBgYovIYQQQki70cqYUuf6wtlSAatFIGGPqbgRo+Juntde2tBLJZR000/FpsEqyOWLwW1kSzA5OdltEQjpCcbHx7stAiGkSWrBrwKmXkCO8i1B1M0jl8uupsEYsWCVk45Jbg76+G4DtmOfCCGEkO2KMHXMHJuKHTaxfZG2CQcWKj3g20zFdxuwHftECCGEEFI09PElhBBCCCF9ARVfQgghhBDSF1DxJYQQQgghfQEVX0IIIYQQ0hdQ8SWEEEIIIX0BFV9CCCGEENIXUPElhBBCCCF9ARVfQgghhBDSF1DxJYQQQgghfQEVX0IIIYQQ0hdQ8SWEEEIIIX0BFV9CCCGEENIXUPElWwdpQy+VUNJtyDY3JcwSSqX4ZUI0dTcJWy+hVNJht1vwPkeYOsw+HGRh6iiVStDN9n83yPZAChO62dyKRshWhoovIaQHWMHC7DgmnzuKm/eau4O0dZhCQsyK/lL+pA1HqB5LMQvRV51vFglhm9D79mFUQjiCyi/pS6j4EpKAUdnAxoZ/uRa0bgu07fkQt6/dwHqz1YUJ3ZGAZsF1y/01X1oZlqF6rBkjMLrd+WBnpuHV7O5JUSxhxumzB6QIGspuBQZ8y29/av+kT6HiSwjZ2kjbt1ppsKb6TOn1MSouNjY24Fb6s/+kGQxU/Id66Yz1qeWb9CNUfAkhWxgJe8yBhFL+ytT6uo9WhrtR2zFxLd8abbm1XZQNZW0kXUYrY8rSAEg4Y/QPJ/0BFV+yZZG2GdpS3SSoSQrYfgBQcOm6CSGLXuoD38HQtq4+BqdhMxLC1CN1lGzJpVXgXeCbGKurmwVbblawcOkoJp97FGeC68xRXJlfyVVn8sw4FuK+u/PjtXs+N44Fv+7NM6G2/OvKfEpTwlFjq1mwMmlS9WNd0pVvcJ46hc1P1S2gga9ptUzUPaClAEz/+xDvk506DvnGIDdBH02B+u+QDt1u5JaQcU6FmTBOEo5eP471bq8SUtgw9fo1JHHMWuoPOjo/WnkKSvd14GT0P1HBlP0ZSEq2PlR8yZZEmCXoER89CeHoyb5qwoSum9UAoGoNKWDqKXWakwpmSYcZ9x1sqFz7dYSM1AlkayyaKhOpKwWcTetl5QauPKeU3Ijv7b0VLFx6OSUILbnO+r0buHKm+cC1NMSM+qU2rCxb/MljDSkhzLSt3jbPj1b2FXaJ2RQtRYpZVd84VoyVNPR9iPfJMZ0ExbmVMciLhK3Hv0MS0kkLwmpmTpuQyh6Dbjp1D8pqzBqtIXn7gy7MjwZjRH17gu9TQ6rBlBLCSZKHkB7Hy8Dq6qq3urqapWjPs536ErAd+5TI4oQ3PDDgDfjX8OiMt1h9a9h/fdSbiVSa8UYTynveojczGtQZ9iYWvXSq7cbvHSnkTQz7sg1PeDOh+y0uznijw0nthOqkyTY84cVFmxmtjcHAwIA3PBHUjd6vVX4nnvJeeXbQe+XiO97vwq9/8o43d/Fb3twn8RrL3twrgwl1lr3fXPTv9coPIveq8Y735rOD3ivPPpVw3zSCuW00LzWqn5HIWKv5mRgdTfgMdGh+ZkZT7xWu03BKM31Gvch3aHi0/nM6MToRq9/cGESbHPbHoUGppr7bzcxpQPDZ2eS7X21n1B+vSCuhuY7J1mR/ujE/0XYzfJcifcv23SOkl6Diuw3Yjn1KJLzg1mkByT9k4R/GJIIfrmw/yg0W+UzKS+xHNrhvToUnrFiNzizG38z+Y7cJv7molNg3/yljhU9+4H0/VbmtKcXJ92tC8W04fvUE45b5maBj89NACcvax4yKS1W2rIPQ5BhEb5FT8c343Q73J/9zXj7FN/d9WuxPJ+cnf1mvqlQ3nFNCehS6OpCth2bBrcQ3fYewr26vW0LMqn0+41jyJnHwumwx96uUS0q0ESNzVH2whZ1cp7b9uJTiKqFZLirx3FVD+wqL6n/wob0AgIVLCe4OCazP/wLrAHZ+4Qh21r27Fwe+oO736b1G/sE5WLqj5mxIy9TnIf8DIsyErfEEOjc/Bo6luDs0liEvAmonW4OVzSG65THITebvtv9OzjktnnTZAOTsTzfnR4M2lKlJAKEsIowmJVuQz3RbAELaxxLuSADQsC9tUfcVkVZ/MJdUQxjSsv8QBHWko6Pk5G8zsS2tDHejnP9mCewcuY5nVpXSu3DpKBYuAdh9BE8+/SKePLS3rvynq0qhXb92FGeuFSJCQ6oPG6mTG0Uru6jc8Q+5MHXlm6gZsCwL5YTkt52cH8OyoAlHPYCVA0U+eHDTMFJEcl4psQQAWvZcv62OQbvJO6etIIWJMWcJsvCA2KCB7s6PeoiQSknuejJoQtoHLb6EkFQOnrqOV1+dxJOH9ior7r0buHnpKM4kZWnYAhgVFxtuBZbhK5d+cFKpyAwFzaAZGNEAyNDJa1JgVgIwLKZpa0An5lSYJeimaJ/SSwjpGFR8yTZmk21IIPd2+WYkbykGlucowTZtNL9p/dX17cTdR/DkqesY/8kHGH91Egd3///t3b9uG1e+B/BvgDR8gQ0Ml3sDyIObaoC8wDa5wC2ScRUM/ATJwn2GJZneSPIAFwLhasfNFmn2BQKwCjDSIveWWSP7Aip1C4qyRNMyZVGiqPP5AC4s8c+ZGUr86vB3fifJ7z/n5U8/XCp/WJZGfPLl3/P9//zznf+ef/X2bPFNDEfH17tD1WQ8m2d+cpL5fLaY3Br6tCt9TO/2+iw/ln5T7rD8GPtdZTrXf4oqB0kyHGXTM7Y3r9ENr+kH6dvz9mbLj/jf/Jun29ah7/j6fMinVrCPBF8esGXd2pDp2gaVQyZnX9/04/J3Wb4BvR3Chkzq9b1Vq7OiumsHtxsZMjnrW/rOdkpX+OTxF/n6m2/PZn//N/++9L0/J0n++Nf/bWWk77M8fzn+8NrOqmoyOzzbknolcNz19anG3WIL2Vd9hvMyh2X97zYs/xDsM92wz9duXqM3c9U1/RDLkppFr+jVUHicoxs+/hu7vD5DFod5RVnYBf2yJ3pt0wv2j+DLg9Z0Z2+A/aJv5qW+v+1yY4km3Q1nrKrmq/PnOW+cP/SZ1PW7N69Y9mXt29TtZOVj2WXD/A03JNjQMHmzmcZwYSbrbb/lHz/9d16++jl//H7567+eLWLL4//Iny5+6/P/ymdJ8svzvPjph5VSiN/yxy8/5OV3y40qVv05f3q8fN7V+77D8vxtFG6GTNo67aRfaas8pF/2ya2e5NJ7/p1fn7OQO7xK3y/LHLbUuzfJxcVOw7Re+XlY9H2dtJPLx7OD1+jmPuCanluGzMWOZVeVRJz/gXWxDCVDhr5NPdpmicwur8/yU6mDvHfC97yPb5Jhmmc2sWDPWNzGw1aNc9i9Sj1dvlG9dYN089XtU/u0a3fA6tOO3jxA1c3ffIRYjdM107T92WzIxWfo5umO6jUhs8ls3qWupxn6adp+3eqUJk83PNSt+/23/PrL8/y6dqHap/nsy7+udG/4Il9//23+/d2P+eOXH/Pylx/z8q37fZH/XPtkn+YvX36Rf/z0c/L7j3n53eX7fvbNP/P156v3WQTFvl/MkDXv++PleEjft1l7mlOt2QTj7q9PszigvJomw5Wr+z/gNZrLi8HW/zw0ma3+/7rnYJgsbr9yq8sLsJrMtrFt8bWv6Zvvjbsm07ZPhmna+vIDNLOTnDdjaJ6mSZ/+bJe36crjVNVw9R4113An12ed/m+L19Imf2idlWScl6IfHSdb6yUDt8+MLw9eNZ5nPuvSXJrKqFI1XWbz+dYWDjWzeWbdhVrhqkozm19dX1eNM7+4MOet8W0hHFx6usPzmsSqmeWtTkvnPs1fvrmwqO3C1z/5/Nt8/f3f1wTRJI//muffX3W/F4tZ4XU+f5Hn33ybzx5vXgO8eTu6KuPDq87zfP25uOPrk6ZLV2WxiOoaq/uv9RSzdT8PixKBbta9fTx3fQ429oHXdKmZrT0Pa264OMa3fn/MMp/P092sSmrNsO76+ixLvjZto9ZkduWJhfvto9PT09P33ej169dJkkePHt36gG7bQzqWpYd4TLCZ4bycZHV2E9hA32bU9kkzy8nGgfbNJw5+7tg3ZnyBPVZlfLaQaZg+i3JDuIZhcrbIdfNNMxZrF5ZlNjdfHwF3TfAF9ls1zmG3aAU23dlCK9g3QybPFrXYzWyDkq9hkno0yqhuzxbIrlsfAfefxW3shRcvXux6CHvp+fPnux7CnXizKKhPW08yny8WNXndwMLl3wWXS4SuVbJbVWm+6tKNt7GNNtw9Nb4PwEM8JvgQfVvnb08PM7PlKlxpmLSZpstMqQKFEXwfgId4TAAA26bGFwCAIgi+AAAUQfAFAKAIgi8AAEXQzuwBsKgNAOD9zPgCAFAEwRcAgCIIvgAAFEHwBQCgCIIvAABFEHwBACiC4PvADZM6o9Eoo9Eodd2mH3Y9IgCA3RB8CzIMfdq6zkT4BQAKJPg+cNV4npOTk5zMZ+mqJBkynfa7HhYAwJ0TfEtRNRkfdqmS5HiISV8AoDSCb0mqKge7HgMAwI4IvgAAFEHwBQCgCIJviYajHO96DAAAd0zwLUqTp02S9Jm2vQVuAEBRBN/CNLNZmioZ+jb1aJTRSF9fAKAMgm9xDvLkoNr1IAAA7tzHux4Ad6tv60z7pOpmORw3EYEBgFKY8S3KkOE4SZp0Qi8AUBjBtyjHORqSVE9sZAEAFEfwBQCgCIIvAABFEHwBACiC4AsAQBEE35IMg62KAYBiCb6lGPpMnk0X2xQfVFqZAQDFsYHFAzdM6tTTi3sSV+m6ZmfjAQDYFTO+BamqJrP5PGPTvQBAgT46PT09fd+NXr9+nSR59OjRrQ/otj2kYwEAYHNmfAEAKILgCwBAEQRfAACKIPgCAFCE4tqZWdQGAFAmM74AABRB8AUAoAiCLwAARRB8AQAoguALAEARBF8AAIog+AIAUATBd8UwqTMajTIajVLXbfph1yMCAGAbBN8rDEOftq4zEX4BAPae4LuiGs9zcnKSk/ksXZUkQ6bTftfDAgDghgTfd6majA+7VElyPMSkLwDAfhN8r1JVOdj1GAAA2ArBFwCAIgi+AAAUQfDdxHCU412PAQCAGxF8r9TkaZMkfaZtb4EbAMAeE3zfo5nN0lTJ0LepR6OMRvr6AgDsI8H3vQ7y5KDa9SAAALihj3c9gPuub+tM+6TqZjkcNxGBAQD2kxnfKw0ZjpOkSSf0AgDsNcH3Ssc5GpJUT2xkAQCw5wRfAACKIPgCAFAEwRcAgCIIvgAAFEHwvcow2KoYAOCBEHzfZegzeTZdbFN8UGllBgCw52xgsWKY1KmnF/ckrtJ1zc7GAwDAdpjxvUJVNZnN5xmb7gUA2HsfnZ6enr7vRq9fv06SPHr06NYHBAAAt8GMLwAARRB8AQAoguALAEARBF8AAIqw0eI2AADYd2Z8AQAoguALAEARBF8AAIog+AIAUATBFwCAIgi+AAAU4cbBd5jUGY1GGY1Gqes2/bCNYQEAwHZtdcZ3GPq0dZ2J8AsAwD1z4+Bbjec5OTnJyXyWrkqSIdNpf/ORAQDAFm1vxrdqMj7sUiXJ8RCTvgAA3CfbXdxWVTnY6gMCAMB26OoAAEARBF8AAIpwO8F3OMrxrTwwAAB8mC0H3yZPmyTpM217C9wAALg3Pjo9PT3d7kP2aS9tZFGlm88zrrb7LAAAcB23UOpwkCcHUi4AAPfL1md8+3aUtk+qbpbDcRMRGACA+2DLM75DhuMkadIJvQAA3CNbDr7HORqSVE9sZAEAwL2ijy8AAEUQfAEAKILgCwBAEQRfAACKsN3gOwy2KgYA4F7aXvAd+kyeTRfbFB9UWpkBAHCvfHzTBxgmderpcOErVbquuenDAgDAVm211KGqmszm84xN9wIAcM9sfctiAAC4j3R1AACgCIIvAABFEHwBACiC4AsAQBH+HxSmMzj7V7GbAAAAAElFTkSuQmCC;sketch=1;imageBorder=default;" vertex="1" parent="1">
                    <mxGeometry x="276" y="1830" width="321.19" height="157.39" as="geometry"/>
                </mxCell>
                <mxCell id="100" value="使用double check且holder作为锁对象保证创建对象的线程安全" style="rounded=0;whiteSpace=wrap;html=1;fillColor=#ffe6cc;strokeColor=#d79b00;comic=1;sketch=1;" vertex="1" parent="1">
                    <mxGeometry x="330" y="2000" width="211" height="37.5" as="geometry"/>
                </mxCell>
                <mxCell id="105" style="edgeStyle=none;rounded=0;sketch=1;html=1;exitX=1;exitY=0.5;exitDx=0;exitDy=0;entryX=0;entryY=0.5;entryDx=0;entryDy=0;" edge="1" parent="1" source="103" target="104">
                    <mxGeometry relative="1" as="geometry"/>
                </mxCell>
                <mxCell id="106" value="存在" style="edgeLabel;html=1;align=center;verticalAlign=middle;resizable=0;points=[];" vertex="1" connectable="0" parent="105">
                    <mxGeometry x="-0.4525" relative="1" as="geometry">
                        <mxPoint x="5" as="offset"/>
                    </mxGeometry>
                </mxCell>
                <mxCell id="122" style="edgeStyle=none;rounded=0;sketch=1;html=1;exitX=0.5;exitY=1;exitDx=0;exitDy=0;entryX=0.5;entryY=0;entryDx=0;entryDy=0;" edge="1" parent="1" source="103" target="121">
                    <mxGeometry relative="1" as="geometry"/>
                </mxCell>
                <mxCell id="103" value="获取服务名 -&amp;gt; 服务Class对象 的map集合&lt;br&gt;cachedClasses.get()" style="rounded=0;whiteSpace=wrap;html=1;comic=1;" vertex="1" parent="1">
                    <mxGeometry x="650" y="1767" width="161.5" height="48" as="geometry"/>
                </mxCell>
                <mxCell id="104" value="返回" style="rounded=0;whiteSpace=wrap;html=1;comic=1;" vertex="1" parent="1">
                    <mxGeometry x="910" y="1776" width="61.5" height="30" as="geometry"/>
                </mxCell>
                <mxCell id="115" style="edgeStyle=none;rounded=0;sketch=1;html=1;exitX=0.5;exitY=1;exitDx=0;exitDy=0;entryX=0.5;entryY=0;entryDx=0;entryDy=0;" edge="1" parent="1" source="108" target="112">
                    <mxGeometry relative="1" as="geometry"/>
                </mxCell>
                <mxCell id="108" value="holder作为锁，双重检查创建" style="rounded=0;whiteSpace=wrap;html=1;comic=1;" vertex="1" parent="1">
                    <mxGeometry x="848.5" y="1840" width="161.5" height="38" as="geometry"/>
                </mxCell>
                <mxCell id="114" style="edgeStyle=none;rounded=0;sketch=1;html=1;exitX=1;exitY=0.5;exitDx=0;exitDy=0;entryX=0;entryY=0.5;entryDx=0;entryDy=0;" edge="1" parent="1" source="112" target="113">
                    <mxGeometry relative="1" as="geometry"/>
                </mxCell>
                <mxCell id="117" style="edgeStyle=none;rounded=0;sketch=1;html=1;exitX=0.5;exitY=1;exitDx=0;exitDy=0;entryX=0.5;entryY=0;entryDx=0;entryDy=0;" edge="1" parent="1" source="112" target="116">
                    <mxGeometry relative="1" as="geometry"/>
                </mxCell>
                <mxCell id="112" value="读取classpath:MATE-INF/{type全限定名}配置文件中的内容" style="rounded=0;whiteSpace=wrap;html=1;comic=1;" vertex="1" parent="1">
                    <mxGeometry x="849.25" y="1890.7" width="161.5" height="49.3" as="geometry"/>
                </mxCell>
                <mxCell id="113" value="" style="shape=image;verticalLabelPosition=bottom;labelBackgroundColor=#ffffff;verticalAlign=top;aspect=fixed;imageAspect=0;image=data:image/png,iVBORw0KGgoAAAANSUhEUgAAA+EAAACUCAYAAAD8vigJAAAgAElEQVR4nO2dXWwkV3bf/5RGK/auZ6TdlTTSrHYlWWuHvJxdyyw7400CBzZg2IgDWCwtKYAFYjYGAuQhgRHkwTtoAuSA3Ri9BEle8hQEOyDqQcNlUfGDE9sBEgcO4rG3Y2PNvqQDy9LKoxnNyt5dcb2mPkZTeaiPro9b1VW3q6uryf8PaAynu27dU+d+nrrnnjtzdHTkYsy88cYbAIDnnntu3FkRMpUEbeTLX/7yhCUhhJB6+fa3v835wSmD80JCyGnngUkLQAghhBBCCCGEnBZohBNCCCGEEEIIITVBI5wQQgghhBBCCKkJGuGEEEIIIYQQQkhN0AgnhBBCCCGEEEJqgkY4IYQQQgghhBBSEzTCCSGEEEIIIYSQmqARTgghhBBCCCGE1MSZSQugy/c/vI93P7iPv/vYBQB88sEZPP7wA/j0J/hegZCAHx2/j0+1ZnHw+puZ1zz+mUfx2KcfrVEqQggZL5wjEEIIaTJTZYR/7AJ/9t5H6B/dww8+vK+85tFPPICFc2fwpUcewoMzNQtISIMIDO/555/F4evfyb2WRjghZNrhHIEQQsi0MDVG+N0P7uN37ryPH95zc6/7wYf38b//+kN8+wcf4ZefmsX5h/nWm5w+Dl5/E4evfwdzzz8zaVEIIWTscI5ACCFkmpiK0ecvf/QxXnt7+OAa5Yf3XLz29vv4yx99PEbJCGkegQFOCCGnAc4RCCGETBuNN8LvfnAfv3f3A9y7X3xwDbh338Xv3f0Adz9Qu6WdTA5w7dI5nLt0DQeTFmVsnIZn1KM5BngfmxdnMHNxE/0hV+6szGBmZgU7FeW8s1Is33oprg9yEtEr/3hdZh1ScVLmCHuXi4xpHPsIIeSkEDPCP/jwQ9y6c3doorfv3MUHH344NqECPnaB37nzvtbgGnDvvovfufM+Pi56i73LOHfuXPpTatDbw+Vz53Dp2skcJg+uXcK5c5exN2lBJkDT2kiU5hjgWexgZWYGFzdpQhSlv3kRMzMzic9FTLcKfWMy8kzKOrGzUs010WtpwGrz/gcf4Du3bg+97q1bt/H+Bx/UINFk5gj549/JG/ubPOYRQsg0E9sT/u7ffA9/dfsd3Pv4Hp59+nPKBN+5dRu3734XLlw8/dSTYxXuz977KNe97Ed/fRc/uP0W3n/v+2h9+jF85tkvYvbHzqWu++E9F3/23kd44dGHCuY8jys3b+LKvKbgB4c41Ew6OvO4cvMIVyaW/8mmaW0k4EfH7wNAag/445+ZVMC1BWzuu9iMftXvQ05ImulmGTfcG1j2/7ezMoOVixeB/X1sLkxUMC36my/jqrgBd99/op0VzKxcxEXsYz94oJ0VzKzsYPmGixvLAPqbuHhR4xrvQqwEnhYLG7U9ZxxFe5jIPfS5++5f4423buGjex/hi8+qY028/uZb+Kvbd+DCxTMZ/WOVTG6OcHpo6phHCCHTTswIf/qpJ3Hv449x5+67AJDqcN+89Tbu3H0XF84/UUtHu//ePeX3H3/0AQ5/97/g1p/ejH3/4JmHIH7FxIWf+vvKe3GAJaPStDYS8KnWLOaff7a2/MjkWL5xA8szK/jmTh+bC9NnhS9s7iNmNi3fwI3lGaxcvYqdzRtYRh+bV3f878NE2Fi+WvIa+IY6cMN1sbwygxW+BdLmmac/h4/u3cOt2+8AQMoQ/4s3v4Nbt9/B5y88VYsBDnCOUAdNHfMIIWTaSe0Jf/bpz+Gp84/jzt138eatt8Pvox3tM09fGLtg3/vwPt77SL1P6+C/7eHO/v/FT/7iP8U//o0N/HL73+If/YvfxOcXv4KzT6oH//c+uo/vZRxZUgbPFe0cLu/FvsSlc+dw7vJebF9XcG3MNS24Nvhcjju17V0+57u6eW5tWdch8fsgj6w9Y4n7JZ+hVN5FGJ4fIjrKzSuxRSBTnCK6vXQNB8H9NPfVNaWNRDl4/U3s/e7vZ34qJ+UGvJPYrxrfv+rtbb2KPoD+1YsZrsOeu3p435XoLvGs/bD+9yuKHeX9TVzMvF8WCVfpVH4JGWdmoLxtQj+ZWWvJ6CeVCYuywL1S7u2Ja8I9yEXkGnJNeK9AFzmu4EJEXib0d/DNPrC8vBy7xvu/RL9f8BoAWL4BN+JFUIx4GafqqdZzq+vvsPJIZBy/R1KOLJlHqGNJvvjsM3j6wpO4dfsd/MWbg60vUQP8+We/oH3/MjR1jqCm2HiYTtaMsa+JYx4hhEw7ysBsyQ73O7du487dd/HU+cdr62j/5kO1i9nRd2/j7W//MX7iF34Vz33lF0LXsk999gn8vV/6NZw9n/0GPuueZZi/8g1cmQf2Lg/2hO29cg0H81dw8/oSlq4f4ejmFcwDmL9yE0dHR7gZ+LUfXMOlS9cA//ujo+tY2rucYWC/hhePjrzrri8Be5cjhvYeLp+7jL2l6/59jvANvJa9R3vvMs6du4zDMF/vnnuXVXvXhuVdgKL57V3G1/CNwTU3r2A+mZevn/nIvV587RJS4hTW7Wv42itzuHk0KCcdmtBGsrhz+xb+5I//MPdz5/Yt/Qx8N+CFjX24rgvXdbEhV3A1Z7Pt8g0X7v4GFoAwXdpleAfL/v3cG8vAzor+/vH+VVy8KLER3G9/Awu+3NlpNnFx5qLnKh2kexXYCZLsrGBmZgUy8tzujWXsrCSMHoV+lncupvXT38TFi1eB8LobWB4mIxC69S8IUe5eOyt4Ga8OZPd1kjYyC+iusOzfxMtXBfZdF+7+JtTr9n3sfLMPLAgIAJBSbawLgQX0IWXBa7TwXdeXB3XgVewMggZW+dxFyyOLhU3v/uFnHxteA8OrQdvSrWM5JA3x1998C7duv4OnLzxZmwEONHeOkKLU+JtI16Cxr8ljHiGETCOZ0dGjHe7tu9/FhfNPZO4HGgc/uqd+I310+y0AwPn5L1d2zzT+arJypXkeV75xBfPYwyvXDoCDa3hlD1j6+rBB7QDXvuYZ698IN5sv4fr1JWDvlcTAOo8rN69jKfjv0tdxZR44eO017+21v+d86cWlQYorVwbXJ/N9ZQ9Yuj54GQAAS9dxfQk4uPZKwngfkvdQSuSXvGb+RbwYy0t9r6Xr1xPPWkK3B8CL39A3vqNMuo1k8c7bt/CnN/9P7uedt3WN8IEbcNSIXr5RdrUxyQI29iP3WN7AxgLQ/+aOZiCtxP0WNvHqxgKws5MRhb2PzZevor+wgf0bkSdZ2MTmsv+74rkDd+j+1av+fYvqZ5BfaDBhGTduLAM7V3MCr6nSFbxXUvaFZXxVqeNhuishex/46qtZxrd/yebLuNoHljei1y0g+o5BTZFrSuK/4IiusC9sbvq6qPa5i5dHQdE3X8bV/gI2wnx169hwoob4X92+g89feCpzn/i4mOwcIb2y7X2SAdvKjr/56SY99jV1zCOEkGkk94iyGcyEf7sYwxviUXDHKY8X3Cx8ax1dzQaA+Sv4+hJwcO1ruPS1azjwB9RcDl7DawfA/IsvxgfBuTnM4wCHsUhuc5iLXTSPubnof+cwh/hq/NB8Yzfw8Iz4QxzGrOsheVeeX8AeLp9LvOXPvFdCxpF0OxpNbCM//bM/h3/2L/917uenf/bn9G7uuwEvpKwfATHS9mSB+PbmBSyMYmAtfBXLCXkWFgRirsoxJGQfWPjqstpwynxutZv0UP0E1yXzU67kRt2jL0JuJFZXS90rek/F6jwwXHel8kuWa0KKlRlcvNqP7+2eJAsLEAB2VhRH5lX43GlyyqMI/U28fLWPhY1XB8H6tOpFcZrY98UY6xxhCdeP4nOEcBU6epnueNjgsa/x5U4IIVNCphH+5q23wzedqr1A4+ZTZ9SiPXLBc3e70/+Tyu6pg/dG+gAHB/5b54Kk9kBr7UtewvWb3mq89zZe4aKWYC5z9E0O1NVQKL/YfjfPBV6lyux7Je5cRLf+C4wqmHQbyWLs7ugAxBQGBPPIMD78FdBhz5X9e/y+RfUT7I8f7EG/qlgFXcYN3+XY89JXH1E29F6xfeqe6385wzf+jIVkD1zMU3gvFlZ2/O0JjbDAAWAZN/Y3sBC++EjrerTnjjByeYQSKVa8S8pbkr948zvhCrhqj3gdNH2OEEV3/G3a2NfUMY8QQqaRM6ovg2Abyb0+WdExx8FnPzGj/P7sExdw4eIi/uJ//lfAvY+nvvyzeKj1Sfztd9/BG3/wezh7/gKe//lfLnVPHQZuZHu4fPlFLBU0xJeuqw3N0sxfwc2jK+F+sGuXLgE5x6odHh4ASke0kivdBRme3x4u+/vdol4Go5w9XpluC9CENpJF4I6exwuXvoKnLjxdk0RNIt+FWfb7SC0DF/pdzzU6PF6r8PX72Lh4EVdf3sRyYq9x/r12sOLvU4+6QJfbGRx/xrKyx2SZWcEOFrChOmZNCCxgxzP4o79JiT4W8FUBAEWu0WRhE/vuZrif+mpwHJz/s/5zR6miPDxCN/SMvefVyDsgCMKW3AOeFTV9XDR9jhBl3ONvHWNfk8c8QgiZRlKvfYNgG8m9PlnRMcfFZz7xAB55SP1Weu5XXsKT4qfw//7Hb+P3/8NV/PdXfhN/+J//Hb7/V3+JH3v8vDLNIw89gM98oqK33AfX8LVrB1i67rupp/Z0K/D3O++9NoqZqbrvFdy8eQXzOMBrrymECPZZK163e7JU655dOD9/X3v8Tf8eYuoJ3O6TOvNd8JJ5Vq7bDJrSRrIYqzt64K67kzAXfNfX8eG7p/dl/KzxrHz738RO4vudnR2lq7V3+yH7cYPfFcvoni589+Oi+vHvl7puKAvY3FgG+lfxcrBEW+ReypX+HSiTDNOdtuz+vVZWsINl3HAzzjnPuH8RGXLLuCwLm9jf38AC+vjmTn/k545Rpjxy76NwQw+oUl6fIAhbcg94VtT0cdLoOUKA7vjbsLGv6WMeIYRMI7ER59add0JXI1W0y2iH+/adu2MX7uIjyoV6PPTwLL70axa+8s//DcQ/+Sp+8hd/FS+8dBk//6/WcX7+hVL3Ks8gEMrXl4Jo6f53wSX+ABofeOdx5euKSOP+SnYpl/SDa7gcvcfhIQ4wjxdfVL9pV+a7dxmX91SBXkalYH6KSUZ6j/sSvu6Foo8czZLQdV6eOrodQtPaiIosd/RRXdA9lrGxsQDsrESO3fLdYYcl9Q1UlSFbKOflZQA7uBr6B+fl28fVlyPHQfnyDoJ/JY+MGhi3FxNRwDd3Ir8no1cH9w0DrxXVT8b9+pu4mHOUl5dFMhhcgXspXg4o9z0X0t0IsvuG5sLGRk4gv8H9Qx32N3E1Q4bsa4qQPvZrJfpMwcq6Z/mP8NzJRyxTHjmy57ihVyovgO/cejt0QVdFQY8a4m/dul3y7no0c44QRXf8bc7YNw1jHiGETCMxI/zxz34Gn7/wZO5xE88+/Tl8/sKTeOyznx67cF965CGcPZPtHnbuiQv4/E9/Bc995Rdxfu7LePChh5XXnT0zgy898lCJnNPR0YN913uXL+HaQRAhHQgHwYNruBSOlkF00svxyOpL13F0fSm+f+trwDfKHhcyfwUvHkbucfkQV3Jc0bF0HUc3rwDXkmlGcWFTRIcNBv1C+fn72iP7wl+Zu5mSJ3BX984wP4dznsLSz1qVbofQtDaiIis6un5E9DgLm/vY31jwzkMOg4X5xyPlEkRmXsk4J3xY8hvY31iI7HHNyXdhA/sbcnA+8srOcLfc5RuD47iCdC8DYaBs/3dE99iuSGzsx++b1s/LwKsKOZdvwL2xHN+z+zLwauZRXpGkG/6+5cCYGnovf69z5Nmuin21PorobgTZAcU+5eR56n5Zhzq8eBVCIcPQa8qysIllmSzfyIr9iM8dEb54eWQQRJVH/2r6vPBAkZXJC5x//DE894Wnc48h++Kzz+C5LzyNJx7/bMm76zG5OUIJNMffpox90zDmEULINDJzdHQ09vCWb7zxBgDgueeeK5327gf38drb7+PefT0xzzwwgxc/N4vzD48n4AohVRC0kS9/ufyxOgBw8PqbOHxdzw107vlnMP/8s1ppB/SxedE/Y7sxQbZIWXZWZrAiN7CvYaQRosu3v/1trfkBwDnCtDLKvJAQQk4CjR91zj/8AH7p/MM480D5gClnHpjBL51/mIMrIePG3/McPV+ZEELGDecIhBBCppGpGHl+/FMP4sXPzea6nSU5e8Z7u/3jn3pwjJIRcvrYWUm6ku9g5aK3N3WDNjghpGY4RyCEEDJtjCMSyVg4//ADsJ75JP7svY/QP7qHH3x4X3ndo594AAvnzuBLjzyEB8dz2gghp5rlGy6wMoOZmdiXdEMnhEwMzhEIIYRME1NjhAPAgzPAC48+hBcefQjf//A+3v3gPv7uY28f2CcfnMHjDz+AT1d9xAghU8Djn3m01rTLN1yMPZgEqR2WK5lmOEcghBAyLUyVER7l05/gYEpIwGOffhSPfVrfECeEkJME5wiEEEKaDEcoQgghhBBCCCGkJmiEE0IIIYQQQgghNUEjnBBCCCGEEEIIqQka4YQQQgghhBBCSE1MbWA2Qk4Sv/Fb73t//NYfTVYQQgiZAL/1G5OWgBBCCKkProQTQgghhBBCCCE1QSOcEEIIIYQQQgipiTNvvPFGbZnVmRchhBBCpgPOD04nLHdCyGmFK+GEEEIIIYQQQkhNzBwdHbnJL8+ePYt+vw8AWFhYqF0oQgghhBBCCCHkJMKVcEIIIYQQQgghpCZohBNCCCGEEEIIITVBI5wQQgghhBBCCKkJGuGEEEIIIYQQQkhN0AgnhBBCCCGEEEJqgkY4IYQQQgghhBBSExUZ4Q6sVgutloGOrOaOpxHHMtBqtWBYHVSqRtmB0WqhZVR830nl0wgkOgbrPCFFGVv/BsCxWmi1kh8LTgNkqweOwWRysG0TQkh5uBLeFGQHXccbIqSzB2foaCHhdCwYnHQRQppO6f6tRposGyFNp8ntp8myEUJOPTTCm4JYR9sU3p/mEvw/czjEbtfhm90TQbCKlfwYMKwOJw7DkA4swyinNynhWIbnueF/DMOqPo0vX8cyQtlO5Uuz0v1bOUz7GMfH/qfXRqnbj1k2UhO5nliB51ILLavoGmpD8PuPaL/TMgxYnYaM/2zbhBCixZlJC0AGmHYPx5MWgjQICelIWM4e2r0e1jmBSCEdC2tWcjIa6O0Ads9OT7xkB4bRTU1gpW/Mm3YPtjlqGgnpdLHWdSAbMVOePE3u35osGxkdxzLQlQBEG71U424usmPA6Co6ECnhSAvOgY3jBjxPk9tPk2UjhJxuuBJOSGMwYR9H3/rb8KZXEt017mdLIR10LQcSAmbbRs/XW88OVkscWN3kqpdEZ803pkUbdi/Qdw+2KQBIOFZyv6FGGqcLw/INcGF6LwPGowVCSB6OBW/x24TdWy+3kjpJZAdrvgEuzEH/5o0NPdhtc3qehRBCSIrxG+GBi1irBSPwwwy/y3HNDK+JT269IB1BuoR7qGHl3C/qEhp1Ja3YtEm5xqZdjKMylgo64liKayS6RvoeeR53smNFXNsMWCqlFXLty3etlY4Vd91NrVhWgMJVzzAsdLJ8hLXqQbD/PuoOuAbVAkUsjY7rchRhwg5WOeQBDivJR0I6nVQdzdRZUA8sByo95JdpOdlKt21hot02vVXo9cGEVJjrg9UuZzdlHHvl5k3IB6vkAqa9jbYAAAfdWCPVSGO+BFOYaNs972XK2GfLaV23DANWvn/9eMsHukGVStZRTcrLFnFpzvxkpa+gP9DltI3ByWewHAAC7YwXYaWeZwS9eb8V14F09sIXf9t2wuAWAua6nbOqz7bd1Lat3X4IISePo6MjN/lxXdfd39939/f33WLsuquzs+7s7KK71Y983d9yF2dn3dnZWXcx9oPr7q6qvx8kXXRnZ2fd2dVdRbpFd6u/664ueveIfxIyeIlCOVSfLBlKMyQflXyBHuKfVXc34/759x58YmoLymFxy91S5qfQQSRNWjt9d2sxp7xz8kmW50jk6luhQ616ENTtYuU5PE3e9QqZwzZURT6RdlVUB0H+q1t+mRct0/KyabXtLMK2Etdpbr8T6a+iz6STJlsfJZ6hMOV1XVf5lOrffErX0fQN/DLJz6e8bP3sNpCbXqd8ysIxOD1mDcorr2mWfR5dvZXVQXgf5RicB9t2k9t2peMcIWSqGZ8RnjP4e0lWcwaYDCPPTXeui1u7qQE3PvgNOsnF1d1IXn13d3VR2ekNGyjCT9zSjeUf3q6/myGXgoIDTPy5CnTYUUMhoYfBsybyHMUID/PZcvv+7/3QKKpogInWr9Utdzdafv1dd2t1K6HD8vUgVqaL6TxWlXU0ox5E80npNMcIzzAm9fJx3f7Wqq+vWMFF2lVGPShVpnqylW/bOSj7l+x+JdXmUxP5MmmUAo3NCI9O+mOl2t91t1ZXFflNqHwK9m+l66hmPiOniciWVUd0dV2ekzUGa5EYs4YZy9rPo6U3DR1E+97E+JOjBLbtKtJEZKu6bVc6zhFCpprxGOH9yICTOQDmTEpzDMBoB7aaHJUUg2PmW+nE/aJyahnheR190UGgDiM8pYchKyiaRriq3ItOiooQ1oOCg5VOPdCabBXSW3JlRm2E9yMrJ3qeCvkrQHHKr6S5bobeNGUr27azGeQRl1n1jIlJ8G6yDeqkUTE+IzzQW+GynlT5jDQZdt3COqx5oh70LbmeEpW10yxO1hisRUTm3bwyGfF5dPSmq4PkXGRxcTVhwBbL3/+RbbukVONo29WNc4SQaWcMe8IdWIa3d0a0e+hlhnQ20W57QY26ieBJwV4osZQdeES0g6BIEebmE9dLOHveBhvzJfXeqeB7uTfY2yrWe4MAKHmfBkQlLYUyMuwc5qveryra2FaUe6jrA/Xu5uI42HUAQKDdLlIGevVASk/OvHqYyim37gqYS963h8p9kPGjyoL91sK0U/ocLR8VQ+pBiTIdVbZibTsb2VkL93C3lf3PHIRAGL/BcqQfPK2HdVNgTnlXnTT1MOcXnGN5cg0/MW2y5aPPGPqqUXEsL3q1aSvHuurbaSGhpn4MHgm5h25XIrv9qyler8vqTV8HYt2LKREcsyXDmDPqeA9s2xUy5rY9OV0TQppC5Ub43pofvCKj44oizCWvw4kFTwoGrPwBdE4ofhPrXgTRMALqIQ68yCaYz5olV9XpCRNLfoAmKxqsSjqDyMrmS4yQXAVSekHKRNFzP/XqwaGXSF3XsnLy08iuOjif8riZTARMu4deMijPiPlIx4KRCh5oDAk0V5xRdVCsbauRwcQpJxATcAjpdMLgOcK00RsaPE0nTT2I9WiUdj/IT06go0mWT1HGXUerwevrgUgAxQTV9gfFOLVjcCjDkm8kO7CUgUUzxChRr8vpbUQdCBPrdg/Hx/5YIPy8LMMPOhfJiW27IsbftuvQNSGk2VRuhC9t+xNfxxoSmRcxw3U3GEuCSMQTNFhlJy+6eeQTGwAF1oNV2WhUcMMaRFaetpVzUjODI8o8w9ufaFUYLtWx/BX2E3h4tewYkUjIqnPVg9UWia7V9Y82S7zkCF/wzPur2zpp6se0BytmnrgOupaBVl0RuCtkOuqoRMew4OS+7JkMJ2EMHpW59R5sE4DspgzVSpiI3oT/8u8Yvba/Mh4evzYdsG0TQsiAMbijm7B73jm9nntk3rUDw9XxRzLv36JuxsMo4OJ0eOC9KZ8TI755DN6cCpix5TExWDUb6f7TT+DePTLCd//NPLYryWj1QO1OFqxuJHLyMxLt/C0Nw1eobGwHE63uWurYEq18IhM2006m6/lHbZVDVaZV6aCUHB0jsgKuMsABQEDMDf5u93qwM9z8B/VAJ82E8FfMesfHg1V66cBKnDE/ifIpzBjq6DhwLG/lzrSz6prHZHR9WsfgOKY9eBlR5YtMjzJ6q14HInjJEMkfYNuugma3bULISWI854SLwTm9jpV/lnT41tjZhRO8VS7sZjxUEH8Cnd675SHR8b8XET8xrT3hvluaaG/Djg0wUReyKURh6A723Ja60dB9cdGzOvNXL4JJTeJs5kz06kEwyKb3sAdvyhU5+Rbb6PveAbHe9l/cSOwlVrR08gkNZtEO9xgOOMRBaQnVZVqlDgpJUcgA9wjlVPYx6ufRSTM6RduCGiFM2Nttf1U83obrLp8yVF9Hx0BgTJg2hjk3ja5rzXow5WNw6hqttjB4GSG7w15GaFBYb1XoIJvY3IVtezRqbduEkNPOeIxwwNuPFgQvMfImASa8uauDrtH1DNkSgbCGitH2J6KOFQa68pBwrGEBnIoTDDByz4EjJcbvbRVxk13rVO9yGqw2w0G3E+jNd48eaoEfxFePpYOO4e/5Em1kLbBEjft8N7tB0BPZNRLl6gWv6VidmJGsUw8G+/4ibp3RZ1ERTswsGFayXCSk0wmDJg1nsIVBdrvxNBr5BJMGyL3I9dLbo9ca5rZcokwr1UE+g/roB0kb1owD2WQXa8nYDcOep0yaESneFiQ6lgGr4yT6HAknWKFPusnXWD5lGa2O1oDseIagMsilghF1XbweqPI+GWPwSDoo8zKiNMX1pqMDpxO064TQUkY8HASWogYt27Y+NbdtQggZ3znhwS9Fzn+MnUWcf4xE6eN43GFHjlV/bnVWPqtbu4ljJwbHyOR9Mo9ZCc9pTn/iR5hrHDfm5uhtccvdWs0/zkpH18n8hpXx4Jgo1Sddj3TqQfJMz2iZ7Kp0UEgPSdlyzgnPPG5rlHzUz79Y4Oz3wmVaWjaNtp1T/5P1tZ9Ily1bxvOUTlOsbWcdWVS8LUTOls3qd1Rp6ygfrf5No45Wnk9WmmG6rqqdRpMWrQcndwwurIOccW5wjyrqtSLPAnorq4OssSe3rqVkYttuWtseqb4RQk4U41sJ9zHtYK9PTqTSMMgJxhLURKz30LPbMGM+4QLCbBdbPSuWScTFSkCk/M8lnK5Vbb9YXJgAAB9ISURBVJAY01Y8V3WI9W3Y7egeNQGzbaOXFblTmNj25Yn/7u+LP87XtVjfDveFiQLuYF7k8PTzC2GibbdT9UinHph2L64D4Ucsz38Q9KJBslJ5lYkPMNh7mFoNL52P6X2Xen4bvV4P7VKekEPKtFIdVEwY2bxEf6CTZgSKtwWB9e08PffUaRtbPlXW0apRx4EYygi6Ltsnqpj2MbgKHQzuUS5i+vAbF9dbWR14Y4+ZnkuIIE3GfmO2bQ3qb9uEEDJzdHTkJr88e/Ys+v0+AGBhYaEGMWTo1mnax1qD7KQJ96WKttJIlR0LRjcvcjMhDUR2YBhdyIx6TQg5CUz/GDwZqDdCCCF6jH0lvAjhnq+K91XWRyQ4U1ttqAiz4rNQCSGEkAqY/jF4MlBvhBBCdJmwES7hRCMbb0//SpvTteAkAqlI6cBa6/pBkqqKOksIIYSMwskbg+uBeiOEEDIalRnh7x3/AL/d/y1894d3h/4mOwZarRZaLQOWH/b0V//Tv0+5aJe5Z/q3/4L3jn+Q+u27P7ybmU6fwb5dSAeWETyff6yKEUT+5GBNCCGkGvLGuLzf/mjzBeUYvOjmp6vrt6aimruY9ja3lxFCCClNJUb4vfv38K23buLCI5/Dt966GTNw834DgGee/wfo/vYf4Ndf+H7hdEV++8ynHsO33rqJe/fvhb9994d38a23buL5x35CmW4kTBvHygAd8IJ5tYcHJiOEEEKKkjXGBWNj1m/77x2H3wth4j/+rzfx6y98f2i6On6bFoQwYfeOYdO1jRBCiAaVBGb71ls3AQA/84VL4eD6M1+4hCfOnp/ob3nXqdL9zBcujaRMQgghpC6aOvbq/kYIIYScFh68cuXKZvLLhx9+GO+++y4A4Iknnsi9wZt/85e4c3QbP/fcP8QDMw/gUw//GB5pPYpvvXUTP/rwb/H9v/vexH574uyT+PO7Bzh6/z38+XcPwkEfgDLdjz/2xTGomBBCCKmevDFuGn978tyFWvVHCCGETIqGHFFGCCGEEEIIIYScfBpxRBkhhBBCCCGEEHIaoBFOCCGEEEIIIYTUBI1wQgghhBBCCCGkJmiEE0IIIYQQQgghNUEjnBBCCCGEEEIIqQka4YQQQgghhBBCSE3QCCeEEEIIIYQQQmqCRjghhBBCCCGEEFITNMIJIYQQQgghhJCaoBF+SpFOB5ZhoNVqRT4GOrLaNHXgWJ5MhtVBpaLIDoxWCy2j4vtOKp9GINExmlFvCJkGxta/AXCsVqI/b6HVsuA0QDZCVJykuQupl9NedziWNI9TZIRLOB0LRiMbT72yyY4Bw+rCkcUz00lTC7KDruPJJJ09OEPFa3I9IISQCKX7txppsmwniiaPWZy7NBvWnTC30153mtxfN1m2MXOKjPBD7Hadhr5hqVM2B92ul5No2+gdH+M4/PSwLqpKUxNiHW3TE0CYSzCHytLkekDK4cBKvXn13lIbVudUdeRaSCfxhr+A3qSEYxme54b/MQyr+jS+fB3LmOqVh5Ep3b+Vw7QjfXmvjVK3H7NsJKDJY9YpnrsEHmyq8cewGmK4se541FB3/PEqVicMA1anIfrnWNJIzkxaAFIzUuIQAEQb2+tmsYaik6ZGTLuH40kLQRqEhHQkLGcP7d6EXxI1FOlYWLOSk4NAbwewe3Z6IJQdGEY3NaGQvjFv2j3Y5qhpJKTTxVrXQSPmsA2gyf1bk2UjJ4ypmbtISClhGQ6EaaOX6hRJ7Yy57siOAaOrGLCkhCMtOAc2jhtQD5rcXzdZtnFyilbCCQDg8MCbEM+J4gOSThpCasOEHX1L3bPhDXcS3bXTtb+oENJB13IgIWBG3vD37ODttQOrm9zJJdFZ841p0YbdG6wI2KYAIOFYyf1fGmmcLgzLN8CF6b0MGI8WCCHTRFPnLqIdXyXt2eGqnnQsWEU3xZLxMc66IztYC1bMzcSKea8Hu928hSvSHKoxwgO3HMvBYJ9HxPUwteLi4W3kD9wMEy6LhpXtfhhzU4y6NyYSOJYiQIBE10i7ECk7yqL5xBOlXC9bhgEr6XupK1tuEK8pDnqVco1Nu3hFn6lUEIhR60EgYqxeG7BUSq6gfKRTrP2MhMJ1yjAsdLJ8hHXbQqIvaBlrUL0wjqXRcV2OIkzYwVtneeC9zR45H6kM0JKpM80+UUe20v2oMNFum94qdOQNvzDXB6s2zm7KOPbKzYTdW4+skguY9jbaAgAcdGONVCON+RJMYaJt97yXKWOfvRTsr4ekqbR8oBvkpmQd1aS8bEG/l/fJSl9Bf5AH5y7RRJy7VIEwsR7x8HF24wXEunOy6o509sIXzdt2wuAWAuZ6njcEx5KmjiXa7bQkFa+ES3QMA1Zin4d0LBi5rwM9A8xy5CCddNA1FI3KsWAYVriJP7zcN+KMqjSjlY8Dq5V4Di8RHGttQoNLYt9sUA6xzjDxm1aaUUS0GrSHSo1jtWDE6rWE062wvkXzscq2n9KZhHU7lo900LW66Q5slLaQ3POVW8bq9hPkU0rVc/P+YHioyLJ8PrKzpgzQ4uksrx6U7RNH0UHxflSs22nX8bw7+xNJ0W6nV6algz3//vLgcKQ0nsFuY72WTWE6/XU95aODfh1tKhX2B0Ph3IVzl2qZm/f7sEOpMBx9WVl3xsQ01B2OJfXRXF3j6OjITX5c13X39/fd/f19txD9LXdxdtad9T+Lq1tuv+//tLvqf7/obvXjyXZXB2lmZ2fdxa1d17uk724t+t+v7kZTuKthHsG13vW7q4uZ+cTTZv2uurZcPv2txVDm6E/9/q67tbqak28J2QJdL2656UsDvUXvM3iWoZ9Q1zppIs9fIk2yrEOx+7sZdSBHJ7Or7pArXS1dK+rC4FkTeZYuH1U+xdqPFpG8Fle33N3IPb16upXQoU5biJTpYjqPVZUOsupBNJ+UTgPZFOUe6i35m04+rtvfWvX1FSu4SB+WUQ9KlamebOX70RwC2WL5ZNRbV9Hmw3Q6aZQClei3y1G+v55Q+RTs30rXUc18Rk4TkS2rjujqurwInLt4ajjdcxctcp8notPE76w7GrI1ue5E+5DEfCfngTiWVJEmIlvVY0ml86ocKjfCFxWtKXiY5G/Rh1xN1lzFZDDa2FVk5eP/WrjB6+YTfF++XMbZGaWEL195CqbRMsLzGl7RRlmHEZ569oz7jGiEl2k/OoRtrmD5a7UFpSEX3jFfB7lpkm1LbYT3d1ez9amVTx5D6kGZMtWUrWw/ms0gj7jMqmdMTMx2k21QJ42K8RnhpfvrSZXPSJMT1y2sw5onTkHfouzXKm+nmUJw7uJy7qJFwTrKupPFyak7ybnv4uJqwoBNJeBYUqFs4xhLqptX5VOtO7poY1sRith8yQ+TdKDenSnaQaCeCKE7aYCE4/svBvfLzGdvlD20+vkE7keOpXDNOQWI9V7kCIecTwOiRJZCtBV7euYwX7XHrGb7KY4Dz0NYoN0uUgZ6bUFKT06xVDwgSbCvSp1GwFzyncuV7uxxN7LAnV+Ydkqfo+WjYkg9KFGmo8pWrB/NRnbWwj3cbWVI+TkIgTB+g+VIP3haD+umwJzyrjpp6qFsfz3p8tFnDH3VqDiWF03YtNFT1LXq2+kQOHcBcHrnLpUiHXSsYX0p685JQqz34gH5whhH6vgiHEsqZMxjybh13Yjo6HNC8Thi3Ysy2FsP93YeeNEPMJ81c6tEMfr5iPVo1F9/E3/FgQxOHMLEkh+gyYruhZbOILKy+RIjJFdBeORG0XMY9drCoZdI3a6zcvLTyK46OJ/y+I9MBEy7h14ySMqI+UjHgpEKHmgMCTRXnFF1UKwfVSODgQwC7cyI5IeQTicMZiJMG72hwdN00tRD2f56kuVTlHHX0Wrw+nogEkAxQbX9wfjg3IVAdhMByYI91Xl9KevOicMPyHd87M89BBDqJLGHnGNJVYx/LBm3rhthhJ8kTHvwRsxrg14gg1aVEV0biuzkRTfPCmohsB6sykajghvWILLytK2ck5oZHFHmGd7+wFdh8JAwYF6DgwfqIjvBJEFknKsevP2W6Fpd/2izxEuO8AXPvL+6rZOmfk5Sfz0ddVSiY1hwhhgopH5OUluYKCI4+lHVl55MWHeiCP9l8zF67ek8qo5jSX3UYoQH7qmjUcANopIzISvIx38j1js+Hqz6SAcWzyxWELzJEjBjy2NisGo2KdEaQjXtB4Dw3X8zj+1KMlpbULv3BG/cEzn5GYl2/pYGlbtRFGHa2A4Gvm46MqtWPpEB1LST6Xr+UVvlUJVpVTooJUfHiKyAZ00aBcTc4O92rwc7w81/UA900kyIgv31JMqnMGOoo+PAsbyVFNPON1CaomvOXcC5yzBS54THj34cDdadacbzEvD+jh5V15T+TQnHklqpwQgfvtekGMGkTqLbVR5uiI7/vcj0p6k/HyFM2Ntt/+1gUeOnAIp7DfZ0TgatPeH+ecSivQ071uCjLj1TSGXlU6T9DM5OzD9OJxhoE2czZ6LXFoJOL72PMnhzqcjJt9hG3/cOiPXgSCyJvcRreJ18wom4aId7vgYc4qC0hOoyrVIHhaQoZIB7hHIqtzKon0cnzegUbQtq8vrrusunDNXX0TEQTO7M4cfjja7r0epBcA/OXU7H3CVOFXWnKlh34mI0ve5kE9Ubx5IRqXUsGS8VG+EH8dUv6aBj+HsIRBuFYkHlYLb9Ru2f3TnIyTuPcFhQodA9cq2T6yKjl49ExzJgdZzEucQSTrDik+l2WVy2cDUTDrqdQDbf/XYaeqIEQYOXew4cKfOPka6EErrWYaTy0Ws/0UEo3+1pEIRCdo30eeTSQcfqxIxknbYgzKUwTRiUJPosKoJ9/44Fw0qWi4R0OrAyDHjFzcItDLKbOPdcI5+gE4fci1wvvT1TrWHudiXKtFId5DOoj36QtGEvuwLZZBdrydgNw56nTJoRKd4WNPrrGsunLKPV0RqQHc+gUQa5VDCirovXgwDOXTh38Shfd8YL6w4aXXecTvD8CTmk9IPVAYDAUtSg5ViiT81jydgZxznh6Y86nL3O0Qb5x2ANCZsfnvuZ/iRlKJ9P5Oy4jDS5z1mFbItb7tbqlB7zkae3rd3EMQDFznPMPNKrqK41j8UoXT6a7Scrv2HFNDgmSvVJHw+h0+aSZyxGy2Q3q44O1UNStpxzwnOOiNHPR/38iwXOfi9cpqVl0+hHc+p/sr72E+myZct4ntJpCp7VmvGwxduCZn9dR/lo9W8adbTyfLLSDNN1Ve00mrRgPeDcxeXcJV/GoXWn5DFFrDsVyzbhupM118nt27wH4lhSOk19Y4n+0XvlGLM7ur+vt8IAFWK9h57dhhnzUxYQZnv4io5pK9JWlY/A+nYkMIUiTe5Lm1KybcNuR/PxA4FUFBWxVsR6xOVFQKSeX8LpWtW6hZXQtQ6ly0eY2PblSded4e1HrG+H+3REAfccL3J4+vmFMNG226k9+DptzrR7cR0IP2J5/oOg18trQ2XiAwwC/qVWw0vnY3rfpZ7fRq/XQ7uUF+CQMq1UBxUTRjYv0ffqpBmB4m1Bs79ubPlUWUerRh0HYigj6Lpsn6i4A+cup3TuMnrdqR7WnebWHW+uY6bnriLQQcZ+Y44lGtQ/loybmaOjIzf55dmzZ9Hv9wEACwsLw+8iOzCMLqRoT7xBkOki3JeaUXdkx4LRzYvcTEgDYZ9ISPNhOyWEEDIheEQZmSCRwDdt9QRImFWcgUkIIYQQQgghzYBGOGkETteCkwhsIaUDa63rB/dQRVgmhBBCCCGEkOnizKQFIKcZb99u13K88ySNrH3fAu1tugoSQgghhBBCph+uhJPJYto4VgZMgBfMq11tcBxCCCGEEEIImSTVBGYjhBBCCCGEEELIULgSTgghhBBCCCGE1ASNcEIIIYQQQgghpCZohBNCCCGEEEIIITVBI5wQQgghhBBCCKkJGuGEEEIIIYQQQkhN0AgnhBBCCCGEEEJqgkY4IYQQQgghhBBSEzTCCSGEEEIIIYSQmqARTgghhBBCCCGE1ASNcEIIIYQQQgghpCZohBNCCCGEEEIIITVBI5wQQgghhBBCCKmJaoxw2YHRaqFldCAruWGzcCwDrVYLhnUyn68IY9NBXXXnhNfROBIdo4VWy0Dn5D8sISMzzj7esVpotZIfC04DZKuFE973Tn35nHBYPnqwTyRk/HAlfBiyg67jNXPp7ME5jS2+tA4knI4Fg0YgIaTpNLmPb7JshOXTdFg+ejRZb02WjZCS0AgfhlhH2xTen+YS/D9PF6V1cIjdrsM3lCcCB1bqjbW3ym5YHQ6Aw5AOLMMopzcp4ViGt3rofwzDqj6NL1/HMkLZTuVLszH38aZ9jONj/9Nro9TtOf40mxNQPsGqpJW1DOlYXv8wjZ4MTS0fv9+N9tctw4DVaci8iX0iIbVwZtICTAOm3cPxpIWYMNQBiSMhHQnL2UO718M6B8IU0rGwZiUnVYHeDmD37PQEQnZgGN3UREz6xrxp92Cbo6aRkE4Xa10HshEzvsnT5P6tybIRlk/TaVr5yI4Bo6voeKWEIy04BzaOU518/TRNb1GaLBshZeBKOCGkACbs4+jbaxveNEGiuzaFKyTjRjroWg4kBMy2jZ6vt54dvPV3YHWTS08SnTXfmBZt2L1A3z3YpgAg4VjJfXMaaZwuDMs3wIXpvQwYjxYIIYQEyA7WfANcmINxwRtTe7DbZrlVYULIVDMWI1x2rIibjQEr18dRx40ynaZlGLDy/TVLpdELHCEhnU7C/dR7no4qnyBgjeVgsI864rZatWtSyjU27WIcLapSOghc1mLXSHSN9D0y3d5QsO7kBvopFpRMOla8zqVWLCtA4XKWWRci1yfrjpO7XJmsNy20jDWoXrTH0ui4LkcRJuzgbb08wGEl+VTZfoaVaTnZvLYQ1KlEWsNK1zVhot02vVXo9cHESpjr6AV6c3ZTxrFXbibs3npklVzAtLfRFgDgoBtrpBppzJdgChNtu+e9TBn7rK+a/rrS8kFNfbwm5WUL+r28T1b6CvqDEnB+0ND5gRYsnzLlI5298IXptp0wuIWAuW4PxocCOmCf2Iw+UUfXhAAAjo6O3OTHdV13f3/f3d/fdwvR33IXZ2fd2cUtd2t11p2dTX8Wt/qKhLvuquJa77PoKpPUlGZX+Ryr7m6uGhYz8sjQQaC31S13azEj3WpejiXYXfXyyv3EdVFKB7urQ+49+MQeSafuRNKki67v6zJRrgXyqUzXvj6y9a3Q4ZDyKd9+sup22bYQXK+QOdBpJfnU2X50+4NFd6u/664q88rqe1TZB20lrtOgvSnLOtR1/Jl00mTro8QzFKbO/rpc+dTSx6dv4JdJfj7lZetnt4Hc9DrlUxLOD3w1NHN+EDxL5q2C/io13rJ8ypZPmIdy7pIH+8Qm94mVzg/IqaJaIzxodKu7YQczaKDJyh5pIJHrXbfv7q5md1Th/WJpXLff33W3VlfzJ/cl0qifb1hntOourm65u/1YLpHOI5FeQ2/DOjx155+h6/5u7PsqdOBRYlKvU3dGMcLDfLbcoJj6oVFU8aTTz2c3ck+vzm0ldDjo9Bez2kJKtkiZLqbzWFXpQKvN5RjhGcakftsetf0UKVM92ZITgMWtIG2/eBtK6i2WT0a9dRVtPkynk0Yp0NiM8PJ974TKZ1x9vGY+I6eJyJZVR3R1XV4Ezg+8y8Y/P9BBzwhn+Yw0d1GM2zmSsU+sIk1Etqr7xErnB+RUUb0RnqpoGRO8QoZUemAYOmAo0EkTF2eUBu+6Q3VQQm9aRnie/EWfrQ4jvNK6k61r1ZvZ3BXFkoQdcsEKF51k5N0vJlvm6oTrFvEGKN7m1EZ4P7Jyr+epUKY9Dm8/hct0xH7H+y21fFDCYBnkEZdZ9YyJlzC7yTaok0bF+Izw0n3vpMpnXH18FfmMIFvQt+R6SlTWTjOF4PwgX4LK5gdauWd5hiU/0bJg+WiXT3IOt7i4mjBgM+Rnn1iJbOPoE6ubH5DTRrV7wkVbsZ9lDvOKPYfB3hixpApEIWAued8eJvbDzvk3cyxvP1CRrRY6aapFrYOQEnoT671BII+8TwOia5aihA5GzWdbEcrbfMkPM3ag3t1cHAe7DgAItNtFykDC2ZMxGTJl2xvsMZPSk1PdfjJy0mxzHvGjyoL91sK0U/ocLR8Vw9tP0TIdVTbRDgKeRcWbL14GnbVwD3dbGVJ+DkIgjN9gOdIPntbDuikwp7yrTpp6KNv3Trp89BlDXzUqjuVFYTZt9BR1rfp2OgTOD7IkqGx+UBcsnwgly0ese7E4gmO2ZBirR73HnX1ihYy5T5ycrsm0MrHo6IcHXiWWXXWgMOURDvA6sEHUXz/4wZAAEDppdJGOBSMV/MwYEihrzAgTS36AJisarEo6g8jK5kuMkFwFUnpBykTR8ysP4TUFgfksa0nRiQftZ04U795125waAdPuoZcMLjNiPuNuP6PqQKlvse5Fue2t5w62MpgAQKCdGZH8ENLphEFghGmjNzR4mk6aeijb906yfIrSyD4+hdfXA5EAigmq7Q+qhfOD+omd3TzkhT7LZ0SEiXW7h+NjfwwVQPh8ici17BOrYvx9Yh26JieLqTyizLQHbxK9vstB1zLQyoleqJOmLI7lrxCO8fBd2cmLbh75xDpygfVgVTYaFdywBpGVp23lnNTM4Igyz/D2JwwVhv2so/1MCtkJJlci41z1YNVAomt1/aPNEi85whc88/7qtk6a+qmj762L6aijEh3DgpP7sufkcprnB9MAyyeK8F+aHqPX9lfGHSv3BJmmMR31+nT3iaS5TMwID1yMRDvfvVrlMuIl9N4k9o6PB6s+0oGVd2axTpqiRDpO004+U88/KmhSBG8ABczY8pgYrJpNSrSGELh3j4zw3X8zj+1KUsBl6/DAq59zIr3qrBz4gtX1RE6jtjkfYdrYDiYM3bXU8Rta+Yyh/ajKtCodlJKjY0RWwFUGOAAIiLnB3+1eD3aGm/+gHuikmRAF+95JlE9hGt3HD3AsbwXKtLPqmkeTdc35QbNh+VSPt+Lvi7M7sMKb3E6boLcinIQ+kZxMJmaEC3/2OPoeXEAIE/Z2239DWsz40UmTRzjhF+1wr8+AQxyMeP8ArT3h/nnEor0NO9ZRRl2hphBFuQ323Ja60dB92dEzJ5PuYnECozpxNnMmgSEl0e2q7ivR8b8XEX/1YLBIt5/gja8ipyrb3Hrbf3EjsZdYitDJp/r2oy7TKnVQSIpCBrhHKKdyK4P6eXTSjE7RtqAmr++tu3zKUFcfPxLBpNi0Mcy5aXRdj1YP8uD8oApYPkVpWtuOjvXsE0ek1j6RkHJMzh092IPsWDCsTsKlSEI6HVgpY0KiYxmwOg5k4nonWPFJuV3qpClP0Hgh9yLPIr29Mq3Jul0GHaXcc+BIifF7DUXcZNeSZVsBwWozHHQ7wR533z16qAV+EF89lg46hr93SbSRFUstatznu4sNgnfIrhEGMAvvIx10rE6sXpttfzLhWInrJRxLHchLmEthmjCYS/RZVGi1uSwGWxhktxtPo5HPaO2nRJlWqoN8BvXRD5I27GVXIJvsYi0Zu2HY85RJMyLF24JG31tj+ZSlyX28J0rHM7aUgaIUjKjr4vVAA84PRoblU5y6ysfpBM+SuKGUfuA5ABBYihq07BP1qblPJKQ0lR5RVua4pGi6zE/O2aHKz6LiGAudNINzm/M+6iOG1Hksah8ZVcGxQUP1vOiubu0mZNDRQTT5amaa+BHmejrIPKptccvdWh1ynEiGDvL0nMxv2HEpg2OiitTrYUfPqWXLOlpmcSs4o7OKNpdzTnjmcVuj5KPRfsqWaWnZNI7Jyan/yfraT6TLli3jeUqnKda2s47MK94WdPpet57yqauPrzyfrDTDdF1VO40mLVgPOD8YkmY884Oi5aN3TrjL8tEonyLHweUenVWinbJPrK9PHPkYPXJqmWxgNrGOXjTYxuAHCLMNO7VXWWB9O+/6nsLdRCeNDqYnb8y3O9hz3UN7kucEifWIq5CASPmfSzhdq1qXNdNGz24n9FEdYn0bdjtapgJm20YvKwKlMLHty5OuBzZ6x/krlWJ9O9zfJAq4NXmRw9PPL4SJtt1O7cEX66rrB3VUJZtp9+I6EH7E8vwHKdnm8hgE/EuthpfOp8r2M6RMK9VBxYSRzYvXA600I1C8LWj2vY0tnwb38RlxIIYygq7L9onjl43zgygsnzLUUz7emG2m52AieJ6M/cbsEzWov08kpCwzR0dHbvLLs2fPot/vAwAWFhZqF4pUS7gvVbSVRqrsWDC6eZGbCWkgsgPD6EJm1GtCCCGEEEKayFQeUUbKEAnO1FYbKsJMn0NNCCGEEEIIIaR6aISfIpyuBScREERKB9Za1w9wooqwTAghhBBCCCGkKs5MWgAybrx9u13L8c7UNLL2fQu0t+nSSwghhBBCCCHjhCvhpwHTxrEy0AS8YF7t4YHJCCGEEEIIIYSMDgOzEUIIIYQQQgghNcGVcEIIIYQQQgghpCZohBNCCCGEEEIIITVBI5wQQgghhBBCCKkJGuGEEEIIIYQQQkhNnPnk7EepLz/+6HvKvwkhhBBCCCGEEKIPV8IJIYQQQgghhJCaoBFOCCGEEEIIIYTUxJmRb/CJz4Z/3/vwb0a9HSGEEEIIIYQQcmL5/yl0Y2I9SOJUAAAAAElFTkSuQmCC;sketch=1;imageBorder=default;" vertex="1" parent="1">
                    <mxGeometry x="1050" y="1879.35" width="483" height="71.99" as="geometry"/>
                </mxCell>
                <mxCell id="118" style="edgeStyle=none;rounded=0;sketch=1;html=1;exitX=0;exitY=0.5;exitDx=0;exitDy=0;entryX=1;entryY=0.5;entryDx=0;entryDy=0;" edge="1" parent="1" source="116" target="103">
                    <mxGeometry relative="1" as="geometry"/>
                </mxCell>
                <mxCell id="119" value="返回map" style="edgeLabel;html=1;align=center;verticalAlign=middle;resizable=0;points=[];" vertex="1" connectable="0" parent="118">
                    <mxGeometry x="-0.1348" relative="1" as="geometry">
                        <mxPoint x="-3" y="-22" as="offset"/>
                    </mxGeometry>
                </mxCell>
                <mxCell id="116" value="使用类加载器根据value的值将类加载后，将name-&amp;gt;clazz填充到map中并返回" style="rounded=0;whiteSpace=wrap;html=1;comic=1;" vertex="1" parent="1">
                    <mxGeometry x="849.25" y="1960.0000000000002" width="161.5" height="49.3" as="geometry"/>
                </mxCell>
                <mxCell id="109" style="edgeStyle=none;rounded=0;sketch=1;html=1;exitX=1;exitY=0.5;exitDx=0;exitDy=0;entryX=0;entryY=0.5;entryDx=0;entryDy=0;" edge="1" parent="1" source="103" target="108">
                    <mxGeometry relative="1" as="geometry"/>
                </mxCell>
                <mxCell id="110" value="不存在" style="edgeLabel;html=1;align=center;verticalAlign=middle;resizable=0;points=[];" vertex="1" connectable="0" parent="109">
                    <mxGeometry x="-0.3675" relative="1" as="geometry">
                        <mxPoint x="11" y="12" as="offset"/>
                    </mxGeometry>
                </mxCell>
                <mxCell id="120" value="此时当前接口的类都进行了类加载" style="rounded=0;whiteSpace=wrap;html=1;comic=1;sketch=1;fillColor=#ffe6cc;strokeColor=#d79b00;" vertex="1" parent="1">
                    <mxGeometry x="1050" y="1960" width="200" height="30" as="geometry"/>
                </mxCell>
                <mxCell id="124" style="edgeStyle=none;rounded=0;sketch=1;html=1;exitX=0.5;exitY=1;exitDx=0;exitDy=0;entryX=0.5;entryY=0;entryDx=0;entryDy=0;" edge="1" parent="1" source="121" target="123">
                    <mxGeometry relative="1" as="geometry"/>
                </mxCell>
                <mxCell id="121" value="clazz = map.get(name)&lt;br&gt;获取服务类对象" style="rounded=0;whiteSpace=wrap;html=1;comic=1;" vertex="1" parent="1">
                    <mxGeometry x="650" y="1835" width="161.5" height="48" as="geometry"/>
                </mxCell>
                <mxCell id="127" style="edgeStyle=none;rounded=0;sketch=1;html=1;exitX=0.5;exitY=1;exitDx=0;exitDy=0;entryX=0.5;entryY=0;entryDx=0;entryDy=0;" edge="1" parent="1" source="123" target="126">
                    <mxGeometry relative="1" as="geometry"/>
                </mxCell>
                <mxCell id="128" value="存在" style="edgeLabel;html=1;align=center;verticalAlign=middle;resizable=0;points=[];" vertex="1" connectable="0" parent="127">
                    <mxGeometry x="0.3013" relative="1" as="geometry">
                        <mxPoint x="7" y="-8" as="offset"/>
                    </mxGeometry>
                </mxCell>
                <mxCell id="131" style="edgeStyle=none;rounded=0;sketch=1;html=1;entryX=0.5;entryY=0;entryDx=0;entryDy=0;exitX=0.5;exitY=1;exitDx=0;exitDy=0;" edge="1" parent="1" source="123" target="130">
                    <mxGeometry relative="1" as="geometry">
                        <mxPoint x="730" y="1950" as="sourcePoint"/>
                    </mxGeometry>
                </mxCell>
                <mxCell id="132" value="不存在" style="edgeLabel;html=1;align=center;verticalAlign=middle;resizable=0;points=[];" vertex="1" connectable="0" parent="131">
                    <mxGeometry x="-0.493" y="1" relative="1" as="geometry">
                        <mxPoint x="6" y="5" as="offset"/>
                    </mxGeometry>
                </mxCell>
                <mxCell id="123" value="使用类对象从EXTENSION_INSTANCES集合中获取实例" style="rounded=0;whiteSpace=wrap;html=1;comic=1;" vertex="1" parent="1">
                    <mxGeometry x="655.75" y="1903.34" width="150" height="48" as="geometry"/>
                </mxCell>
                <mxCell id="129" style="edgeStyle=none;rounded=0;sketch=1;html=1;exitX=0;exitY=0.5;exitDx=0;exitDy=0;entryX=1;entryY=0.5;entryDx=0;entryDy=0;dashed=1;" edge="1" parent="1" source="126" target="98">
                    <mxGeometry relative="1" as="geometry"/>
                </mxCell>
                <mxCell id="126" value="返回实例" style="rounded=0;whiteSpace=wrap;html=1;comic=1;" vertex="1" parent="1">
                    <mxGeometry x="630" y="1994.15" width="65" height="28" as="geometry"/>
                </mxCell>
                <mxCell id="133" style="edgeStyle=none;rounded=0;sketch=1;html=1;exitX=0;exitY=0.5;exitDx=0;exitDy=0;entryX=1;entryY=0.5;entryDx=0;entryDy=0;" edge="1" parent="1" source="130" target="126">
                    <mxGeometry relative="1" as="geometry"/>
                </mxCell>
                <mxCell id="130" value="通过反射创建实例，并添加到集合中" style="rounded=0;whiteSpace=wrap;html=1;comic=1;" vertex="1" parent="1">
                    <mxGeometry x="719" y="1978.8" width="114.25" height="58.7" as="geometry"/>
                </mxCell>
                <mxCell id="135" style="edgeStyle=none;rounded=0;sketch=1;html=1;exitX=0.5;exitY=0;exitDx=0;exitDy=0;entryX=0.5;entryY=1;entryDx=0;entryDy=0;dashed=1;" edge="1" parent="1" source="134" target="130">
                    <mxGeometry relative="1" as="geometry"/>
                </mxCell>
                <mxCell id="134" value="同理使用putIfAbsent()保证线程安全" style="rounded=0;whiteSpace=wrap;html=1;fillColor=#ffe6cc;strokeColor=#d79b00;comic=1;sketch=1;" vertex="1" parent="1">
                    <mxGeometry x="671.12" y="2060" width="210" height="37.5" as="geometry"/>
                </mxCell>
                <mxCell id="140" style="edgeStyle=none;rounded=0;sketch=1;html=1;exitX=1;exitY=0.5;exitDx=0;exitDy=0;entryX=0;entryY=0.5;entryDx=0;entryDy=0;" edge="1" parent="1" source="141" target="139">
                    <mxGeometry relative="1" as="geometry">
                        <mxPoint x="384.5" y="2254.195" as="sourcePoint"/>
                    </mxGeometry>
                </mxCell>
                <mxCell id="142" style="edgeStyle=none;rounded=0;sketch=1;html=1;exitX=0.5;exitY=1;exitDx=0;exitDy=0;entryX=0.5;entryY=0;entryDx=0;entryDy=0;" edge="1" parent="1" source="136" target="141">
                    <mxGeometry relative="1" as="geometry"/>
                </mxCell>
                <mxCell id="136" value="" style="shape=image;verticalLabelPosition=bottom;labelBackgroundColor=#ffffff;verticalAlign=top;aspect=fixed;imageAspect=0;image=data:image/png,iVBORw0KGgoAAAANSUhEUgAABB8AAABGCAYAAACE9jyEAAAgAElEQVR4nO2dX4wT57n/v/vTUTcrnXCXcpY/N6GkMGOkbtyiclWpRCqtggReZihroehEKlxAtIfDRXOwI4+LvSc3lK4CUuGCKkIOwsMO6MBJqBSqk5tS0Tr7k9YzkG7gosvudpOrH1TicDW/i3fGnrFn/Gdsr73k+5GsBHueeZ/3ndfe933e58+Qbds2CCGEEEIIIYQQQnrE/+m3AoQQQgghhBBCCHmxofGBEEIIIYQQQgghPYXGB0IIIYQQQgghhPQUGh8IIYQQQgghhBDSU2h8IIQQQgghhBBCSE+h8YEQQgghhBBCCCE9hcYHQgghhBBCCCGE9BQaH5owqz7EO0MWptSvsdz1e1t4Z6j29RizA6Ab6RxdjWFoaAgxVYPZ9XsPYWio9qVCHwDdCOkGMxdOYviIirELOqx+K7NmWcBpTcXwkZM4vdRvXQjxYCQRHxnByEgcOX7BO8BCLj5Y42gk40gOijIR4dr/xUB/9xaGvl/7KrW8Vh5ELCOJeNLotxodQeNDI8yv8Yn+HACwrD/B7CDt0gZZNwKYGrK6eCimfg36ID2fQdaNRGABMzfPYuxF2mAu6ciVFgAAVulPmHlR+kUGGAO5ZBzxeG4AjV2DrFs0jBnD6YuFfH5tL6T7ywPctwBgGySp37oAVi6OpGHBuG6s3bk6yOvrQdaNrAIWjLyx5g0Q/TU+mE/wsfoQU17rX+whLmlPBsOaJ7+CnyrDAIBRZR3G5O7efqwo4QPbeZVfwegA6UY6RNaQUcRDkZUDULr8fJSiDdt2XuUM2rp9j3UjwMwFFcNHGr3OYqZrrT3GzM27a3ehF8QGBen4ZgCAFP8hxjf0WR8AKJ0Vz+7C3X5rQnqBMYO8YcHaJqH5Hs49bW7w6qahoC3d1gaJ8YTTFwmpVKLP2gisXFw8u7W0qLcsPAAAaTu29VsXI4l43gKkFEqldPhc5dqfa/9VQnn/Tdh/cV7F19pbKw8kEtKlAhJwPCDWqIfRP/Wr4WXtIaayz+s/MJ9j1nyMWWsTPiiuW33FahgrbsEH/VYihEHWjQBKsQy730qEMMi6EQIA40fPIOAvBCE9wbIeAACk7a1s4dzT5gZ00VDQnm5rhEQBpWf9VsLPA+ehrqlxfnBfGLn6bZiycs5JrITU5XDDA9f+nTPIupHVIIFCKYV4PA8rfxi5RAnpNWaV7o/xwfwav3N+fEaVTfjX4rqq5c98jln9a3yyNo05hBBSYfxoER/F+60FIaQZ7sZzWyu+68YMDKD5CW+XaEs3EhELwsYjYX9i7YzzYBimLOQO52EBSBQabIS49iekO0hpXE5dRzxvIX84h8Qq/B3qJn0Ju1jWHdcq+RX/jw8AyMMY0zbhVKjl8zlma9y1pmKPQ+OeRGKXh/jYDJCNPXbeD5JpNxnMcyzrX+NS7KFPbir2GB/r3Tu/a1+35/g4FiTTinzvxzo6JnQ1hpg34WIsBrVhAoN6mVhMDc15IJI6xqCZAbIx1Xk/SKbdRJAmTF2DGov55GIxFVoXEzK0r5sJLRYk04p878f6RaIaphEcjmHdPOn/3A0B8MksIKfVh3hMlIJaXMDMhZMY81w3pp0Nzq2wpIvrLtxFNb+EK3cSYw1DPurbGdZOYsLJ5xA+Dm2GqCzdxekLJ31yoj8B7XTUnwi0oxsAYAFWSceEVi9zOmTcXDl/X1QMa79BrmG+jDbmAdzn4+YWqZHVznY/54jl5DrwhTPEEU8mEY/HEewdb8GokYnHk/XJ+Kyc7xr3XkayPoSith13w9fqaXPFnT8kFKPaZlIYNTrQra0x8Ogm3HctGLmkXy7ZIHY/5PkkDatOxrIMJONxj+5hz6+1duLxJIxu9scycD1K7oQ2dGsk03ReB8mMxEWYA8IMU63PA8BA0jsHHdmqfmFyAIw88hYAKYVGETRc+0eHa38Pj5ahvfsZYp4kkjG1BO3Tp11q4CnMT/8KVf3Ml6iyeRtPodfoNaR+BrXrMgIpfRkpCYCVx1pLm7PGEk4+waWhh7ikP/fFhS2bT3Ap9rDJBBfX+GTNJ/ikqVxrLGuPMaV+jVnT/2OzbD7BJ+pDTGlrzYF4cMca0KEOCUOD73amCV09GLJRDZYxTR1qLNZkcyuu8cmaOrJN5VrD1A4ipmahm/6bmaaOrBpDbM3tvAd3rAeV8aNnkN4AAHcxUZtToHQWYzcXAGxGWjuB8Y5bu4uJI8IA4F1LWkt3MaE1Slr5GKe1k5jwbc4XYN08i7HAPAjB7WBpATMXftO9jWrpLMa0s5UElS5uf8TYBdFuf1ZHN+vmbzB2Qa8zTlhLd5G7ENYfZ6xrDSehBg6PTNvzwJHVamSX7iLXVK51LCOJeDwpch34PrBgGQYsC6g77LVyiI/Ub34ty0A+XrNRd93VmyLVtdOue76UTiEBANb1uk2pSNAHCFdaEcvbiW5tjYGHbRKQi8eRzPs356GJzYwkRkKej5GM+xfDVg6H40kYlu/OMJLuRjccKxcPbMc1ZoRtiNvujzvmbeROiKJblHkdKlP5VwLjtZv+iPMA0nZsswwkHVmPEsjHg5+XMSPeTaR6dfo6uOtRrv1rZHu69gfwaQkxtYTsp0/968tHy8i++9euVLEwL36O2Lt/hf7IbwAQbXyG2MUgw8Ay1O8Lo4Gvq4+eQn/3c2gPg1qKIuNFQmK/+Ma538E1g90Pyl/ZeZj2cZj2cfkr+/NyK0L/a/+37Mgo/89e8rz/ufJl5V5LNVKfK46M88pnXFn//ZrrumB/3kC7pcyCnVe+sj8v/69P52r7jeVbbadjGY9uov9f2v9dN/59GusWKWdkG4ANpWh7VS+Xi3ZGUexMXX/KdkZGgEzZLirOveSMXStWVBwZ5yVnXFn//RooasuADSh2g6vsckaxZSVjF8u+3njabyzfajsdy3h0E/2XB2esW8A8/br90ksvNX9NzHTUjm3b9rXfKva3fqHYh/7ShtBi0f7eL2rl/mgfct773n/9LUTQvebf7V8tNmvkb/avMuJ+3/rtH23T8/613/67eD9T9Lzv1+tbv1Ds73nkzP9yZH7xa/taTUuVz3zt2La5+Ef7V7/9dXNdK+3W37u+7369fP2pHZeI/bH/8utKf1ojgm62bZv/9Wv7e78t2tcWvc/7b5U5Va+b55lmivY1z/3MxT/ahzJB7USYB7bt0cGdk66s/34dMzNR+T6+PjHj18M8bb/+0kv2S6+fDn6/Tsa0Zyac73atTG17LX33Tfv06y/ZL730un068GYhUu7vj7eNSj8b3Ksd3SKMgXj/dfv111250/aM6d5uImTcZuwJp52J06b/+23O2KcnXrd96pqn7YnXJ+wZ06yRbzKG3nlw2tMfc8Z5BvXjEq0/Ic+nERF0azSvzZmJ4HkdKmOGy0T5LlS+VxP2hDO/JyoD53nedcPjfjZhNx05rv0jt9OxjEe3tbr2tx9+YcvxmzbiN235l1/YxYfVj8oPl+zML79ovJ6tyP+l8Zr8wl/E/b984nn3iV38pWg7SL584X/EZ79c8u9LvlyyM7/8i535Mqid9mXqqHzXW/j+DRD98XyQX8G/ZkS2Vphf41LMdelpYCE0n+D/mkL2lM9daxhjxU34qQynBE34LcaKW3BKc2WH8bOM495lPe84w+6otgmniq9gTB72vCt0GwMAPMfyAJ3cLmuP8YkJjGY24We16V8HfKwtSwykoii+zLWyrEArFqHV9UfHNROAnEG56JWRoRSvIiMDMLPINuiPUiyjrLmyMrSM4ihT430RAVkrolzUoMi+3kApFiFasWAO0NwxtYPImoCcubrmxnq1Ca16oen1J5sbFBT2bnbkRKiB+1/ET2DW+awjlv4EY0m0NXt0l+eUajPGj/6b8L5Y0pELDNVw9PDISXsPOJ4Yj2HVnHjfd07dx7+/y3caJm3YhfeOnsB7XahgYd28Vh2fuv6ccfJtLMAIC1dooz+rpZu09wRmjyoY3+B93psxfvREsG6layK0YoOCWU3xVQaRNmzC9iDlOp0HEN46s3td2c14b+8u8cHy4w7DVgwknWNZKVVCqZDwn6YGJtirxpzXy0hIpFINT2SjJZu0kA+peBF0qlzxfnDzRXgT9JXC4+Rb1y3KGLh5DixYImAfpUIabsoDKbE9eNwqFRZSSKX9oSeSlEC6UELBexIvpYVXR11oQKMQh+o8SBSeoZT29EdKIH3Z6Y87np30B1VvlkSdC0G3dGs8ryUgYF43kpFCZDr7LsAyYFhiThYqA7cN28OE2qm2wbV/31nLa3/94l/FGvCNOMrvvwbl1epn8quj0N5/zVkzd4Z8xLn/lpc9774M5f24c/9/wKzxSrAcLwnljVH/vmTLKLT349C21LcTRaYOKQHh/GBgLTk/9C3sYlTbgg/KmyolY1yXnnccd59a3Fix0QPrAsrSDGPsgLjP30N+xEYzW/C2Mux/Uxpur8RNJIbxL4NW20V/LLINK5twShuu+3jQx1qSxIDqakDoRQCmfg0mAPmAElBmR4ZyQLxrhezw5UwZxdp6lJK0CiV7JEgDN3dUxLImoBRRrrM8DPZYS+kSnj171vxV6F/ZN2nvv1XDL7STIl+Ds0HsBlbpT2JRGv9hwAJ0M8ad8pb3g9z1A/XYhO0hRoTtG1xDSkDoRVdYwEypauAIwn3f7bePNvuzqroFEqybtfQYQNgzDaajeQBA2nsGH8VrjGGjm7rjcu1J5ng5YEfuupf6NuOemHO/jAXLyCHpbsb2JwJ1jJRsMpSAUAgAQAKplATAwEwuJzKVQ2qcoK8d3TocA0gplGp/+8IqKUiS2GhaeRxulBMijBY2rFYuL8Y5UUDgT7KrQxjt9MeTbLIV+1Mk3ZrM60AjUySZiPPAE+ojpS6HzMmA8Wmz2gbX/n1kTa/9l6F/CgAvI3Ok908vmH+G9GrwJ9KrwlChvxsQRhFCFJmAu0BaQ8V5XPpWahMAIK/Dz4rr8DMnYcvvsk+wbDrJShR/4pm/W2KyL2cf4p1s+039i1z/RYP8Ck7Zr0TVvo5l/TF+l32O5UZW3L7zBJfUJwDW4e2QxD6DPtayVkbREoYHXY2JGC9ZQSaTgVa7cUXVU8LMxjAUoT+SHPAXRNZQtrX2bxaCqas4mLVgDpKLQx06VFUHoKBYDLYvr4WxXk3ar3axGe9pJ3D/iJuQcDPSR5SuxdG6m0nr5kkM3+zSTUOQ9p7BR0vC8DBz4aTwAtiwC+m9B/Be7cY1Eo9xfwkANmN72FrE2RCvfgL1znSzSmeRvPkYVsOcDQL3mW7f0PqYdjoPAtvaoGD2YufnThXjQuAm2d0k+jfjlQSQVh7xkXzwjUM2cG1vPN0NX6qEUpv1zaT0ZaSux5HPCx0TtR4CHegWbQyqJUOD4vUDDT3iaqRSEoy8JfIRjACQEkilUki3UCnCMq432bBaMK438URwDRg+IvanrWST0XRrNq/de3rndRSZqN+Filzg90RCuvQM6YBbRaq2wbV/H1jja/9HT8VvxqujPo+HXmF+WsLBi/+A+ai1JJbykR+h+EgYEfR3PxP7kldHkTnyGrQ3Xu6aTBDbtouVxAPLAtZIpZ4BSTg5jFFlE06VJZxyXLKW9ce41I3MIavErGphSn0y4D8+z/Fx7DFmMYyfll2XsLWJUizDLheRUWRxKu4kZxxqUFFhUNHVIcRUfcANDya0mAodMjLlYldc21abSsb5Zq+WU7D3iKXHuF/5xwLud+qr2EfGj57Bc+0E0vHNYvHsJE0cblBR4ZvOzAUVYxfutmR4ePFoUu7QPdX1bcarm7B6JEhSAqlCCc/CSpG1WeWgo7KXlbaEbs0jKVrVLeIYeMMn6vbRjZ+FlC7hmeOaLzm65pMiAWOzX9DmIQ6uESEgkWL1JmIzkhhH5ZKo/Wkr2WQU3ZrM68pz9s/rKDJRvwuVJKphnjE9gWv/1eHFWfuvBvq7txB7d7llw4OL8v6PYF+NI/PGy2Jf4iSoHFJL0EOSR0aReRHor+dDAKPaFrxtWbikA7P6E0ARFrp/kYYBPMdoZkugu1Bf8fxYjhVr3Y6e4+PYQ3wyAPvKWVXoMVbcUh/r5WGgx9qLrEArKtDgVIY4qEI3dagHNZTLWsVVX4RpmJAz5cBQgb6iq1CduaMUa0MOTGixGLIDMHd0VeihFMv1eR48DPRYrwkWcPqiyAcxHt+FmdJdkffhYjeqXDgn1qUFSHvPdCeHRCts2IX3ju7Ce3AqNlw8i5mlu5i4uAmzWideHU4YQiMjhpt/oFshAS0TUbfS2UppVJEXwvuMFnBaOxlaOvP+0gJQ51HiemD46cs8aInqyXU9FnJuCQVpf+ABT6LwrIknQVCTAZvYUNrzkvCLuqEWQKJQwPZ8Evm8gXQjhdvSTdDOGDT2QHCfRQPDhyTCRkQlDwPJw0kYloF8zkIi1CukhTEM9GrwU6mw4LEARO1P5fS+lY13JN2azGsnFMKvWxSZKu19F5oYOlq5w/0HQAe/slz7944XYu3/6suQAJiOB0TPVpeflqB+Kv5Xef9HKPo8EJ5CUz9D9lED+S2j0N4fFfuSh8vI/kcJ+qNlqP/xV5SLrwXrHUXGQ0cG8T4xIJ4PwYxK1ck/6rjzLFuDZ12sWDzlVypxbFWe4++rrlEA7o+ksglvNzm2HuSxDkOWFRSvZhwvCH9pKVkWX0jTCv1L3jdM09FJziBTFzJSXyu9L7gGEqWIkGiLCoM81msh58PMBWdzGT+Bj46ecEI2AspvRkTasAlANU/AaiNt2IWP3DASn4dHFDZDGgWABeRuBo3PAk4777v9Xj2i6VZ5LhsUpIMMCQF3ckMg6p/pAk5rTsLSGvozDyzknASNgaUOm2Ak447XA1qOL+86bXpJeOWS8WoSwEIiIUqkGcnwkoerQEMPhHYSCQIi7MIp+yY2oqGttmTU2OZcG/SnxKqMm9/7IGp/2lq8R9QtDCt3uDqvWxzrKDKNbxhxXgOQ3IDzB91br3Dt30UGfu3f6t8FN9/CMrKBpS67g/noH+J/Xn0NmbrQh3+0NcflLaMo/qdjPHDDRrou04FBvI/0xfgwqz3EJS3ATcmJ+RKWxGF8z/tlVtYJVyHdranrFRRxY5dijzHba+UDcL+wMJ949HqOZf0xpoYe1+jaB8yvMaU+qWSwbcoAjzVgQlNjUDW9pgKECd1Jdgi5ZmGqKCJMQFcRU7WasAwTpq5BjaldqQ/cLu5mHeY1j14mTF1FbGgAQkhMDTFVr1SvaMoAj/XAUzn13oWPnESIlQoHpbMYuxnmhu8mIlxA7qLeOJwh/sPq/S7UXrsAq6RjImTD2h4LOH3hJCZu3q2pGrGAGTfBYlglhjYY3+sYMkpnRaiCt50Lv3G8BHYh3YfT/Si6VQwRS3/yPJsFWKWzGDsSHKpSSRpZOosJt3LG0t2GXhKrNw+qeDdMVuim282qb+G64V5sIZeM+673x5d7ap3nkzB8qzUnyV4LoQAwZpBrttKL4IkAGJX2pUShkidCSuyHBMDI55ovMJvqFmUMmixaw6qKJONI5oy6jbdlGcjnW6gYEeA5YFkGkvGcR7/qPMgfznn6Y8FIxiublESh4HkOUfoDVLPEt7p4j6Jb+LyO5y1Udvw+3QJk3DYcGalOJuJ3oa2wkxrc74J1v6lHCNf+q8waWPu39ncBAF6G4hgDzIufibAIz6fmo2Vo7/6147Wl/Oo/i/95tOwJe3gK89MSYt8vQQ/0engK7d3PoF5crqmC8RT6HUdPx3OjM5kgWjDmDiD9CbuwnmNWf4zZBglN6svArMPb5VcwFftafAH0rwOk1nUhlukJLg0Ffbme4NJQ9Zfc55akrMMYnmAWz/FJzMInPrlhjMpBpXYitBNJ5jk+Pvi1KHFjfo2poaBxq5VZrbGOiGVC11XogfNHhpLRatyUFBTLGcRiWZh6FmqgoNKFPAY61KGgjbUOdWioqqE3JEFRoECHDhPZ2BD8msmQZTOgzGaEdiLJmNAOZsWPoJlFLCSDpF9mtcZ6bTBzQUWw8+IufOQNpVjSMeZ4N1RLKjrXHf0Thi/chXXzNzgdPxNQolKUOcxduAss6ZjQ/E/Zn/RyFz7SHmNM08UGsxT0p3pXV0I8sLyAmdJZzNw8G/Dh5urmvMJdTBwJ2vDexcSRqveAL1Rgg4LC3j9h7GZ1g17bTlrrTshKhdJZDNe10yXd4j/EOO5iBgvIaSpyNddLGxbqS4BuUJCO65goCc8Z73yT9p5BeulkJZSjyirOg7YQm6e8ZcHKx+HLlyelkNqWR96oP6GW0ikk8sLlPxkfCbhvIrwviXEkYMCAgXx8BN4ma13XK0n5jCRGgpqpK5tZNTyIso+em0kJ7JfysKw8DucSwckr29Ct/TFovGgNTST4wIJhJGGE5DIMzrfg/Vx4DlgwkPQNolc/CelUAvmkAVh5JOO1jUlIFC7XhBVE7E/FGGLVjXFVtYLHIy6Kbo3ndSl1H/GkFWhUayZTS5TvQlthJ0H3SwCG0SzcBlz7R22Ha38A/gSNwhhQe8Uoir5/L0P9filg3bsM9fu3fPctH3G8HN7YAAXL0PEU2YO3atbkL0N+9SnMIAPEo6fQPy1Bvxik+ctQjgSET0SRqcWtiNOWQbz/9MXzYay4BW9n1lWthi7yMEaVV/B2WQqON5JfwSmnRI8/gbgr169EKutE2zV1fkUinS34aV+tUc/x9yjW14EdaxnaVU+iSc/7spJBsVwODg2QNZTLjeT6lURREW37qjzIkJUiyuUyMn2dOxasSHNnUMd6UKnmeRAbyZqP4wec8pvCsyHwADR+ArNHFYy3UvFgg4JZbxLICpshxRV81JXN+ma8d6RRG2farAISjrT3TEDfq+3UG2tWj/Z12yXGv+76E5jVziAdUjlj/OgZfLTXM9YbNmP8aJN8DqsyD6pI6ctIOQ1JYSUKIcKjSqmE/zS3UMKzkoT7oSfUCRRKBaQS9SUhpUQKhVKhwcJMyCZqd6wBO9gH4UH4Dt6Nr4Vc3Dl9Dir76DmltvL5EM+M1nVrewwahlUEV1IAJKQvO23UqdQksadHz1TBv8mVpAQKpZRfv0QBz0qpmr67fRGJLv0qR+kPfCUmw6gzWLSrG0LmdaqAUimNSgmXCDJBlUja/S50GjPuerpY1xuXXeXafzVZG2v/Vv8uuCjv/wjl91+D8qo/JEJ+dRSZ91/rwtpyFMWr8Zr7vwz5jTjKV3+ETGCljZeh/acnaaRP7jUUr/4IxTe6IVOLmwdJQqqhxXfwGLJt2+63EoQQQgghobgJG6UUSk03uISQ1cNCLi5yskQpQUsIiYCRFNXZfJ5Za4OBTjhJCCGEENK4kgEhpH9ISF9OQQJg5Q83z51CCOkMK+fkl1l7Xg8AjQ+EEEIIGQjECWrS8GbOt2DknCR7a3ShRcgLj5TG5ZQEkTujhQSvhJCIVEvtJgreHENrB4ZdEEIIIaT/uG6kIdClm5DBxkgK4yEYHkVID3gxQpzo+UAIIYSQ/pNIoZBKBCYzLJTW7kKLkG8KiYJIuJlIRamcQQhpjITE/gQSa9jwANDzgRBCCCGEEEIIIT2Gng+EEEIIIYQQQgjpKTQ+EEIIIYQQQgghpKfQ+EAIIYQQQgghhJCeQuMDIYQQQgghhBBCekrPjA/Ly8tYXl7u1e0JIYQQQgghhBCyRqDnAyGEEEIIIYQQQnoKjQ+EEEIIIYQQQgjpKTQ+EEIIIYQQQgghpKfQ+EAIIYQQQgghhJCeQuMDIYQQQgghhBBCegqND4QQQgghhBBCCOkpND4QQgghhBBCCCGkp9D4QAhpibnzb+LUW9/F9PkPsNJvZRpgJONI5qx+qxGCCS02hKGhGDSz37q8OFhGEvGk0W81CCGEEEJIA2h8IGuUecxdn8T0W2/izmK/dallkHWLyOIH+MO9eQDAyr3fozyg/bJycSQNC8Z1A4NqfiDdxoKRN2iAIIQQQggZcP6p3woQEo2HKN+4jRVsRayFq+fOfxdX7jW6Yg8OfTiNHX3QbU2w8R38eOfvceXePNbv/AliG/utUABGEvG8BUgplEppSP3WZwDR1SGouvh/pWijqNRdgCFVB5Qi7LoPBxUJ6VIB90eSMIwk4rkSSmk+fUIIIYSQQYOeD4SQlthx7BamPvwCk8fewfp+K1OLlXNOvSWkLtPw0Aq6rvdbhS6SQKGUggTAyh/GwEbdEEIIIYR8g6HnA/lGsePYFzi0s99akO5iIXc4DwtAolACD72boygKdD0LzVSgyf3WpktIaVxOXUc8byF/OIcEvV8IIYQQQgYKGh9Id1m8jSvnz2FucT7kgq3YPXULu31u+/OYO38Cf7g3X0lkuH7jHvz42DR2eK+7N4lT52/X3G8ed059F3dq3u3UyFAN0wgOx1i5/iamb8xXP+9YtxbHAAAWP8D0qXNY2TmNqWNbMHf9HP5w47YjtxXr9x3Hz/fvCfFOqG8HG7dix76zOLRza4Nx8NJCiMribdy5cQ537lXngejPcezYWNNOR/0BYOSRtwBIKaQSjZTyYOrQsllc0024eR9lWcGBTAaaErAbd67P6tUskbKsIHM1A0UO272b0LUsslm90gZkGWiYaNKErh5EtkavzNUigtSK3B9FgaKryGZ1aC2FV5gwdR3Z7DXopn8M6tvQoQ6p0JUi7CKgxlToJiArGVwtaoCu4qCqw4QMpViuD/2IOgYApPRlpK7HkbfyyBtpFFqYD0YyjqQBJFKXUaDlihBCCCGkZzDsgnSPe5OYPjXZwPAQxG1ceetNXPFuhgGsLN7GlVP9S9i445hrILmNK7VGhXuTjuFhK3ZPdSNPRNQxmMedU2/iSmWjLt5buTGJ6TpDSHg7WBQGia6NtTMPvIYHoNqf6eth86Pd/giMGZFkMJFq8aRbVxGLqb7NLQCYpo6smkVdMILnetRcr8ZiiAWWrdChDsWgeg0PQqiRYkImQD2R48AAAAsOSURBVC811qA6Rrv9AQAoUBQAuh7yuR9TO4iYmvUZHqpthIyBpVcMDwBg6llkNc0xPADCyKDWtB9xDCpISOwXs8CdFw2xcsgbFkTSyjyYrpIQQgghpHfQ+EC6xDzuuJvGndOY/PALTH34BaampqteDjunMfWh1+thHndOTWKuVubDW84p/DzueMs67px2Pv8CU5WT963YPfWF533x6jy0Yit2HzsuTtvvTXpO/6vGiPX7ztb0LYpubY6Bl3vncGcRWO+Rm9zneBXc+0Tc08PK9XMB7XyByalp7N65JXAUdhzz6D51vIVcD2J8VuDXq9ofYOVGiKGjzf4IDIg9ZgLjrXg9mBpizuZXVjIolm3YtniVy0VklFrzhQ61cn0RZdu9voyicwxvZg/WbIpNaDFnUy3XtxF8eu+RCWzHRPagVu800XZ/qiiZDGToyLZU81Ny7l+u3F/o5qiRDTBymDp0U0ambKOcEZ3Ws1mYcgZluwghannsMRHHoFbTxH5hhDJmaEwghBBCCBkgaHwg3WHxtlN+cQ8OHfO4yG/c49nE12wgXZmNxzHplcFW7DjmbOwXz+EPDatUtMfc+e/i1FsBr1MBG/yN7+DnzuZ37rwwELj/xc5pTO6vD1Nom07HYOe0T279/uOO4eMhvqrZ4H+1JDwOdvzAH8KwfuMe7D42XRMKEw2fgaOuP7ccw8s8yvdCvB/a6A8AwLLwAACk7djWgn56Nis2r0oR5aLmMwTIsgKtqMEbBWBq2epmuKigerk3ZMDENa9XhJ5F1gQgZ1Au17YhBXtnmDquuTJ17VxFRgZgZpGt2eG32x8fsoIDMmBe05tu6GXNvb/XciJDKQYZETwoGWiy6Lcrk7mqQYYEqdYIE3EM6pASEM4PrmGq0bVppBJCNymVQqtRO4QQQgghpH1ofCB9Y+Xe78UJ+Q+C4vm3IvYDsbn/qq0wju6yfv/ZavjFqTeFB4RjKOgGHY1BoB5b8O0QI8K3N7iGlIDQi64wj/KfqwaOINz3V/58O8DY015/AAAP7sMCgG0hm3ofOkSBBxmZTGt5DvRrYketKMHXu+97N/CmKUotyAe8G+gmLenXhPdCoIwM5YB41/Lt8NvtT/19tYzS2oY+lAAjguf+dXo5xoggoo1BiE6tWKIcEoUSnj17xvKchBBCCCE9hgknSXfYuAexjedEXP/52/i2e3q9eBt3zp9zwjF+6suP4J7Er9x4E6durI6a7SeiFHkdvnrLzWWxFbu7WGpyNcdg/f5bOLQkDA9z59/E3HkIz5R9x7E7INlk+7jeCVvDDQYbv4P1QNcMH5b1AAAgbW9ht2mawlAhH2iauNC5OywTAGRIYftSSYIICPDqJP4lhSaiDGjJkTGzMQxlWxRquz8BKAoU6NCzGkxFa2gsMXUVB7MWzKabfxcJbQxBtDEIYdt2CYCFB5YFJGhUIIQQQggZBGh8IF1iK3bv24M752+LhINBFRK65C2w6izO46vKP+bFBrsLIQr9YMexW9ixT1SiKN+bx8ribdw5fxt3buzBoaDKGuQFR0EmI0PPXoNuhhsfdHUIamTvCEIIIYQQQmh8IF3DTcS4FTt2AnOVmP6tWL/zOH6+rz6sQIQBzGP9vlvdyZ/QE+Yrnhs7du7B3L3bmDs/idjOblS56NMYbNyD3cf2YPcxUYHiD+cnMbd4G1fOf4BvT3Xi1eGESDSqmrH4pfB62Li1a94jAGDdfwA0C7yQZUgQYREW0EJIhBNS0Oig37LEx5Jcdz/LNFHvkuB6U9S05DQkZ8ooh8Ul1NJ2f0Juo2WgZJ2ym0HRG7paMTyIPBfelkxosZjIcdEhkcYghAf3RejLtlCXFUIIIYQQstow5wNpgoVcfAQjIyOIJxtkb3OSSa7fdxaHjt3yVHe4JRIIBpyor98oKiysLD3sjepdYO68U+py5zQOHZt2QjYCym9GpN9jsH7jHhxyE4Iufunx8IiCG24hKp/UU31//Ybg6hrtIrnB/Q/EBrzJ1U5+glYrPMgQeRJNZAOTIpjQnPdlzyZXcpIgmFatRp5qDrUtOQkZ62Ua0W5/wmhcdtPNYQE5g0yQMaWDlr1EG4MgLIhoHAmtROMYyThGRkYwEs91rS+EEEIIIaQeGh9IQ6zcYeSdFbllJBFmf1hZFJvnlT/fxtziPFYanX67uDkg7k1i+vwHmPPJzGPl3ge44pahrGNLdaNbJ9slKiU2qyEjO45NV3W+HpYIsw3dOhqDdpjHnfNv4sr12zXPZh5zTtJLbPwOvt1hKzv2VcuTTp/3JpWcx9x5t8TmHvy4W14eiXFRocC6L6peNKSatNDMxiolKl1MU4emar4NuChHCUBXa643oasHnRN/BRnPSb2sHKjIqG4VDFNv7CGgKKJqhK4ipmrQfdeZMHUNap3hov3+hOGW3dQDLq5UqjCvefQyYeoqYkNqja4dEGkMgngA4fiwLTxXh4uVQ95wf+DyOJyj+YEQQgghpFcw7IJ0hfU7f4L1N+axsngOV06dC7hiK3bsO44f7/eGX+zBoanj+OrUOazcO4cr987hSp3cHsQCW/TkmHDa9MqGJZacO/9dkWgxoJ1DH3pCKRY/wLTj3VAxOLjXHduDufO3sXLjBO7svBVQorId3ToZgzZZnMfcvUnMBSa23Iod+2pDLm7jyltBho/buPLWdyt6+kJGNr6Dn+/7PaZvzGMlMPeHSODZjZAVQQLjCcAwDORzFhJNKhbIWhlFKwZVdzfPtVcoKPoFcDVzDbFs2PUyMuWiv5ylrCGjZKHqgK7G4BWRM2VkrFhA/gQFxXIGsVgWpp6FqgdlXFTqyma23Z8wZAUH5CyyQdYHNyklTGRjQ/BrJkOWzeAym20TbQzqMGZgAFXDVCMkCduAisdDS+E7hBBCCCEkEvR8IA2R0peRctbiUqKAQthqfuM7+HGlYsJWrN9Ye7I9j7kbk5UNvVducmoau3fW5gAQuSIONdqo7pzG5LHj2FHXVqdU8zxg43H8uNaIsfO4Y3AQng2BlRva0a2TMWiZrdh9rFEbt9qsAhLO+v23AvpebafeWNMZiXExKa3rRktu80qxjHIxA6WmFIMsK8gUM4Eb/PrrZchKBsVyObB0pFIso5jx5IGQZdFuo1wGsoZyuYiMUps/wm2rGLjxbrc/IY2LspuBKKLtuv4XUS6XkenmXj3iGFSxkMsbACSkUk1NDwASKIT+qBFCCCGEkG4yZNu23YsbLy8vAwBGR0d7cXsyYKxcfxPTN+aBjccxGZC0cOX6JKZviISUu3uwASXfZCzk4nHkLUBKlVBq4v1AXmCMJEaSBpAo4FnLRgUDyZEkDHD+EEIIIYT0Eno+kC4wj/KfRf6Detd9wfqd3+lqdQNCqkhIX05BAmDlD4Nh+99QrJyTFLdVrwcAloFcXBgegARSNDwQQgghhPQMGh9IV5m7MYm5RX8ixpXF27hSCWP4CWL0eiDdRkrjckoCYCFf2UySbw4WcofzsAAkCiU0tSFYOcRHRjASTzoJdSWkSoXmOSIIIYQQQkhkGHZBusO9SZxqWn6SIRektxjJOJKGBUgplEpppg78RhAh7MbKIR7Pw5IkJPankEonOFcIIYQQQnoMjQ+keyzexp0b51C+N+9PwrhxK3b8oLbSBSG9wUjGMTN+GYUEt5PfFKxcEnmkUGDYBCGEEELIwELjAyGEEEIIIYQQQnoKcz4QQgghhBBCCCGkp9D4QAghhBBCCCGEkJ5C4wMhhBBCCCGEEEJ6Co0PhBBCCCGEEEII6Sn/H8Z7ymsK92poAAAAAElFTkSuQmCC;sketch=1;imageBorder=default;" vertex="1" parent="1">
                    <mxGeometry x="40" y="2170" width="544.5" height="36.13" as="geometry"/>
                </mxCell>
                <mxCell id="138" style="edgeStyle=none;rounded=0;sketch=1;html=1;exitX=0.5;exitY=1;exitDx=0;exitDy=0;entryX=0.5;entryY=0;entryDx=0;entryDy=0;" edge="1" parent="1" source="137" target="136">
                    <mxGeometry relative="1" as="geometry"/>
                </mxCell>
                <mxCell id="137" value="例子&lt;br&gt;假设codecName=hessian" style="rounded=0;whiteSpace=wrap;html=1;comic=1;fillColor=#ffe6cc;strokeColor=#d79b00;" vertex="1" parent="1">
                    <mxGeometry x="224.13" y="2097.5" width="176.25" height="36" as="geometry"/>
                </mxCell>
                <mxCell id="144" style="edgeStyle=none;rounded=0;sketch=1;html=1;exitX=1;exitY=0.5;exitDx=0;exitDy=0;entryX=0;entryY=0.5;entryDx=0;entryDy=0;" edge="1" parent="1" source="139" target="143">
                    <mxGeometry relative="1" as="geometry"/>
                </mxCell>
                <mxCell id="139" value="EXTENSION_LOADERS" style="rounded=0;whiteSpace=wrap;html=1;comic=1;fillColor=#dae8fc;strokeColor=#6c8ebf;" vertex="1" parent="1">
                    <mxGeometry x="420" y="2220" width="160" height="30" as="geometry"/>
                </mxCell>
                <mxCell id="150" style="edgeStyle=none;rounded=0;sketch=1;html=1;exitX=1;exitY=0.5;exitDx=0;exitDy=0;entryX=0;entryY=0.5;entryDx=0;entryDy=0;" edge="1" parent="1" source="141" target="149">
                    <mxGeometry relative="1" as="geometry"/>
                </mxCell>
                <mxCell id="153" style="edgeStyle=none;rounded=0;sketch=1;html=1;exitX=1;exitY=0.5;exitDx=0;exitDy=0;entryX=0;entryY=0.5;entryDx=0;entryDy=0;" edge="1" parent="1" source="141" target="145">
                    <mxGeometry relative="1" as="geometry"/>
                </mxCell>
                <mxCell id="141" value="结果" style="rounded=0;whiteSpace=wrap;html=1;comic=1;fillColor=#d5e8d4;strokeColor=#82b366;" vertex="1" parent="1">
                    <mxGeometry x="253.75" y="2277" width="117" height="36" as="geometry"/>
                </mxCell>
                <mxCell id="143" value="{&lt;br&gt;&amp;nbsp; Serializer.class: extensionLoader(type=Serializer.class)&lt;br&gt;}" style="rounded=0;whiteSpace=wrap;html=1;comic=1;fillColor=#ffe6cc;strokeColor=#d79b00;align=left;" vertex="1" parent="1">
                    <mxGeometry x="620" y="2210" width="305" height="50" as="geometry"/>
                </mxCell>
                <mxCell id="147" style="edgeStyle=none;rounded=0;sketch=1;html=1;exitX=1;exitY=0.5;exitDx=0;exitDy=0;entryX=0;entryY=0.5;entryDx=0;entryDy=0;" edge="1" parent="1" source="145" target="146">
                    <mxGeometry relative="1" as="geometry"/>
                </mxCell>
                <mxCell id="145" value="EXTENSION_INSTANCES" style="rounded=0;whiteSpace=wrap;html=1;comic=1;fillColor=#e1d5e7;strokeColor=#9673a6;" vertex="1" parent="1">
                    <mxGeometry x="420" y="2280" width="160" height="30" as="geometry"/>
                </mxCell>
                <mxCell id="146" value="{&lt;br&gt;&amp;nbsp; Hessian.class: hession&lt;br&gt;}" style="rounded=0;whiteSpace=wrap;html=1;comic=1;fillColor=#ffe6cc;strokeColor=#d79b00;align=left;" vertex="1" parent="1">
                    <mxGeometry x="620" y="2270" width="150" height="50" as="geometry"/>
                </mxCell>
                <mxCell id="152" style="edgeStyle=none;rounded=0;sketch=1;html=1;exitX=1;exitY=0.5;exitDx=0;exitDy=0;entryX=0;entryY=0.5;entryDx=0;entryDy=0;" edge="1" parent="1" source="149" target="151">
                    <mxGeometry relative="1" as="geometry"/>
                </mxCell>
                <mxCell id="149" value="extensionLoader(type=Serializer.class)" style="rounded=0;whiteSpace=wrap;html=1;comic=1;fillColor=#dae8fc;strokeColor=#6c8ebf;" vertex="1" parent="1">
                    <mxGeometry x="420" y="2400" width="230" height="32" as="geometry"/>
                </mxCell>
                <mxCell id="151" value="&lt;div&gt;{&lt;/div&gt;&lt;div&gt;&amp;nbsp; &amp;nbsp; type: Serializer.class,&lt;/div&gt;&lt;div&gt;&amp;nbsp; &amp;nbsp; cachedInstances: {&lt;/div&gt;&lt;div&gt;&amp;nbsp; &amp;nbsp; &amp;nbsp; &amp;nbsp; &quot;hessian&quot;: hessian&lt;/div&gt;&lt;div&gt;&amp;nbsp; &amp;nbsp; },&lt;/div&gt;&lt;div&gt;&amp;nbsp; &amp;nbsp; cachedClasses: {&lt;/div&gt;&lt;div&gt;&amp;nbsp; &amp;nbsp; &amp;nbsp; &amp;nbsp; &quot;kyro&quot;: KryoSerializer.class,&lt;/div&gt;&lt;div&gt;&amp;nbsp; &amp;nbsp; &amp;nbsp; &amp;nbsp; &quot;protostuff&quot;: ProtostuffSerializer.class,&lt;/div&gt;&lt;div&gt;&amp;nbsp; &amp;nbsp; &amp;nbsp; &amp;nbsp; &quot;hessian&quot;: HessianSerializer.class&lt;/div&gt;&lt;div&gt;&amp;nbsp; &amp;nbsp; }&lt;/div&gt;&lt;div&gt;}&lt;/div&gt;" style="rounded=0;whiteSpace=wrap;html=1;comic=1;fillColor=#ffe6cc;strokeColor=#d79b00;align=left;" vertex="1" parent="1">
                    <mxGeometry x="690" y="2330" width="233" height="172" as="geometry"/>
                </mxCell>
                <mxCell id="156" style="edgeStyle=none;rounded=0;sketch=1;html=1;exitX=1;exitY=0.5;exitDx=0;exitDy=0;entryX=0;entryY=0.5;entryDx=0;entryDy=0;" edge="1" parent="1" source="154" target="155">
                    <mxGeometry relative="1" as="geometry"/>
                </mxCell>
                <mxCell id="154" value="SPI机制的好处" style="rounded=0;whiteSpace=wrap;html=1;comic=1;fillColor=#ffe6cc;strokeColor=#d79b00;" vertex="1" parent="1">
                    <mxGeometry x="40" y="2500" width="100" height="38" as="geometry"/>
                </mxCell>
                <mxCell id="155" value="服务根据：&lt;br&gt;①接口类型&lt;br&gt;②对应实现类（服务名）&lt;br&gt;分成对应的两级，方便动态引入和切换服务" style="rounded=0;whiteSpace=wrap;html=1;comic=1;fillColor=#ffe6cc;strokeColor=#d79b00;sketch=1;align=left;" vertex="1" parent="1">
                    <mxGeometry x="200" y="2473.5" width="180" height="91" as="geometry"/>
                </mxCell>
            </root>
        </mxGraphModel>
    </diagram>
</mxfile>